<svg id="Layer_1" xmlns="http://www.w3.org/2000/svg" viewBox="0 0 97.1 97.1"><style>.st0{fill:none;stroke:#0093ca;stroke-miterlimit:10}</style><path class="st0" d="M48.6 1.4c-26 0-47.1 21.1-47.1 47.1 0 8.5 4.2 18.6 4.2 18.6 1.1 2.6 1.3 7 .5 9.7L2.7 87.9c-.8 2.7.8 4.4 3.5 3.8L17.6 89c2.8-.6 7.1-.2 9.6 1.1 0 0 11.7 5.6 21.3 5.6 26 0 47.1-21.1 47.1-47.1.1-26.1-21-47.2-47-47.2z"/><path class="st0" d="M37.7 54.2c3.3-1.3 6.5-2 9.6-2s6.3.7 9.6 2 5 3.1 5 5.3v3.7H32.7v-3.7c0-2.2 1.6-3.9 5-5.3zm14.7-7.8c-1.4 1.4-3.1 2.1-5.1 2.1-2 0-3.7-.7-5.1-2.1-1.5-1.4-2.2-3.1-2.2-5.1 0-2 .7-3.7 2.1-5.2 1.4-1.5 3.1-2.2 5.1-2.2 2 0 3.7.7 5.1 2.2 1.4 1.5 2.1 3.2 2.1 5.2.1 2-.6 3.7-2 5.1z"/></svg>