<svg id="Layer_1" xmlns="http://www.w3.org/2000/svg" viewBox="0 0 97.1 97.1"><style>.st0{fill:none;stroke:#0093ca;stroke-miterlimit:10}</style><path class="st0" d="M48.6 1.4c-26 0-47.1 21.1-47.1 47.1 0 8.5 4.2 18.6 4.2 18.6 1.1 2.6 1.3 7 .5 9.7L2.7 87.9c-.8 2.7.8 4.4 3.5 3.8L17.6 89c2.8-.6 7.1-.2 9.6 1.1 0 0 11.7 5.6 21.3 5.6 26 0 47.1-21.1 47.1-47.1.1-26.1-21-47.2-47-47.2z"/><path id="XMLID_27_" class="st0" d="M37.4 46c3.1 6 7.7 10.6 13.7 13.7l4.6-4.6c.6-.6 1.4-.8 2.1-.5 2.3.8 4.8 1.2 7.4 1.2.6 0 1.1.2 1.5.6s.6.9.6 1.5v7.3c0 .6-.2 1.1-.6 1.5s-.9.6-1.5.6c-9.7 0-18.1-3.5-25-10.4-6.9-6.9-10.4-15.2-10.4-25 0-.6.2-1.1.6-1.5.4-.4.9-.6 1.5-.6h7.3c.6 0 1.1.2 1.5.6.4.4.6.9.6 1.5 0 2.6.4 5.1 1.2 7.4.3.8.1 1.6-.5 2.1L37.4 46z"/></svg>