<svg id="Layer_1" xmlns="http://www.w3.org/2000/svg" viewBox="-33 51.6 443.2 411.4"><style>.st0{fill:#512c2c;stroke:#000;stroke-miterlimit:10}.st1{fill:#fff}.st2{fill:none;stroke:#0093c9;stroke-miterlimit:10}</style><path class="st0" d="M-46 17.1h531.8v490H-46z"/><circle class="st1" cx="270.2" cy="223.6" r="10.2"/><circle class="st1" cx="344" cy="176.6" r="10.2"/><circle class="st1" cx="385.9" cy="238.7" r="10.2"/><circle class="st1" cx="117.6" cy="376.2" r="10.2"/><path class="st2" d="M1305.1-269l3 .5 1.1-.8 1.5-2-.9-1.1-.7-.3-3.4.8-1.1-.5-.6-.3-1.3.7-2.2.7-1 1.1 1.7 1.1zM1279.6-257.7l.6-1.5 1.5-1.4-2.5.1-1.8.6-1.9.9.5.6zM1169.2-236.6l-.7.7 2 1.2 5.4.9 1.3-.2-6.5-2.6zM1347.4-441.8l16.1 1.5 4.4-2.3-1.2-1.3-4.7-.5-13.4-.4-2.2 1.3.3.6zM1420.9-325.7l1.1.8 1.1.4 3.1-.7 1.5.3.5-.4.5-.6 1.7-1.2 1.8-1.5v-.7l-.4-1.4-8.7 2.9-5.6 1.1-1.9 1 1.2.2zM1262.9-248.6l.5-.3h.6l.6-.5.9-.5-1.3-.8-4.7-.7-3.2.5-1.1 1 4.4.4zM1368.8-416.8l3.3.6 2.5.8 1.5 1.3 10.3 2.2 8.4 2.7h2.8l5.8-1.9 3.1-1.5 1.2.1 3.9-.8 11.5-.8 17-1.8 1.6-1 1.5-1.4-1.7-.6-.4-.6-1.8-3.9-.5-.7-.6-.5 1.1-2.3 1.4-1.1 5.7-.8 1.1-.6h1.4l.2-1.9-.5-1.1-1.7-.8-3.7-.5-8.5-3.4-.8-1.1-1.7-1.1-.4-1.4-.8-.7-3.6-2.5-1.5-.3-1.1-.6-1.1-1.4-1.3-.6-8.2.3-1.3 2.4-2.9 1.5-2.9.8-3 .2-3.1.5-3.2.9-3.3.7-1.8-.1-1.7.3-3.8 1.2-1.6 1.9-2.3 1-.7.6-1.3 1.9-.2.8 2.3.4 6.3-.7-3.6 2.7-2 2.5-3.2 2.5-4.3 1-4.5.6-2.7 1.8-2.1 1.7zM1394.1-403.6l2.6-2.5-4.2-1.1-11.4-1.6-5.4-1.4-5.4-.2-4.2.1-2.6.5-2 1.5.7 2.2 3.2 2 4 1.3 6.1 3 3.7.3 3.1-.3 3.1-.5 2.9-1 3-1.3zM1250.9-249.5l1.7.4 1.2-.8-.2-.5-1-1-1.1-.3-1.9.3-.7.5.7.8zM1204.5-217l7.1 1 .9-.3.5-1.1v-3.7l-1.6-1.5-.7-1.4-2.5-1.3-6.6 4.9-.2 1 .7 1.1zM1169.4-396.7l3.9.9 2.3.1.2 1.4 2.1.2 10-.4-.5-.7-2.4-.9-11.5-2.5-1.3.8-1.6-1-1.3-.4-1.2.6.3.5zM1185.2-212.5l-1.5 1.9-1.5 1.1-3.1 1.8-.4 1.2.4.4 3.1.4 6.3-.2 1.9-.4 2.9-2.1 1.9-.5 2.7-1.6-.2-.5-.9-1.2-6.8-1.9h-2.2zM1207.3-432.8l12-1.1 4.1-.6.4-.4.7-1.3-2-.7-6-.8-7.6.5-1.4 1.1-1.7 2.2.4.4zM1239.3-281.3l.9 1 .6.3 2.1-1 .6 1.4.9.4.9-2.4 1.7.1.5-.3-.1-1-.5-.8-.1-2.5-1.8.1-1.4.4-.1.9.2 1.3-1 .1-1.7-1.1-2.7 2.1.4.7zM1432.6-304.5l.3-1.1-1.1-.4-3.3-.7-1.6.9-4.7-.6-2.4 1.2-2.8-1.1-.7.8-.2 1.2 4.7.6 2.2.8 3.4.2 2.4.8.7-1.4v-.9l1.7-.6z"/><path class="st2" d="M1445.4-413.8l-6 .4-9.1 1.5-1.8-.2-1.4.4-4-.4-4.6.1-1.4 1-.6.9-.8.3-3.8-1.9-.5.2-1.7 1.6-1.2.7-4.8 2-1.2 3.3-2.8 2.1-2.4 1.6-5.7 2-4.3 3.9 2.6 1 2.6-.1 3.6.3 5.9 1.4 1.3 2.8 2.1 2.5 1.8.7.2 1.5.2.4 1.8 1.1 3 1 1.4.1 3.9-1.4h1.2l2.2 2.5 1.3.2 7.1-.4 1 .4 4.9.5.8.6.8.9 4.1 1.8 3.9 1.2h1.7l2.8.4 1.9-.3 3 .8 1.6.2 5.3-.9 8-.4 1.3-.6 5-3-.4-1.3-1.1-2.5-.8-.4-3-.6-2.6-2.8-3.5-1.8.7-.4h.9l2.8.9 1.9-.1 1.9-1.3.5-1.8-.2-2.2.2-.8.4-.7.2-1.5.2-1.7.3-.7.4-.5 1-2 1.9-1.1-1.5-2.1-1.7-1.4-1.1-.7-2.5-.6-.8-.8-1.3-.5-1-.9-5.5-.8-3.5-.2-.8.2-.8 1 .4 1.7-1.9 2-1.1.3-2.6-.8-2.5 1.4-1.9 2.1-1 .6-.7-.5.4-2.1 1.7-1.4.6-1.7 1.3-1.4 1.5-.5-1.5-2.2-3-1.8zM1441.8-316.9l.5 1.7 1.1 1 1.4.1.6-.4-2.6-2.8zM1436.3-308l-.6.3.5.5-.7 1.8v1.3l-.3.3.3.2.6-.3 1.5-1 1-1.7-.1-.4-.8-.7zM1533.8-376.8l.3-1.2-.3-1.2-.6-.4-4-1-1.2-1.4-1-1.7-1.6-.7-1.6-.1-3.1.7-3 1.6-1.6.4h-1.6l-1.4 1.2-1.2 1.8-2.1 2.2-2.3 1 .5-1.1 3.8-6.5.6-2 1.2-2.2.7-.5 1.5-.3.6-.5-.8-.9-3.2-1.8-4.9-1.1-1.6.1-.8.5-.5 1.1-.1 1.7 1 1.6-1.6.1-1.6-.3-1.2-1.4-1.1-1.6-.8-.1-1.6.3-.6.3-.5 1.1-.1 1.7-3 .6-1.5.8-.6 1.3-1.3 1 .2.8-.4 2-.9.5-.8.8-.5 1.5-.1.8.5 2.4.8.7-1 .1-3.3-.4-1.4.3-1.3 1-1.7 2-.2 1.4-.1 1.6-.6 1-.6.9-.5 1-.9 2.5-.5 1.1-4.4 2.9-1.7 1.6-1.3 2.6-2 1.2 1.4 1.1 1.4.7 4.4.5 3-.5 6-2 6.4-2.7 2.1-1.3 6.3-.1 6.3-.3 5.6-.5.7.6.8.3.8.1 2.7-1.9h9.2l7.4-2.2"/><path class="st2" d="M1475.7-399.4l-.3 2 2.8-.3 2.1-1.6-2-.4-.9-.5-1.5.3zM1338.7-330.1l2.8-.1 1.9-1.8.2-.7-.8-.8-4.3.2-1.1.8-.7 1.3.5.4zM528.1 400.3l-2.4.1v.6l-1 .4-.8.3h-1.5l-.8 1.3.1.3.7.6 2.1.7 1.4-1.5 1.2-.1-.3.5-1.8 1.3.7.8 2.9.8h1l1-.3-.5-.6-.2-.6.5.1.7.5.2-.2-.3-1-.6-.9-1.7-1.5.2-.8zM508.9 422.1l-.9-1.1h-.3l-.8.4.1.9.7.4.4.7 1.1.8 1 1.2.4-1-.1-.6-.4-.9.1-.7zM491 408.2l-.7-1.6-1.3-1.1h-.7l-1.5.5-2 1.2-1.5.7.1.3.7.2 1.2-.5 1.5.4 1.4.6 1.5 1 1.3 1.2.5.6.6.5.8.4.4 1.7 1.4.6h1.7l2 .2v.2l.3.5.5.3.5 1.1.6.6v.8l.3.5 1.3.8.6.7h.7l.4.1.3.4.4.2.4-.2.6-.6.1-1.5-.3-.4-1.3.1-1.3-.3-1.1-.8-.7-1.8-.4-1.8.3-.6-.2-.6-.6-.7-.3-.9-.4-.3-2.8-.3-2.5-1.1-.6-.1-1.5-.6zM509.4 429.6l.2.2h.3l.1-1.5-.5-.2-.1.9zM455.2 421.9l-.9 1.1.2.4.9 1.2 1.5 1.2 1.1-1 1.1.3-1.3-1.4-.7-.5-1-.2zM485.5 448l.2-.6.5-.8-1.3-1.2-.6-.8-.2.2-.4.7.1 1.4.4.7zM503.9 406.6l-.1 1 1.3.9v.2l-.3.4.4.1 1.3-.4-1.2-1-.2-1-1-.5zM506.5 435.6v.5l.4.7.2-.1.6-.4-.6-1.1h-.5zM502 425.6l-.6 1.1.2 1.1.8-.7.6-1.1-.3-.5zM504.8 439.9l-.1-.9-.9.3-.2.2-.3.3-.9-.5-.1.3-.3 1 2.7-.4zM504.1 433.9l.5-.2.1-.6v-.4l-.6-.2-.6.3-.2.8zM507.8 380l-.7-.9-1.2-.1-.5.4-.9 1.2v.7l1.7 1 1.6-.6-.1-.6.3-.7zM453.4 415l-.4.9-.5.2-.6-.5.5.2.1 1.7v.7l-.3-.2.4-.6v.2l.3.5-.1.3.3.9.6.1.4-.3 2 .7.3-.3.1-.8-1.2-1.5-.9-.3-.2-1.7-.6-1.4-.2.3zM503.4 428.6l-.5.3-.3.5.4.5-.3 1 .8-.4.5-.9-.4-.7zM497.1 403l.4-1-1.1.6-.6 1.2.6-.2zM308.4 350l-.4-.3-.8-.2-.7-.1-.7.4-.5.7-.7.3-2.3.5-1.3.9-.9 1.9-.7.7-.3.4.3.2h.5l.6.9-.9.4-.5.6.3.9.7.7.7.3.1.8-.7.7-.5.6.1.4.7.2.8-.1.3.8-.5 1.1v.6l.6.4 1.5.5-.1.5-.6.7-.3.6.5.4.6.7 1.4.6 2.4 1.4.9-1.2.9-2.5.6-.8.3-.8.1-3 .3-.7 1.6-2.4.1-.5-.4-6-.3-.5-.4-.5-.3-.6.4-2.3-.1-.9-.2-1.3.1-.5-.7-.6h-.6l-.5 1.1-.1 2.1.2.7-.3.8zM454.5 408.7l-.5.9-.5 1.4v1.2l.4-.3.3-.1.5.1.5-.1.3-.4.1-2.4-.3-.7zM295.5 375.3l.4-.3.3-.6-.3-.3-.6.3-.6 1-.2.5.6.1zM243.9 393.6l.2-.2.3-.9v-.2l-1.2-1.8-2.1-.6-2.7.2-.1.4v.9l.3.2 1.3.2zM209.6 404.7l-.7-.5-2.7.6-.6.7-.1.7-.5.2-.5 1 .5.4 1.9.3.5-.9.6-.2 1.7-1.6zM229.5 391.5l-3.3.9-1.5.8-5.4 3.6v.6l.3.5.9.1.5.8 1-.8.7-.3.9.2.6.5.3 1.5.3.3 1.3.3 2.3 1 1-.5 1.2-.8.6-1.4.7-1.1.9-1.1.6-1.1-.2-.9-.7-.2-.7-.2-1.3.5-1.2-.5.2-.7.4-.4.1-.4-.4-.3-.1-.3.5-.5zM207.3 409.4l-.3.5-.1.4v.6h1.3l.8.2.3-.2v-.5l-1.2-.1zM294.1 379.4l.2 1.8.5.7.8.7.8.9.4.8 1.6 1.4 2.1.9v2.4l-1.5.8-1.3.6-.4.9-.1 1 1.1.2.6.9-.1 1.1v.5l-.4.2-.5-.4-.3.4.2 1.1-.2 1.3-.4.6-.2.6.1 2.8.1 1.3.9 1.4.8 1.2.6.9.7.5h.9l1 .3h1.1l1.1-.7.7-1.2.4-2.9.6.4.6.2.7-.2.8-.1 1.6.8 1.2.4 1-.4.3-1.3.4-1.5.9-8.6.3-1.3-.1-1.2-.5-1-.2-1.6 1.4-2 .4-.6.3-.9-.2-.9-1.4-3.9-.7-1-.7-.5-.3-.3.5-.9.4-.2-.1-.1-.5-.3-.5-.3-.5-.8-.6-.7-1.3-.7-.9-.1-.7-.8-.6.2-.2.9-.7.6-1.4.5-2.3 2.5-1.6.8-1.6.7-1.4.2-1.3-.2-.7-.1-.8-.8-.3-.1-.3.7zM368.3 380.4l.3-.2v-.3l-1.2-.4-.2.6.2.2.3.2zM445.5 394.8l-.1-.4-.5-.3-.6-.4-1.7.3-.8.5v.6l2.1 2.1.9 1.9 1.2.7 1.6.6-.3-.9-.6-.1-.9-.4-.4-.6-.3-1.4v-.3l-.7-.7.2-.4zM455 413.8l-.3-.1h-.3l.3 1 .8 1.4.6-.2-.2-.5-.4-.5-.1-.4v-.4zM365.7 421.1l-.7-.3-2.5-1.5-.7-.1-.7-.2-.4-.8-.8-.2h-1.6l-1.4.9-.1.7-1.2.6-.7.1-.6-.4-1.5-1.8-.4.6-.5.5-.8.4-.7.4-.8 1.7-.7 1.8.3.7.9 1.5 1.5 1.1.7.3.8.1 1.4-.1.7.1 1.5.9 1.7.4.6.4.6.6 1.2.9 3 1.4 2.7 1.8 1.4.5 1.5-.1h1.5l1.5.9 1.4 1 1.7 2.6.7.3.8.2 2.1.8 1.4-.2 1.5.4 1.4.1.1-.7-.2-.7.1-.8.4-.8.5-.6 1.4-1.1.1-.7-.1-.6-.7-.6-.8-1 .7-.5-.5-.6-.6-.4-.3-.4-.2-.6-.1-1.2.4-1.1.5-.8.3-.9.2-1 .4-1 3.1-4.1.4-.6.9-1.7.7-.7-.8-.5-.9.1-2.1 1.1-.7-.2-.8.3-.6.6-.7.3-1.8-.3H380l-.8.1-.6.2-1.3 1-1.7.6h-1.2l-1.6.4-3.1-.4-1.4.3-1.9.6zM296.4 404.5l.1.9.7 1 .8-1.4-.5-.4-1-.4zM323.1 348.1l-.4-.6-.5.5-1-.1-.4.2-1.6.1-.2.4.2.7h1.1l1.6-.3 1.1.7-.1-.9.2-.4zM493 457l-.2-.5-.5.4-.3 1.7.2 1.8.4.5.6.3.8.1 2.3-.2 1.5.4 6 .8 1.6.7 1.6.4.3.4.1.6v1l.7.2 5.3-.4 5.2-.6 2.8-.3 2.8.1h1.5l1-.4.2-.7.3-.9.2-1.6.3-.7-.4-.7-1.5.5H524l-1.8 1.3-.7 1.1-.6.4-.6-.2-.1-.6.3-2-.4-.3-2 .3-1.3.3-2.3-.5-2.4-.1-1.3-.9-3.7-.2-1.2.2-1.2.4-1.1.3-1.2.1-.5-.1-.5-.3-.2-.6-.1-.6-1 .1-.7-.3-.2-.2.2-.2 1-.4-.4-.9-1 .1-.7.8-.3.1h-1.2l-.9-.1-.7-.3-.3-1.1-.4-.3-.3.7v.8l-.6.5zM632.6 456.1l1.2-1-1.9.5-1.8.8-1 .4-1.7 1-5.8 1.7-2 .3-1.9-.1-2.4-.2-2.3-.5-.2 1.6-.6 1.4-1.4.4-.8-.2-.7-.2-1.3.4-1 1-1.1.5-1.2-.4.2 1.8 1.3 2.6.4.7.8.3 2.4.8h.7l1.5-.2.6.4.4.9.8.1.2-.5.1-.5.4-.6.7-.3h.8l1.6-.3 1.5-.4 1.3-.9 2.3-2.3.8-.1.8.1h1.5l1.5-.3-.4-.8-.2-.3-1-1.1-.3-.9.5-1.3zM527.5 441.5v.7l.6.5.5-.7 1-.4-.6-.5-.6-.3.2.5-.5.4zM539.9 436.9l-.7.1-1.9.9-1.4 1-.5.7h.4l1.1-.7 1.5-.1.6-.5 2-.8zM536.2 424.1h-.4l-1.6-.5h-1l-1.4.5-.7.8.4.2 1.4.1.8.7.8.2 1.7-.8 1-.2-.2-.9zM536.7 436.1l.2-.2.1-.4-.3-.1-.7-.6-1-.5.7.9-.3 1.2zM546.1 451.5h.3l.9-.3 1.6-1.7 1.6-.3-.3-.9 1-1.2 1.1-2.3v-1l-.7.1-3.4 1.2-1.2 1-.6.9-.7.7v.4l.5 1-.5 1.7zM547.6 442.1l.1-.4v-.6l-.1-.3-.4.1-.6.4v.3l.7.7zM515.4 440.6l.2-.3.4-.6-1.5-1.1-.4.5.3.5zM518.8 383.6l-.8-.4-1.5.5 1.6 1.3 1.4-.4-.2-.6zM513.7 433.4l-1.1.6-.5 1 .3.6.9.1 1-1.2-.1-.2.1-.8zM522 387.5l-1.7.5-1 1 1 .4 2.9-.4.1-.7-.8-.9zM521 438.4l-.7.2.3.1 1.2-.1 1.6-1.3 1-.3-.8-.5-.8.7-1.1.6-.2.3zM526.3 426.2h-1.6l-1.1 1-.2.6h.6l2.2-.6 1.2-.8.7-.8-.3.1zM525 412.8l-1.2-.9-2.2.4.1 1 1.4 1.4.4.9-.5.7-1 .5.2.4 1.4 1.2 1.2-.8.1-.2.1-.7.6-.4-.1-2.4-.1-.3.3-.8zM538.2 458.7l.5-.8.8-.2-.3-1.1-.7-1.1.6-1.2.2-1.5-.8.4v.9l-1.1 1.9.6 1.3-.3.8zM510.7 425.6l.2.5.5.4 1.3 1 .8.2.5-1-.4-.4-1.7-.3-.7-.5zM515.2 391.2l-.8.5-.7-.8-2.2.1-.1.4.2 1-.1.8.9.4h.7l.2-.3.3-.7h.3l.1.6.1.5.5.2h.7l.2-1.3.4-.8.5-.5.1-.8-1 .3zM491.6 421h-.4l-.3.1-.3.6-.2.1.2.3.4.2h.5l.6-.4-.3-.6zM518.2 435l.1-1.7-.3-.5-.5-.1-2.1 1.8.4 1.3.8.8 1.1-.6zM516.9 444.4l-.2-.6-.7-.6-.2.2.3.3-.1.6-.2.3-.3.3.8.3zM516.6 429l.1-.4-1.5-.5-.4.3-.1 1.1 1.2-.1zM494.4 404.8l.6-.5-2.4-1.4.9 1.7zM508.8-43.6l.5-.8 1.4-.2-.4-.4-2.3-.6-1.8.2-.9.7v1.3l1.5.5zM1091.9-79.5l-2.4-.3-1.7-.6h-2.5l-1.5-.3-.4.8 2.3 3.2 2.5 1.6 2.3-.3.4-.3 1.5-1.1.1-.6v-.6zM573-150.2l-.6 1.7-.6.9.3.5 2.4-.7 1.3-.9-.8-.8-1-.7zM1054.9-139.8l1.1-1.9-.2-1-1.5-.1-2.4 2.1.3.4.6.4zM650.4-46.8l-.4-.8-1.1-.3-1.6.8-.3-.2-.7.3.4 1.2.8.8h.7l1.3 1.7.8-.5-.2-.8.4-.8zM403.8 346.3l.5.3 1.5.3 1.6-.5 1.4.2h1.3l-.2-.3-1-.5-1.6-.2-1.7.2-2.4-.5.2.6zM597 294.8l4 .8 1.8.2-1.8-.8-4.8-1.1-.7-.5-1-1.1.3 1 .4.8zM373.1 315.6l1 2.3.4 1.4.8.7.1-.6-.1-.5-.2-.5-.2-2.3.2-1.6-1-.9-.3-.8-.1-1.4-.4.1-.6.3.7 2 .1.6-.5.6zM1165.2-234.3l1-.5 1.9-1.7-.1-.3-1.5-.3-4.6.8-2.5 1.6-.4 1.1 2-.6zM412.7 348.4l-.6.1 5.2 1.4-1.8-1.1-2.2-.4zM400.1 342.2l1.8.9 1.7.3 5.7.1.9-.2-1.7-.2-4.7-.5-.5-.6-1.8-.3-1.8.3zM404.9 341.1l1.2-.4.2-.3-.7-.6-3-.4-2-.1-.3.7v.4l.8.5 1.8.2zM469.7 48.2l1.4.9.9-.1-.2-.3-.9-.8.5-.1-.5-.7-1-.6-.1.3.3.8-.5.2zM453.1 55.2l1-.1.1-.4-.5-.6-1.1-.1-.7.3-.4.4.1.2 1-.1zM464 46.1l.8.1.2-.9-1.9-1.3-.4-.8-.6.4-.1.3.4 1.5.7.9zM462.2-10.1h-1.9l.8 2.3 1.4 1.3.7-.1.1-.2.6-.5.2.2h.5V-8l-.7-.4-1 .7-.7.1-.2-.3.1-1.1zM468.3 52.2l-.1 1.1.5.1 1.2-.6.4-1.2-1.3.1zM428.5 64l-.6.4-.2.8-.1.2.3.7.3-.6.4-.4.9-.6v-.2zM441.2 52.3l.4-.1.5.1-.1-.4-.4-1.2-1 .1-.5 1.1.3.8.5.2zM435.2 95.6l.3-1.2 2.2-.7-.6-.3-1.9-.1-1.2 1.3.6.9zM444.4 51.2l-.8.2-.1-1.4-.6.1-.6.2-.2.7 1 2.6.7.3 3-.2v-1.2l.1-.5.4-.2.7-.2.3.2h.5l.9-1.3-.3-.5-.7-.2-.2-.4-1-.7-.7-.1-.2.1h-.4l-.6-.1-.7-.9-.8.3-.5.7.3.4.6.3.2.3-.1.6zM471.1 83.4l-.8.4 1.6 2-.3.7-.5.6-.4.2-.5.1.4.7 1.9.9.9.8 1.1.3-.4.8-2.2 2.2-.1.6.3.6 1-.1.9-.6 1-1.6.6-2 1.3-1 1.6-.4 3 .1.3-.5 1.7-1 1.2-1 .7-.1.6-.5.6-.7 2.5-.3-.4-.6-4.2-2.3-1.9-.3-.8.4-.8.1-1-.5-.9-.1-.9.4-1.9.5-.8 1.4-.8-.3-.4.1-1.2.7-1-.6zM489.6 82.3l-.3-1.4-2.2-.5-.7.3-.6.9 2.5 1.4 1.1-.2zM474.2 76.3h1.8l1.4.6.9 2.1-.1.8.9.4 1.5-.4 1.4-2.1.3.5.6.3 1.1-.9 1.1-.1-.4-1.6-.9-1.4-2.4-.4-.1-.3-.2-.8-.7-.3-.7.1-1.1 1.1-.6.9-5.2.6zM477.4 49.6l-.7-.9-.7.1-1.7-.4-.6.3-.2.7-.4.6.8.4.6.5.3.6.6.4h1.3l-.2-.5-.5-.4.1-.8zM467.6 52.8l-.2-.6h-.9l-.8.4-.2.4.7.6 1.1-.2zM377 313.7l.2.5.7.6 1.6-.4-.9-1.4-.5-.3-.9-1.4-.8-.8-.6 1.3-1.1.7.2.3.8.7zM385.9 330.4l.9.7.8.2-.9-1.1-1.3-.6zM108 110.8l-.6-.4-1.4.6.6.9.5.3h.5l.3-.2.3-.4v-.4zM107.7 123.3l-.4.4.2.5h1.8l5.1-1 .2-2.6-.9-.6-1.5-.2-1-1.4-1-.6-.4-.1-.6.1-1.4.6-.2.2-.2.6.1.3 2.2 1.1-.5 2.4zM111.7 133l.2-.2 2.3-3.5.9-2h-.5l-.5.2-1.8 1.1-.4.8v.2l.8.3-1.7.9-.4.6v.8l.2.4.2.3zM130 175.6l.2 2.2 1 1.4h.7l.6.8 1.2-.7 1-.8 1.5-.8.4-.7h-1.3l-.5-.3-1.6-1.7h-1.8zM107.6 99l-.7.1-.2 1.2-3.1.7.3.2.6.6v.3l-.5.3-.6.1-.9-.2-.6.6-.2.4.3.5.8.9 3 .7 1.1 1.6.5.6.7.4h1.3l1.7-.3.2 2.7.4.1h.5l.4-.3 1.6-1.5 1.2-1 .4-.5v-.5l-.5-.3-2.2.1-2.4-.3-.4-.4-.5-.2-.1-.7-.3-1 .2-1 .1-.8-.3-1.5-1-1.2zM107.6 136.5h.7l2.1-.9.4-.7v-.5l-.5-1.4-.4-2.3-1.1.5-1.3.8-.4-.3-.4.1-.5.3-.4.4-.2.4-.1.7-.3 1v.3l.5-.2 1.5-1.2.4-.1.2.1-.2.8.5 1-.5 1zM104.2 117.5l-1.3 1.2.1.3.7-.1 1-.8.6-.7-.3-.1zM59.7 166.3l.9.6.1-.5-.1-1.3-.5-.3h-1.9l-.5-.2-1.1.7 2.6.3zM132.2 157.8h-.4l-1.1.5-1.3 1.9-1.1.8-.6 1.8-.5.8.2.1.9-.2 1.1.4 2.6-2.3.2-.7.7-.7-.5-2.2zM97.7 91.5l.5.1.2.4.4.1-.8.6-.1.2.7.6 1.8.7.1.2-1.1.6-.2.5-1.6.9.9.6.4-.1h.3l.6-.1.7-.8.8.1 1.4-1.5 1.4-.6 2-1.4.3-.4-.1-.6-.4-.3h-1.5l1.7-.9.6-.8.6-.1 1.7-3.2v-1.4l-.3-1-.2-.2-.8.3-3.2 1.9L102 87l-.5.4-.1.3.8 1.6v.2l-1.1-.1-1 .2-.8-.6-.8-.3-.2.2-.2.4-.5.3-.2.8.1.8z"/><path class="st2" d="M60.6 197.1l.6.2-.5.8-1.2.6-1.4.4-1.1.8-1.8 1.8.4 1.2 1.3-.3.4.5 1.6.2 6.3-1.7-1.9.8-.7.8-.6.2-1 .6-1.9 1.3-.6.9 1.4-.2 1.4-.6 4.1-.7.7.2-.2.2-2.1 1.1-1.6 2 1.2.2 2.6-.8.9-.2 1 .2.8.4h.4l6.2-1.5 1-.9 1.9-.2 1.4-1 .9-.1.8-.4.2-.9-.2-1-.3-.5-.5-.2H82l.5.2.4.4 1 .7 1.1-.2 1.4-.7 1-1.2.5-.2 2.2-.5.5-.2.5-.5.3-.7.5-.7 1.1-.4 2.9-.3 1.7.1 1-.5.5-1.4.7 1.4.3.1.4-.3 1-.6h1.1l1.7.4 1.6-.2 1.5-.8-1.8-1.7.8-.3.7-.6 1.6-2.5.3-2 .4-1.3.4-1.2.8-1 .6-1.1-.2-2.8-.4-1.3-.8-2.3-.2-1.2.3-.4-.2-1.2.1-.7-.1-1.3-.7-1.1-.4-1.9-.5-1.6-.7-.7-.3-1.1v-.8l.5-.4 1 .1.9-.2-.2-.6-.6-.6 1.3.5 1.3.1 1-.7.8-1.1.3-.8.4-.6 1.5-.2 1.3-.5.6-1.7h-.9l-.3-.2.1-1.7-.3-1.3.7.3.6.4.5.9.6.3.2-1-.3-.9-.5-1.2-.7-.8-2-.1-.8.1-1 .4v-.7l1.5-.7.7-.6-.1-1.1-2-1.7-1.5-2-.6-2.1-1.2-1.3h-1.4l-1.8-.4h-1.3l-2.9.9-1.6.2-.8-.2-.8.2-1 1.8-.9.5-1-.1-.6-.6.6-.8 1.5-.8 1.3-1-1.3-.6-1.2-.6-1.2-.9-.8-.2-.7.1.8 1.1-2 .3-.8.6-.2.9.4.9.2 1 .1.8-1.4.9-.9.4.9-1-.6-.5.6-.5.4-.7-.2-.9-.5-.5-.2-.7-.5-.3-1.3.2.2 1.1-.7-.3-2 .2-.6-.1-1.7.7-1.8.2-.3.7-.3.9-.9.6-.2 1 .4 1.4-1.2 1-.7.4-.2.4-1.4.4-.8.5-.7.9 4 1.3 4.2-.6-.8 1.1-.5 1.3-.7.4-1.7.4-.7.3-1.1.7-.8 1 .7.8.3 1.1-.6.1-2-.5-3.3-.4-.4.1-.9.9-.6.3-2.2-1.5-3.1-.2-2 .1-1.4.6h-1.5l-.7-.1-.8.3-.4.7-.1 1.1 1.5-.6.5.8.1 1.2 1-.4.1.9-.1.7-.5 1.2-.3 1.3 2.2-.5 2.1.2-.1.7.2.6-2.2.4-2 1-.1.5v.7l.7.4 1.7.5-2 .2-1.6.5-.8-.1-.7.4.2.7.6.5-.5.6v.5l1.2.3 1.3-.2 1.4.2-1.1.9.7.4.6.3 1-.1h1.3l.2.8.4.3.5.2h.5l4.3-.2 1.4.2 1.3.5-.9.4-.4-.2h-.4l-1 .8-1.3.2-.7.6-2.1 2.6.6.4.2.6-.9 1.2-.6.8-2.9 2.2-2.3 1.4 2-.2 1.8-.7.4-.4.4-.2 1.2.5.9.2 2.8-.3 1.1-.6 1.3-1.5.9.7 1.8.6-3.5 1-3.6.7-3.2.4-.6.2-1.7 1.4-1 .4-.9.6.7.5.2 1.5.9.7-2.2.2-.7-.4-.9-.3-.9-.1-1 .2-1.9 1.1-.3.7-.1.5 1.8.2zM92.2 112.2l1.1-.2.2-.4-.1-.3-.6-.3-.9.2-.2.6v.3zM94.5 101.6h1.8l1.2-1.7-1.5-1.1-.8.5-.7-.1-.9.3-.6-.2-.4.1-.4.3-.2.4v.2zM93.3 107.8l.4 1.2.5.2.7.1.5-.1.1-.2-.3-4.5-.4-.2-1.4.1v1.5l-.2 1.3zM173.2 301.2l.4-1.4-1.1-1.6-1-.8v1.3l1 1.2zM156.4 241.5l-.1-.2h-.2l-1.4.7.1.2 1.2.4zM162.3 246.9l.6-.2-.1-.8-.8-.4-1.8-.2-.2 1.6h1.9zM172.7 223.3l.7-.2.3-.3.3-.6 1.1-.6-1-.8-2.2-.6-.9.7-1.7.5-.6.6.6-.1 2.7 1.4zM378.9 317.9l1.2.7-.3-.7-.9-1-.1-.4h-.8l-.3.3-.1.4.2.5zM384.9 328.8l-2.1-1.5.1.3.6.7 1.6 1zM380.5 321.2l.3 1 1.1.8.6.6.7.6.8.7.4-.4.3-.2h.3l-1.6-1.4-1.4-1.5-1.4-1.2-.5-.1-.7-.5-.8-.8.3.5zM383.7 331.2l.2-.1.6.2.1-.1-.2-.2-3.1-3.1-1.1-.8.3.7zM120.8 139.2l.6.1h1.6l.2-.8-.1-1.4-.7-1.7-.4-.4-.8-.5-.9.2-.3.3-.4.4-.2.9.7 2.4zM157.5 69.3l.3-.5-1.7-.2-.8.3-.8 1.1h1.5zM146.6 78.4l.7.1.7-.3.1-.1-.7-.3-.1-.2-.1-.6-.5-.9-1.1-.2-.5.2-.1.5.4.8z"/><path class="st2" d="M116 105.2l.3.8.9 1.1-.4 2.4-1.9 2.6-1.4.7-.2.3 1.7.9-1.9 1.4-2 .2-1.3.9v.2l1 .2 1.1.1.4 1.5 1 .8 1.2.4 1.5.1 1.2-.6 4.4-3.3.4-.2-.7 1.3-.9 1.3-.2 1.1-.8.8-.6 1.6-.7 1.3-.6 1.8-.2 2.1-.7 1.4-.2 4.4.3.3.3.1.9-.3v.1l-1.3 1.5-.6.8-.4.9-.4 3.2.3.9v1.1l.8.1.3-.1.3-.4.4-.6 2.2-6.8.1-1.1-.6-2.2v-.4l.1-.4.4-.4 1.3-1.3 2.5-1.9 1.2-.7-2.4 2.1-.6 1-.3 1.1v1.3l.3.8.1-.1.3-.7.8-.1.2-.2.3-.7 1.6-.4.5-.4 1-1.5.4-.7.3-.1-.5 1.4-.1.5 2.3 1.5 1.1.5h-2.9l-.2.2-.6 1-.3 1.7v1.4l2.2 1.8.5.8.1 1-.6 1.4-.8 1.1-2.3 3.7-1.2 2.9-.8-.4-.7.4v1.2l.5 1.1 1.3 1.7 1.6 1.3.2-1.5.5-.9.5-.4 2.1 1 1.7.6 1.4-.5 1.4-.9.6-.2.6.2.4.6.6.4.7-.1 1.5.1.8-.5.7-.6.8-.5.8-.1.8-.3 1.4-1 1.5-.3 4.5.1.6.1-3 .8-2.5 2.4-1.7 3.7.3 1.7 2.1 2.8 1.1 1.4 2 1.8h.8l.7-.5.7-.3 1.7-.1.2.7-.2 1.6-.4 1.5-1.7.9-.2 1.1.1 1.3.7.4.7.3-.9 1.2-.8 1.3-.1 1.3 1.3 2.1.7.7.9.3h.6l.6.4-1.5.3-.7-.2-1.9-2.1-1.3.5.9 2.4-2.9-1.5-1.3.1-1.4.5-1.5.2-1.5-.1h-.6l-3.8 1.5-2.1 1.3-.7.7-.5.8-.5.7-1.6 1-1.4 1.2-.6.8v.6l1.3-.1 1.4-.9 1.5-.6 1.6-.2 1.7-.1-.2.9v.8l.6 1 .4 1-.4.8-.1.8.4.9.8.3-.9 1.1-.6 1.4-.6 1.2-.9.8-2.2 1.4-2.2.8-4.1 1.8-2.7.8-1.3.8-1 1.2.8.3.5.9-.1 1.2.6.5 2.9 1.4 2.3-1 1.5-.9.9-.2 1.9.1.8.7.6.3 2.4.4-1.1.6-.7 1h1.5l1.5-.3.7-.2.7.1 1.6.9 2.6 2.1 3.5.4.4-.1 2.3-1.7 1.3-.7 3.1-.7.9-.7 1.7-1.3 1.4-.7-2.1 2.2-1.2 1.2-1.3 1.1-1.2 1.1-2.1 2.7-1.2.7-1.5.2h-1.6l-3-.6h-3l-4.1.5-.3.2-1.4 2.7-2.9.9-.3 1.3-.2 1.3-.3.7-3.6 3.3-.4.8-.8.2-.6.5-.5.7-1.3 1.3-2.6 2.1-2.9.9-1.1 1v.9l.4.5.9-.6 1.5-.3 1.4.4 1.3 1 1.4-.3.9-1.6.5-.5 2.5-1.5 1.1-.6 2.9-.9 1.6-.2 1.1-.1 1-.3.3-.2h.3l.8.7 2.7 1.1 1.4.9 1.4-.2 1.2-1.3.8-1.8.5-2 1-1.4 5.3-1.5 1.2-.1 1.6.3 1.6.6 1.4.9 1.5.3.5-.5.5-.1 4.1.5h.5l.4-.4-.5-.7-.4-.9 2.2.2 2.3-.4 1.1.1 1.1-.3 2.3-1.2-1.1-1.3 1.8.7 1.9.2 1.7.5 1.7.7 1.1.1 4.3-.7 3.2-.1 5.2.9 1.3-.3 1.4-.7 1.6-.5 1.9-.6 1.1-.8 2.5.1.2-.7.8-1.3 4.2-1.8.4-.5.2-2.2v-.8l-.5-.2-1.5-.1-3.1.3h-1.7l-2.6-.4-.5-.4-.6-1-.9-.3-1.3.3 1-.6 1.1-.3 1.4-.1 1.3-.2 1.2-.6.4-1.3-.3-.7-1.9-.7 2.6-1.3 1.9.4 1.1-.3 1.1-.7v-1l-.6-.8.1-.4h.5l.6.3 1.2-.7 1.9-1.5.4-.6.3-.7.4-2 .7-1.6.6-1.7-.1-1.9-.3-1.7-.8-1.3-3.5-2.4-1.4-.5-2.8-.6-1.4.1-1.5-.3-1.6-.1-1.9.1-.6.5-1 1.4-.7.6-.6.2-.7.1-3-1.7 1-1.1 1.1-1 1.1-.9.8-1.4-1.1-3-1.8-2.3-5.5-3.9-2.4-.1-2.3-.5h1.2l1.4.1 2.4-.3 1.3.9 1.2.7.7.1h.8l.5.2.5.3-1.4-2.3-1.5-2.1-.8-1.4-.5-1.4.7-1 .9-.7-1.9-1.2-1.8-1.6-1.9-2-2-1.9-1.1-.7-5.1-2-1-.9-.7-1.2-1.7-4.5-1.3-4.1-1.1-4.3-.6-1.3-1-.8-1.3-1-2.4-2.4-1.7-1.7-5.8-2.2h-3l-2.3 1.2-.5.1-7.2-1.1-1.2-.5-1.1-1 1.2.6 2.8.6h1.5l1.2-.3 1.2-.6 2.5-2 2.8-.2 1.2-.9.2-1.2-3-1.4-2.6.1-1.4.4-1.4.1 1.2-.4 1.2-.7 1-.5 3.5-.6 1.2-.5 1.1-.9 1.2-1.3.9-1.8 2.2-2.4 2.2-4.3.3-1 .3-1 .3-.9 1.1-1.7 1.3-1.2.7-1v-.4l-1.1-2.2-1.3-1.1-1.4-.5-2.2.4-7.9-.2h-1.2l-1.1.3h-.6l-2.7-.7-1.4.1-2.9.8-3.1 1.2-1.6.3-1.8.1.7-1.9 2.4-2 .4-.6-.6-.4-1.7-.2.2-1.1.4-.9 2.8-1.7 4.7-3.5 2.5-1.5 1-1 .3-.6.2-.5-.1-1.5.6-1.3.2-.5-.1-.4-2.7-.3-2.5.6-2.7.2-2.5.6-4.2.3-3.2.9-.7-1.1-.6.2-1.9.9h-.4l-.7-.8-.5-.3-1.5-.3-.7.1-.5.3-.6.8-.2.6v1.3l-.2.7.2.7.6.9.3.6-.7.3-2.7-.1-.8.3-.3.5.1.6v.6l-.8 1.4.2.5 2.8 2.5.3.5-1.7-.5-.4.1-.4.4h-3.3l-.8 1-.3.9-.7 2 .1.5.3.7.5.6 1.2.4-1.4.5-.8.4-.6.6-.2.6.3 1zM150.5 78.9l.5.4.1-.1.2-1.1.2-.5-.6-.2-1.2.3zM145.9 74.9l.4.1.9-.6.3.2v.6l-.1.3.3.3.4.1 2.2-.4 1.6.9h.5l.4-.3.4-.9-.7-.5-.8-.1-1.5-.3h-1l.2-.5.5-.5v-.4l-.4-.4-1.4-.7-1.1-.1-.8.2-.5 1.2-.1.9.1.6zM150.6 69.2l1.4.5.1 1.2.4.4 1.1-.5.2-.6-.2-.1-1-.3-.6-.9-1.5-1.1-.9.3-.1.2.5.6zM426.8 72.4l-.2-.1-.9.4-.3.4-.3.8.3.1.5-.2zM373.6-111.6l3.6-.5 3.8-2.3 1.4.5.8-.2 1.2-.4 1.2-1.4.7-.1v1.1l1.3.3 3.1-.6 1.1-.9h1.9l.8-.4 1-1.4 1.8-1.6 1.9-.7 2.3-1.4.4-1.9-.9-1.9-.7-.9-1.2-.8-.7.2-.7.3-.9.3-.4.9.1 1.2-.8.7-.1.8-1.9.7-1.8 2.1-.2-.2.4-1.2 1.8-2.6-.1-1.9-.2-2-.9-1.1-.3-1.5 2.3-1.9 1.6-2.4.2-2-1.1-1.4h-1l-1 1.3-1.9 2.8-1.2 1-2.1 2.1-.6 1.5.1 1.4 1.1.1.4.9-.9 1.5-1 4.2-4.1 3.9-6.6.9-1.9 1.3-2.3 1.9v1.4zM360.7-107.9l.5-.3.2-.8.3-.5.9.7 1.1-1 .9-.3h1.6l.6-.3.8-1 1.8-.4.9-.7.3-.6-.4-.2-2 .1-.8-.3-1.1-.3-1.2.1-2 .5-1.4 1.9-.8-.1-.8.2-.6.9-.7.7.3 2z"/><path class="st2" d="M375.8-121.7l1.2-.1 1.6-.8.7.2.1.6 1.1.6 1.8.1 2.5-.2 1.6-1.2.7-2.5-.8-1.3-1.7-2.3-.4-.8-.6-.5-.3-.1-.8.2v2.3l-2.2-.4-.4.6.1.9-.6 1.2-1-.2-.4-.3-1.8-.1-.7 1.1-1.6 1.3.4 1.1zM408.7-130.9l.1.8 1-.3 2.1-2.3 2.1-1.5 1 .8 2.7-.3 2.2-.6-.3-1.7.2-1.2 1-.5.8-1-.3-1.4-.7-1.1h-.9l-.9-.8-1-.5-1.4.2-.7.4-1.5-1.3-.2.2-.1.4-.4.9h-1.2l-1.3.6-.3.5 1.8.9.3.5-.5.8-3.5-.4-1.1.9v.7l-.3 1 .3 2.1-.4 1.2-1.6.6-.4.3v.6h1.9zM357.2-106.3l.3-.4v-1.1l.3-1-.7-.5-1.4 1.3-1.1 2.1-.7 2.1 1.9-1.2zM442.6-156.2l.5 1.3.4.7 1.5.2 1.4-.1 1.1-.6-.1-.6-1.1-.5-1.1-1.2-.6-.2-.6.1-.7-.2-1-1.3-1.1.1.2 1.1zM424.1-141.8l1.8-.4 4.8-.6.2-.6.1-.8 1.3-1.5 1.3-1.2 1.5-1.2.9.3 1.8-.5 1.3-2 2-1.4.2-1.1-1.4-.7-.7.2-.3.5-1 .1-1.2-1.2v-2.6l-.5-1.6-1 .1-1 1.8-.1.7.3 1.2-.3 1-1-.1-1.1.8-.8 1.1-1.8 1.6-.1.6.3.9-.3 1-.7-.7-.5.1-.9.9-1.4-.3-.7.3-.5 1.2-.6.3-.4.6-.1.9-1.8.2-.3.5.9 1zM422.7 107.5l.6 1.4.9.9-1 1.4-.7 1.6 1.3-.2 1.2-.9.6-2 1.1-1.3.8-.7 2.1-.8.5-1.5.6-.7.7-.4.9-.2-1.5-1.6.3-4.1.8-.4.8-.2.7-1.3 1-.5-1.5-1.2-.7-.2-.8.2-.5 1.3-1-.6-2.4.6-1.7 1.4-1.6 1.8-1 .9-.9 1-.1 1.9.3 2.1-.6 1.2zM349.4-64.2l-.5.7v.9l1-.1 2.7-1.3.8-.5-.5-.5-1.3.1-1.2.1zM290.4-10.2l1.5.3h1.2l.5-.6v-1.3l-.8-.8-1.8.5-1.7.7.1.6zM453.2-154.2l.8.2.6.3 1.1-.2.7-.5.5-2.7-.4-.3-1.7-.3-2.1.7-1.1 1.1v.8l.7 1zM297.9-16.5l4-.8.4-.4-.1-.9-.5-.7h-.4l-.4.6-3.3.9-2.1.9.9.4zM350.8-66.2l.5-1.1v-1.2l-1.2-.7-.8.6-.2.7-.4.6-1 .9-.2.9 1.2-.1zM342.1-56.2l.8-.7.5-1.1-.4-.4-1.3-.1-1 .4-.4 1.1.2.6zM331.2-40.9l1.5.4.7-.5.2-.9-1.4-1.4-1.5-.1-2.7 1.2-.9 1.1 1.2.5zM738.3-79.3l.5-.3-.3-.7-.7-1-1.1-.3-1 .2-.2.3.3.8zM873.1-181.1zM852.1-190.6l1 1.8 1.3 1.1 1.6.8 1.6.4 3.1-.4 3.1-1.1 3.3.7 3 .3 5.9-1.1.6.3-1 1.2-.2 1.8 1.2 1.4h1.3l1.4.2-.4.8 3.8 2.4 3.5 1.6-.8.5-2.3-.7-1.1.2.3 1.3-2.4-.4-1.1.8.1 1.2.3 1.2v.8l-1.9.4-1.1.6 4.4 1.4 6.1 1.1 1.7.5 2.4 1.2 1.1.3.1-.8.5-.6 2.8 1.4 2.4.3h2.4l5.8-.6.2.4v.8l1.2.6 1.4-.3.5-.5 1.8.7.4-.6.3-.3 3.8 2.2.8-.1.8-.6-1.8-1.7-1.1-.2-1-.9 1.7-.5 1.6.2.7.7.7 1 .4.2 6.4 1.3 1.3-.4.2-.7 2.3-.6 2.3-1.5-.9-.9-.9-.6-5.4-2-2.2-1.1-5.7-4.2-5.2-5.6-2.9-3.8-2.7-4.3-.8-2.2-1-2.1-2.2-1.5 1-1.9.3-2.2 1.2-1.8.3-.9-1.5-2.3-.2-1.5-.3-.7-.1-1.4.8-.9-.2-1.1.5-.7 2.3-.5 1.1-1.8.2-1.2v-.7l1.3-.1h3.4l.5-.8.6-1.2.3-1.5-.3-2 .2-1.2 1.9-2 .8-.6.4-1.5-1-.6-2.7-.8-4.5-.3-6.1-1-2.5-1.2-2.3-.6-1.8-.1-1.6.4-4.5 1.7-1.6.5-1.5.1-2.9-.5-1.4.1-1.6.8-1.5.5-2 .4-1.4 1-.7.9-.1 1 .6 2.3.2.9 1.5 1.4-1.5.3-1.5-.2h-1.4l-1.4.3-1.3.6-3.1 2-.3.6-.3.7 1 .8 1 .6 3 .3-1 1.2-.2.7.5 1-1.5 1.6-.4 1.1-.1 1.1-.6 1.3-.5.8-.5.4-1.6.8-.7 1.3-.9 1.1-1.1.5h-2.3l-2.4-.5-1 .2-2 1.1-.9.6-1.3 2.2-.5 1.1-.2 2.6.2 1.1zM1044.3-170.2l-.2.4-.3.7.1 2.6.6 1.2.8 1.1.7.3-.1-.9-1.3-3.6v-1.7zM956.7-146l1.2.3 1.1.2h1.4l1.3-.5 2.5.7 1.4-.6 1.5-.3.5-1.5v-2.1l-.4-1.1-.7-.6-2.9-1.4-2.8-2-4.1-2-1.4-1.2-1.3-1.4-1.5-1.2-2.8-1.7-.6-.5-.5-.2-2.7.8-1.5 1.7-.8.2-1.2.7-.7 1.2 1.3 2.6.4.6.4.9.6.8 3.5 3.7.7.2 1-.7.8-.2 1.6.5 1.4.2 1.6.6 1 1.7v1.2zM1147.3-220.8l2 .6.6.5.3-.3.5-.8-.5-.5-.2-1 1.2-1.5 2.9-.8-3.1-1.1-1.6-.3-2.5-.2-2.7.5-.7.9-.5 1.2 1 1.2z"/><path class="st2" d="M886.8-236.3l-1 1.5 2.2 3.2 3.4-1.7 2.6-.7 3.1-.1 3.5 1.5 3.5.8 6.2.3 2.5.8 2.6.4 2.7-.2 4.2-1.5 2.2-3.4 4.2-2.6 1.1-1.2-1.1-2.1-2.2-1.8.3-.5 1.8.3 1.9 1.2.7.2h1.3l1.2-.9.3-1.1-.2-1.2-1-1.9-.1-1 8.6-2.9 2.3-2.4.6-1.6-.2-1-1.1-2.3-.8-1.1.4-.9 5.1 1 1.5-.6.7-.6.6-1.1.2-1.5.3-1.4.7-.7 4.6 2 1 .1 1-.6.3-.7-.5-.8.2-1.3h3l1.2-.3 1.9-1 1-1 1.8-1 .8-.7-.6-1.1-2.8-.6.5-1 2.5-1.2.8-.1 1.5.1.9-.3 1.4-1.1 1.4-1.3 2.7-1.5 1.3-1.6 1.4-.8 1.7.1 1.6-.2 5.8-2.8 12.6-3.8 3.5-.8 4.4-1.7h1.6l6.2-1.3 6.2-1.8 5.9-1.3 5.4-1.7 8.5-2.1 4.8-1.6 3.1-.7 3-.9 3.1-1.4 5.1-2 5.2-1.2.7-.8 4.3-3.6 4.4-3.3-.5-1 .4-1.3.7-1.2-.4-1.4-.5-.8-2.3-2.2-2.7-1.7-6.1-1.5-4.7-.6-1.5.1-3.5 1.2-5.6 1.1-6.2 2.7-3.6 2-1.4 1.6-1.2 2-1.4.9h-1.5l-1.4.3-2.8 1.3-1.5.5-1.6.1-1.5.3-3.2 1.5-3.1 1.3-12.1 1.8-7.1 1.9-2.5-.2-4 .4-3-.3-5.8-1.3-2.8-.2-4.7.4-.6.2-1.6 1.1.1 1.7.2 1.3-.7.8-.8.5h-1.8l-.9-.9-1.6-.1-4.2.3-2.1.8-1 2.1-3.3 1-5.6 1.1-3.1.8-1.4.1-1.5.4-2.9 2-3.1 1.5-4.6 1.5.2 1.1.3.7-4 2.2-1 1.4-1 2.5-.3.4-3.9-.8-2.8-.3-1.3.2-1.8.6-.5.6.3 1.3.6.9-4 3.7-1.1.1-1.2-1.1-1.3-.7-1.6-.5-1.6-.2-1.5.6-1.4 1.1.1.9.5.8 1.8 1.5 4.4-.3 1.1 1 .9.4-3.6 1.6-3.9 2.5-3.3 3.6-1 .7.4.9.6.9 1.2.4h2.5l2.5 1.1-.8.4-8.5 1.1-1 .4-4.1 5.9-1.3 1.4-1.1.9-1.3 1.5-1.2 1.8-.5.3-2.8.3-2.7 1.3-2.7 1.6-1.5.5-1.1.8 1 1.8zM1091.7-224.4l2.3.3 1.1-.1 3.8-1.2 2.7-.6 6-1 3.5-.3.1-1.2-.6-1.5-1.8-1.4-1.2-.7-1.6-1.9-1.1-.7-1.5-.7-1.1-.2-7.6.9-2.6.8-2 2.1.3 3.3-.4 1.3-.7 1.1-.2 1 1.6 1.2zM811-128.5l1.5 3 3 1.6 3.1-.2 3.5-.8 5.7-1.8 2.8-2.5 1-1.8 2.2-1.6.7.6.3 1.3.7-.2.8-.9-.2-2.2-1.3-1.6-2.2-1.2-9.9-4.5h-3.5l-1.4.4-2.8 1.3-2.8 2-1.2 1.7-.3 2-.2 1.9v1.3l.2 1.2zM494.2-165.3l1.4.8 2.5-.9.7-1.9-1.5-1.2-1.4-.3-.2-.3-.7-.5-1.2.6-.3 1.1.1 1.8zM518.2-174.5l2.3.1.4-.2 2.7-.3 1.7-.4.2-1.1-.9.2-1.7-1.7h-1.2l-3.4-.8-2.1 1-1.4 1v.5l2.1.3zM873.9-179.2l-.1-1.3-.7-.6-.9.1-1-1.2-1.2-1.8-1.6-.8-.6-.1-.1.3.1.9-1.5-.7H865l-2.8.6-.7.8.1.9.5.4 1.8.7 1.5-.3 2.5 1.6.6 1.6.6.7 1.5.7.7 1 .3 1 1.2-.3-.2-.4-.7-.8.3-.8zM487-164.2l-1.7.6-.8 1v1.4l.8.7 1-.5.1.4-.1 1.4.7.3 1.5-.3.9-.4-.1-.5 2.7-1.6 1.2-1.3-.1-.9-.2-1.1-.5-1-.4-.6-3.8 2.6zM253.8 48l-.7-1.2-.5.1-.3.7.3 1.3-.1 1.3.1.6.5.9 1.2.1v-2.2zM474.3-165.3l2.4 1.1 1 .1 1.6-.1.6-.4.6-.6 2.3.4.7-.3.5-.5 1.8-.4 3.1-3 1.1-.7.4-.7.2-.8-.5-.6-1.5.7h-1l-3.1 2.4-1.4-.4-3.7.7-1.9-.1-.9 1-1.5-.2-.8.2H472l.8 1zM252.7 34.6l.1-1.2-.7-1-.7.1-.5.3-.3 1.8.9.2zM329.6 105.7l-.8.9 1.8.6.5-.5.3-.4 1.3-.9-1.2-.1zM327.7 144.9l.3-1.2-.3-1.2.4-.9-1-2.2-.7-2-.5-1h-.3l-1.5 1-1.1-.1-.9-.7-.9-.2-3.7 1.4-1.7.3v2.8l.9 2.3.5.4.2.8 3.5 1.3 2.4.7h2.3zM331.5 155.5l-.5.4-.4.8.7.2.8.7h2v-.4l-.6-1.1zM322 149l-1-.8-.9-.3.2.4 1.6 1.5 1 .4.9-.2.3-.2-1.2-.7zM350.7 137.4l1.2-.7-.2-.9-.4-.6h-.3l-.3.5-.7.6.4 1.1zM338 153.3l1.2.1 1.1-.4-.1-1.6-.2-.7-1.1-.5-1.5.1-2.3-1.1-1.3-1.1-2.6.2-.2.9-.1 2.1 5.4 2.5zM349.4 147l-.7-.3-1.4-.1-.4-.4-.2.7-.6.5-.7.3-.2.3-.3.8.8.4 2.2-1.2 2 .2.5-.3-.5-.6zM382.6 147.2l.5-.3.6-1.2v-1l-4.8-2.7-.6 1.1-.4 2.4 2.6 1.2z"/><path class="st2" d="M334 134.2l-.7.1-2.2-.2-.9.3.4 1.4.7.3.7.5v.6l.1.6.8 1.2-.3 2.5 1.5 2.2.3.1 1.3-.3h.9l2.3.5.5 1.6.1 1 .5 1.2v1l1.6 2.5 2.4-.7.2-1.7.1-1.2-.1-1.6.3-2.2 3-.8 1.1-.9-.3-1.8-1.4-.5-.8-.9.4-1.3.9-.9 1.2-.5 1.2-.3.5-.4.4-.5-.1-1.8-.5-2.4.2-.7.9-1.3-.4-.6-.7-.4-1.3-.4-1.3-.2h-1.4l-2.3 1.2-2.2 1.5.6.6.3.7-.2 1.2-.5.4-.3.6-.5 1.4-.5-.1-1.2-.5-.1-1.8.2-1.4-.9-.9-1.9.3-.2.6v.5l-1.8 2.3zM358.3 158.5l.3.7 2.3 1.4.6-.1.9-1.5h1.5l1.4 1 .3-.6-.3-1.2-1.4-.8-.2-.6.3-.5.8-.8-.1-.4-.3-.3-1.9-.7-.5-.6-.4-.9h-1.1l-1.2 1.1-.1 1-.7.6v.7l-.3 1.9zM315.4 146.3l-.7-.2-.1.1.5 2.8 1.2.1.7.5 1.4-.3-.1-.4-.8-1.4zM408.8 105.3l-.8-.3-.4.5-.4 1.3-.8 1.4-.4 1.5-1.8 3.4-1.3.5-2.8 5.6-.2 1.5.1 3.1.4 1.3h.6l.6-.9 3.3-9.3.7-.6.6-2.7 2.2-4v-1.4l.8-.7zM324.3 133.3l.9.4.2-.4.2-.9.5-.8-.3-.6-1.2-1.4-.4.6.4.9-.3 1.1zM326.4 151.8l.6-.1.4-.9 2-4.6.4-1.7h-.3l-.9 1.9-1.5 1.6-.6 1-.9.9.1.5zM297.8 151.6l-.6.3-.2.4.7.5h1.2l.5-.4-.2-.7-.8-.2zM250.3 182.3l1.2-1.2v-2l-1.8 1.6-.3 1 .2.2zM236.8 204.9l1.2-.3 1.7 1.2 1.6-.4-.1-.3-.3-.3-1.3-.9-2-.1-1.2.2v.4zM252.2 178.2l2.4-1.2-1.1-.1-1.5 1.1zM275.8 171.9l-1.1.1-.4.4 1.2.1.9-.6zM269.8 173.4l-1.6.3-.1.2.5.1 1.7-.6zM297 147l.6-.7-.6-.1-1.4 2.7-.1 2.5.3-.3.5-1.1 3.2-.3.4-.5-3.2-.1-.1-.6.2-1zM260.7 174.7l-.3-.1-1.9.2-2.9.7.6.2 1.2-.1zM265.1 174.3v-.1l-.6-.1h-2.2l-.7.1.1.2.9.2z"/><path class="st2" d="M1530-346.1h-1.8l-5.8 3.3h-2.9l-2.6.6-6.7 3.3-14.1 8.4-2.9 2.6-1.4 2-2.5 1-1.1 2.4.2 2.1 1.1 1.1 1.2 2.1-1.2 2.4-1 1.5 1 .7 2.7-.1 6.1 1.3-1.1 1.2-3.7-1.1h-3.2l-2.8-1.3-6.7 1.2-5-.3-4.6.5-9.1-1-.8.8 2.1 1.3 1.6 1.2 4.7 2.9 2 .9 2.7 2.7.3 5.4-1.5 1.3-1.7 1.8-.9.3-1.3-.1 2.1-1.3 1.1-2.7 1-1.9-1.4-1.3-.6-.1-.7-.7-4.8-1.8-2.6-.8-2.8-.4-1.4-.5-4.1 1.6-1.9.4-2.2.9-1.3 1.2-3.2.3-.4 1.3-1.8 1.3-1.9-1.4-1.9.4-4.2 2.3-4.9 1 .5-.8.8-1.8-1.2-.4-7.4 2.1-2.5 1.4-1.2-.5 4.3-3.1 1.2-1.9-2-.8-4.4-.6-2.8-.1-4.1.7-6-1-.9 1.1-1.5.1-3.7-.6-3.3.6-2.5 1.2-3.7-1.2-1.3.1-2 1.9-1.7-1.3-1.4 2.5.4 1.8 1.2.2 1.1-.3.6-.8.8-.4 2.9 1.5.9-.8 1.3-.6 1.5.9 6-1-1 1.2-6.8 1.5-12.2 1.9-2.5.8-7.2-.1-4.7 1.2h-6.1l-10.6 2.3-7.6 3.8-3.7-.1-7.4 2.7-3 2.1-10.7 4.1-6.4-1.6-2.1.6-1.1 1.5.2 1.1 2.6-.1 1.9.5 2.3 1-.6 1.8-4.8 4.1-2.3 1.5-2.7.9-5.8-3.4-1.1 1.5-.8.7-2.3-.3-1.1 2.4 4.2.4 4 1.1 3.5 1.6 2.5 1.8 2.7 1.2 1.6 1-4.3 1-3-2.2-1.6-.8-1.8-.1-2.8.7-2.3 2.7 2.3.9 5.1.9 1.6 1.2 6.6 7.9 1.6.8 2.1.3.9.5-2.6 1.4-1 1.3-2.2 2.2-9.6 1.1-2.8.8-.8.4-1.2.8-.8.7-.4 1.6.8 1.1 1.9 1 7.6 4.4-.5.5-2.1-.8-2.7-1.3-2.7-1.9-3.6-1.3-.2-1.1-.1-1.6.1-.5.3-.8 3.4-2.1 3.5-1 4.3-2.4 4.3-2.7-.9-.9-.9-.7-3.9-.2-7.9.9-4.7.9-2.1 2.2-3.2.3-1.6.1-4.4-1.1-4.1 1-9.7.9-1.6.5-22.2.2-4.5.5-11.4 1.8-.3 1.3.4 1-1.8 1.5-.8 1.4.3 1.6.1 1.4.4 1.9.7 1.7 1.7.9 1.5.6 1.1 1.8-.9 2.1-1.3 2.5-.2 1.1.8 1.6 1 3.1.4.8 3.5 2.4 2.4.7 3.9.2 2.7.6 3.9 1.5 1.2.7.3.6.9 2.5.5.8 4.2 3.5 1.4.5 5.7.7 1.8 1.1 2.5 3.4.2.8.2 1.3-.3 1.2-.3.7-.9 1.1-2.5 4.5-1.5 4 2.4 2.7 3.2 5.2.9 2.2 1.1 2.9-.5 1.8-.5 1.1-2.1 1.7-2.6.5-2.8 1 .3 1.3.5 1.5-.3 1.1-.4.4-1.5.1-1.3-.4-1.1-1.1-1.1-1.5.8-1.6 2.3-2.8 1.4-4 .4-2.6-.1-2.8-.5-1.9-1.8-1.4-1.7.3-1.9 1.2-1.8 4.6-2.5 3.4-.3 1.4.1 1.2-.2.8-.5-2.7-.2-2 1.4-2.5.8-2.3-.3-1.7-1-2.8.2-1.4.3-.9.6-3.9 2.2-.8 5.5-3 .8-.7 1.7-2.6.8-.9.9-1.5-1.6-1.2-1.5-.7-2.9-.4-2.7.1-6 1.2-5.4-.2-1.9-.7-8.4-5.3-.5-2-.7-.8-.8-.2-2.9-1.3-6.7-1.7-6.9-3.8-12.1-.3-3.3.4-3.3 1.2-3 2.4-1.4.7-2 .2-.4.9-.4 1.2 1.1.9 3.7-1 3 .5 1.6 1.1 1.2 2.2-.6 1.1-5.3 1.7-2.9-.1-6.3-3.9-2.4-.7-5.8.6-3.8 1.9-1.2.4.9 1.9 1.4 3.5 1.2 2.1 1.6 1 5.6 2.5 3.1.9 4.7 2.3 2.9.3 2.6-.6 3.9 1.4 2.2 4.2 1.3 1.4 1.2.7 1.8.4 1 .1 1.1-.6 2.5-.1-.9 1.2-.9.4-5.4.5-2.6-.4-3.3-1.3-6.2-4.2-7.7-.3-.9 1.2-2.4-1.7-8.1-.4-4.9-1.1-5.2-1.8-.4-.9-.2-1.2 1.8-1.5.7-.9.4-2.8-3.3-3.8.3-3.5 1.6-.6 2-4.5 1.2-1.5.6-.5.6-1-.6-1.3-.6-.8-.7-1.8.2-1.3v-1.7l-1.7-2.5-1.4-2.7-2.8-1.4h-2.7l-1 .4-1 .6 1.4 2.5 1.4 2.2.7 1.7.5 3.1-.1 3.8-.5 1.5-.8 1.3-2.4 1.6-4.1 1.9-2.3.9-4.8 1-3.4 1.7-7.6 9.4.8 1.4 2.8 1.5 1.8 1.3.9 1.1 2 3.4 7.5 9.6.4 1.7-1.8 3.1-3.5 4-1.4 2.2-3.3 8.5-.2 2.2 1.3 2 2.2 2.6.7 1.9-1.5 4.9.8 1.2 1.8.6 5-.7 5.8 1.2 3.1-.6 4.7-2.7 1.8-.3 5.7.4 8.3 2.6 8.8 3.6 1.8 1.2 2.4.1 1.7 6.1 1.6 3.3.7 2.3.5 2.6-1.6.5-1.4.3-1.2.7-1.7 4-.2 2.1.9 3.4 7.4 1.6 5.1.9 3.6.2.6.4.5.5-4.3.2-7.8.4-2.7-.2-1.2-.4-1.2-1.2-2.4-1.2-.9-.8-1.9-.9 1-3.5.2-8.2-.3-3.4-1.6-2.8-4.9-4-1.7-2.7-1.9-1.8-1.8-.3-2.7.4-6.7 1.7-6 .9-7 2.5-1.3 2.1-1.1 5.3 1.5 2.6 1.5 1.9 1.4 3.2.5 1.9.1 1.9-.2 2.9-1.2 1.6-7.8 6.1-1.1 1.9-1.3 5.2-1.2 1.9-3.6 2.9-2.2 1.2-11.9 5.3-.4 1.2-.8 3.7-3.3 1.7-1.9.1-4.5-1.8-2.7-.5-2.7-.2-10.4.5-4.6-1.3-3.6-1.8-3.7-.6-2.8-1.4-.7-1.3-.7-1.8-.5-.9-.5-.5.8-.6 1.8-.3 6.7.3 1.8-.7.9.3 1.9 1.6 2.4 1.5 2.1-.2 1.7-1.2h.7l.8.2-1.6.9-1.6.7-.4.4-.3 1 2.3 1.2 2.1.6 2.8-.6 1.6-1.2 3.6-1.8 2.5.1.2-1.7-1.3-2.5-1.1-1.8 3.9.5 2.3-1.5 9.6-12.5 4.5-2.4 1.5-1.5 1.1-2.1.3-2.4-.6-2.6.1-2 1.6-2.5 2.6-3 1.6-1.1-.2-1.1-.3-.9-4.6-2.9-4.9-2.4-1.7-1.3-1.3-2.1-.6-2.5v-1.7l.4-5 .7-2.4-.2-7-.9-8.6-.8-2.3 1.2-1.6 1.2-1.3.6-1.2.4-8.5-.3-3.3-1.6-4.4-6.5-3.6-2.7-3.5.2-1.3.4-.9 2.8-1.4 1.9-2 1.2-3 2.6-4.5.7-1.6 1.7-6.3.4-3.3.3-5-2.3-1.3-2.4-1.1-4.5-.9-2.2.2-4-2-1.5-.3-10.9.6-6.2-.3-3.7.5-1.9-.1-1.2-.3.2-.8.6-.6-.2-.5-1.1-.1-2.8.6-4.5 6.9-2.7 6.7-2.9 9-1.8 3.8-2.6 4-4 3.2-5.4 3.2-3.4 1.5-4.6 1.5-1.9 3.3-1.7 1.4.7.9 2-.5-1.1 2.4-1.2 1.4.1.8.4 1.1 1.5.5 4.1-.9.9.9.9 1.4-.5 5.5-1.2 4.7-.1 1.7.7 1.1.5 1.5-1.2 1.8-1 .6-1.8-.2-1.2 3.9-.4 2.3v1.8l.5 1.1.7 1.2.5-1 .4-1.3 1.3-.9 7.2 2.5 1.9 1.2 3 1.1.9 1.3.6 4.1 3.1 3.8 2.4 2.2 1.5.9 1.3.2 2.1-.9 2.8.1-1.5 3-2.5 5.6-4.2 4.8-1.7.8-2.8-2-5.5-2.4-1.2-1.5-6.3-3.9-1.9-2.7-3.2-.4-4.4-1.2-4.3-2-3.5-.9-1-1.2-2.7-.9-2.6-.6-3.8-1.5-1.7.5.4-1.7-4.3-2.5-5.2-2.2-10.7-3.2-9.4-1.5-11.1-.5-9.7-2-1.4.1-1.3.6-3.3 2.9-3.6.9-1.4 1.4 2.2 3 4.2 7.8 2.5-.8 1 3.6-1.5 2-2.3 2.4-1.9 1.3-4.2.7-3.4-.1-.4 2.2 1 2.1-.2.9-.3 1.1-.5.6-.4.3-1.3.6h-1.6l-3.8-1.1-2.7-1 .2-3.8 1.4-1.7 1-.4.9-.7-1.9-2.5-1.4-1-.6-1.7v-.7l-1.8.1-7.3 2-1.5 1.8-.8-1.2-9.4 5.5-4.1 1.9-2.8-.3-3.7-1.2-4.4-.1-3-.5-1.5.3-3.2 1.4-3.3.2-3.4 1.9-2.9 2.3-.8 3.8-1.8.4-2-1.9-1.1-.5-1.1.4-2.1.2-1.7.2-1.7.7-.7-.1-5.1-.6-1.4.1-1.8-.2.4-1 .6-.7 2.9-.5 1.6-.8 1.8.4 1.3-1.2-.2-2.3-2-2.1 1-1.7.7-2.1.5-.2.5-.7-.6-.6-1.6-.3v-.5l1-.4 6.5-.9 1.5-.6-3.9-.2-4.9.2-5 1.9-9.4 4-4.4 2.7h1.2l1.5.4 1.2 1.9 1 .5-.7 1.3-2.5 1-1 .7-1 .3-.8-.2-1-.5.6-1 .7-.9-2-1.6-.9-.2-.8.1-4.9 1.4-3.6 1.6-3.3.9-3.1.3-1.8.7-3.7 2.2-2.3.9-3.9 2.4-10 4.3-2.6.4-1.5-.3-1.1-.6-.8.5.9 1 1.5 2.1-.6 1.1-2.3-.3-4.8 1-5.2 1.4.1 1.5.3 1.3-.9 2.1-.9 1.7-.8 5-.7 1.5-2 1-10.4 2.2-1.8.1-.8.4-.6-.4-1.9-.5h-2.8l-1.3-.2-1.3-.8-1.7-2.1-2.5-4.2-5.4-2.1-2.6-1.4-.5-1.3.5-1.4 5.6-4.6 2-1.5 8.3-1.3 3.3-.1 3.4-.6-.1-2.7-3.3-3.3-3.5-3.8-3.4-4.2-4.8-1.5-5.7-.7-11.6.8-1.6-.2-7.4-2.9h-.7l-1 .2.3.8.6.6 9.9 6.2.5 1.6.3 2.2-.2.9.2.9-.1 1.7-2.4 7.1-2.3 5-.8 2.4-.2 1.6.9 1.4 2.8.5 2.8 1.5 1.4 2.1.3 1.4.1 3.1.7 2.6-2.2 4-1.2 1.6-1.6 3.6.6 2.6-.2 1-.3 1.2-1.1-.9-.9-1-1.3-.9-1.4-.3-1.5.3-1.1.5.1-1.1 1.3-1.6-.6-.9-.7-.6-4.1-2-2.9-.1-3-.2-2.6-.2-1.9-1.3-1.8-.7-1.3-.1-1.6 1.1-3.9 4.4-3.9 2.9-5.1 2.2-3.9.7-1.1.5-2.3 2.5-2.4 1.9-6.6 3.2-.5 1.3-.4 1.8.6 2 1.3 2 3.2 4 1.8 1.4 1.2 2.1.9 2.4-.5.5-2.6-.6-1.9.3-2.7 1.7-.2.7-1 1.6-2.5.1-6.6-2.9-5.7-1.5-.9-.1-1.3-.7-.4-.6-2.4.1-1.5-.1-1.4-.5-6.2-4.8-5-1.8h-1.2l-2.1.5-1.3 3.8-1.7 1.1-1.5-.1-.1 1.9.6 1.2.6.8 1.9 1.3 3.5 4 1.8 1.7 1.4.6 1.8.1 4-.5 1.3.6 1.4.9.3 2.3 1.1 2.4.1 1.3-1.3 1.6-4.3 1.1-2.5 1.6-.9-.1-5.1-1.9-3.4-.7-4.5-1.2-.8-.6-2-3.2-4.4-3-2-.9-2.8.6-1.9-.3-3.2-1.6-2.1-2.5-.2-3 .6-.7.6-.4-1.5-.9-.1-2.3-.3-1.5-1.7-3.8-1.7-2.3-1.7-2.5 1.8-1.3.9-1.1 1.3-3.2.2-1.1.5-1.1.2-1-.1-1-1.2-1.8-3.8-3.7-3.7-2.1-7-2-1.9.1-.7-.3 1.5-.4 1.5-.8.8-1.2-1.8-.6-1.4-.3-2.4-1-.5-.9.5-.6-.6-1.6-3.2-.5-.8-.4-.1-.5-2.2-1.8-2.9-1.9.5-1.9-2.1-1.4-1.8-1-2.8-.4-1.1-.7 6.5.2 6.8 1.4-.6.6-.5.9 2 2.4 1.9 1.3 4.3 1.6h.5l.9-.4 2.1.8 1.7 1 3.2.1 3.9 1.1-.3.5-.5.4 1.1 1.3 1.7-.2 2.8-1.1 6.9 3.9 1.9.7 11.1 2 5.1.2 2.7.5 4 1 4.3 2 3.5.7 6.4.7 3.3-.1 8.2-1.3 10.5-3.6 5.4-3.1 8.6-8.1 1.1-1.9 1-4.5.1-1.9-.7-.2-1.1-1v-2.6l-1.5-1.3-1.5-5.8-2.7-.6-1.5-.7-1.7-.3-1.9-.9-2.2-2.4-2.2-1.6-1.8-2.2-1.1-.8-.8-.2.5 1.1.4 1.2-3.3-.3-9.5-5.6-1.6-.4-.6.5-2.9-.7-.9-1.3-8.1-6.1-14.3-6.9-9.8-4.2-7.3-1.9-.7.2-.7.8-2.1.2-1.9-.2-6.6-1.7-1.6-.2-7 .1-.7.5-2.5 3.6-1.3.7-2.5.7.7-1.1 1.7-.8 1.1-2.6.1-1.1.6-1.4-.1-1.1-.9-.4-1.3.5-3.6 1.4-.4-.4 1-1.4-.3-.6-1.5.2-3.2-.6-3.3.2-.6-1.7-2.2-1-.9-.8 1.1-.9 7.4 1.5 2.1.1 1-.6.2-1-.1-1.2-.9-.7-4.8-1.2-2.2-1.4-5.2-1.9-.2.9.8 1.8-.4.6-1.5-.5-1.2.4-1.6 2.2-1.5.5-1.2.2-5.2-1.8-2.3-.3-2-.3-1.5.1-1.4-.1-.7 1.7-.4-.2-.6-2.3-1.4-.6-.7.5-.3 2.2-.9.6-1.4-.6-2.6.2-1.3-.4-.8-.8-.2-.9v-1.3l.3-1.6-.6-.7-10.3-2.6-.3-1.2 14.7 1.1 4.3-.6 2.7-1.7 6.1-1.8.2-1.6-.4-1.3-4.3-2.8-2.2-.5-2.7.1-.1-.4.5-1.4-2.2-1.9-1.4.2-2.1 1.2-.8-.1-.2-.5-1.1-.9-3.1-.7-1-.6-1.3-1.6-1.5-.7-3.5-.1-1 .5-1.8 1.9-1.6 3.3-.6 2.7-1.6 1.3-.4.9-.6 3.6.2-.9v-1.7l-.2-1.8-.1-3.2.8-2.1-.8-.8-2.8.9-1.3-.3.7-.9 4.1-1.9.7-.6.7-1 .1-2.5-3.2-1.6-4.2-.4-1.1-.5-1.7-.2-3.4 2.2-1.3 1.2.4.9 3.7 1.9-.1.5h-3.1l-1.6 1.4-.5 1.5-1 1.7-1.1 2.2-4.1 2.1-1 .3v-1l.2-1.1.3-1.1.2-2-1.1-.8 1.5-1.7.8-2.6-.9-2-2 .6-3.6 3-3.1 3.6-6.7 6.6-.7 2.4-2.7 2.3-2.2.6-.8-.8.1-1.7 2-2.4.8-3.8.8-1.5 2.5-2.8 2.5-2.4 1.5-.9-.2-.8-.7-.4-.8-.1-1-.6-1.7-.3-.8.5-.6 1-.8.1-1.2-.7-1.7-1.3-2.7-1.2-.9-.7-1.4.2-2.8 2.5-2.3 1.5.1 1.2 1.7.6.2 1-.8.2-.9.7-3.2 4.1-1.8.2-3 1.8-3.6 3.5-.6.9-.6 2.3.3.9 1.2 1-.6.8-1.2-.2-1-.8-1.7-1.7-.8-3.1-.5-1.6-1.1-.8-2.2-.8-3.4.9-.5 1.4-.8.3-1.3-1-2.1.8-.8-.4-2.8 1.5-3.1-.6-2.3.6-.1.6.7.8 2.7 1.7 2.5.7 1.2 1.4 1 3.9-.5.5-2-1.7-2.4-1.1-2-1.7-2.3.2-1.2 2.6h-1.7l-.8-.7-1.7.2-2.8-.2-1 1.4-.2 3.6.4 1.3 1.3 1.1 1 1.1v.3l-3.3-.5-3.7 3.9-1.2.7-.7.2-.1-.5 3-4.1.8-1.8-.1-1.4.7-4.3-.4-1.2-.4-.5-1.3.4-1 .7-1 .3-1.4 1.3-1.2 2.3-1.6 4.9-1.2 1.8v-1.8l.7-2.5.3-3.8-.4-.5-6.3 1.3-2.1 2-.3.8-.1.8-.2.6-1.4.9-1.5.1-1.2-.1-.8.7.1 1.3 1.6 1.3 2.1 1-.7.5-2.7-.2-2.1-1-1.3-1.7-1.1-.8-.4.1-.9.8-1.4 2.4v2.1l.5 1.2-.2.6-5.1 1.3-2 2.2-.7 2.7-1.3 1.8-3.3 2.4-3.2.2-3 1.3-.9.7-.9 1.3.1.9.8.5 8 .2 2.9-.5.7.2.3.3.9.8-.2.9h-1l-1.8-.1-3.1.9-1.8.2H406l-3.2-1.3-3 .3-2.4 1.6-.4.8 1.1 3 .8.9.9.2-.3.7-.8.6-.6.8.7 2.6-.7-.1-1.8-3.1-.7-3.8-.3-.4-.4-.2-2 1-2.5.4-2.2 1.4-2.2.7-.3.7.8.7 3.2.3.2.9-1.5.5-1.4.1-1.6-.9-1.8-.3-1.1.4-3.2 3.2.3 1.3-.5 1.6.9.2 2.4-.4 3.4-1.8.5.7-.8.6-.8 1.1.4 1.2 1.4 1.3 1.7.6 2.2-.6.4.5-1.5 1.7.2 2.1-.5-.1-1.1-2.1-.7-.5-1.6-.2-2.2-1.6-2.1-.4-2.7 1.6-2.3 2.5-.5 1-1.1.9-.1.6.5.3 1.3-.3h3.1l6.1.2 1.7.2-.2 1-8.2.2-2.3.5-1.6.7-1.7-.3-1.7 1-1.2-.2-1.1 1-1.8 2.3-.9.1-1 .5-1 .7.7 1.2 2.7.7.6.5-2.2.2-2.1-.3-1.3 1.1-.9.6-1.8.3-1.3 1.3-.3 2.2h-1.1l-.5 2.3.6 4.2 3-.1.8-.3h1.1l2.3-.5 3.8-1 .8.5-1.5 1.1-2 .6-1.1.9-3.7-.1-7.8 1.7.1.7 2.3 1.1.7 1.3-.6.3-2.1-.2-1.6 1.1-.8 2-3.6 3.7-.9 1.3-.9 1.7-1.1 2.6.1 1.7.8.7.8-.2.9.3.4 1 .7.2 1.2-.2 2.6-1.5 1.3-1.1 1.2-.5-2.3 2.6-2.9 2.4-2.6.3-1-1.2-.9-.7-8.6 4.2-1.8 1.4-.6 1.6-.1 1.5 1.2-.4 2.2-.9.9.1-1.4 1.4-2.5 1.2-1.4.1-1.7 1.3-2 .8-1.3 1.7-3.4 1.6-4.2 4.9-2.9 2-.9 2.1-1 1.3-2 1.1-1.2 1.4-.6 1.8.3.6.8-.4h1.4l.8 1.7.8.8.4 1.1 1.7.2 3.7-1.2 7.7-4 1.4-1.5-1-1.1-.7-.4 2.1-1.4 1.8-.9 1.2-.4 1.6.5.4.4-2.1 1.1-1.5 1 .5.4h1.2l.5.8.3.7-1.9.8-1.4.9-2.1.4-2.2.9-.7.5-.7 1.4.4.4.7 1.5h-.7l-1.5.3-3.2-.5-1.9.3-1.4.4-.8.8-.5-.1-.6-1.7-.6-.3-.8-.6-1.7-2-1.2.3-1.1.5-2.5.3-2.2 2.2-.9-.1-.1-.7 1.1-1.3-.3-.5-3.8-1.1-2.2.5-1.2.4-2.3 1.3-.5.7.3 1.1 1.2.4h1.5l.6.7-.1 1-.7.6-4 .5-1.1 1-.3 1.5 1 1.6 1.3.8 3.5 3.2.2.7-4-2.4-1.3-.6-1.4-1.9-3.1-.3-1.6.2-1-.1-1.1.2-2.3 1.5-4.9 1.3-.9.6-.2.6-1.9 2.3-.6 1.4.6.4 3.1-.6 1.1-.5h1.7l2.1.8 8.2-1.2.6.8-3.7.2-3.4 1-.3.5.1.7 2.1.5-.5.4-1.1.3-1 .1-2.7-1.2-4.2-.5-2.8-.2-1.6.3-2.3.2h-1.1l-1 .5-.5 1.3-.9.7-.6.7.2.8 1.6-.2 2.5-.6 3-.4-.9.9-.5.3-4.8 1.1-1.6.1-.7-.5-.6-.6-.9-.2-1.5.6-1 .1-2.2 1.4-.6 1.4-.8.6-.8 1.1h-.8l-.7-.7-1.3.6-.6 2.6.8 1.4 1.4.4 2.7-.2 2.5.4 6 1.4h3.4l3.7-.7.6.3-3.4 1.2-5.8.4-2.9-.8-4.2-1.4-4.5.2-1.7-.3-.7.4-.2 1.3.2 1.9.9 1.3 1.3.5.9 1.5 1.3.7.9.4-1 .6h-1.1l-2.2.5-.2 1.1.4 2.5 1.1 1.2 2.8 1.5 1.6.1 2.5-.9 5.6-.4 3.9.9 1.4-.4.7-1.7.7-.9.3.2-.2 1 .6.4 1.8.3 1.9.6 3-.1 1.3-.3.3-.6-.3-1.4.7-1.7 1.4-1.2.1.3-1.4 2.3.7 1.5 2.6.2-.8.7-6.5 1.7.1 1.5.4 1-.5.3-.8-.8-.1-1.2-.9-.9-1.6-.8-2.2.1-2.5 1-1.6.1-4-.7-6.2 1.2-2.8.2-1.2-.1-1.2-.3-1.1.6.2 2-.2 1.5.5 2.9.9 1.4 1.7 1.3 2.6-.9 1.8-1.5.8.1-1.3 1.2-4.9 2.7-.4.8.6 2.6 1.3 2 1.7 1 2-.1 1.1.1.4.6-2.5 1-1.4-.2-1.4-.4h-.8l-.4.8.6 1.3-.4 1.4-.9 1.3-.2 2 .1 1.2.5.6.5-.1.6-.9.4-.3 1.2-1 1.8-1.2.8-1.6 1.8-2 1.3-.3 1-.8.4-1.5.8-1 1.7-1.6.7-1.1 2.5-1.4 5.9-1.6 2.4-.2-.6.7-2.1.5-.9.7-.9 1-1.9 4.1v-1.2l.8-2.8-.6-.9-2.1 1-2.7 2.3-.4 1.3.1.6-.6.8-.9 1-2.7 2.3-.7.9.4 1.1.9.2 1.7-.4h1.2l2-.3.1.3-2.9 1.4-1.6.2-1.2 1.4-2.5-.5-.8-.6h-.7l-.9 1.1-1.3.3-.8 1.5-.7 2.1-.7 4.3.5 1.2 2.4-.1 1.4-.7 1.2-1.7 1.2-.4.8-.4 1.6-.4 2.2-1.1 1.8-1.4 1.5-.9 1.6-.5.2.3-1.4.8-1.4 1.3-1.9 1.3-1.3 1.3-.2 1.2.4.9.7 1 .2.7v.7l.7 1.4.6.7 2.6-1.2.4.3-2 1.1-1 1.3-.5.1-3.2-1.7-3.1-1-.7.7-.4 2.9-.1 1.8.9 2 1.6 1.8 3.5 1.7 1 1.1 4.3 2 1.3.2 1.6-.1.5.1.2.5.2.2-1.1.9-.6 1 .5.5 1.8.5.5-.2.1-.9.4-.4 1 .1.5.1-.2.4-.1.3.2.6 1.3.9 2.4-.4 3.5.5 5.3-1.1 2.1-1.2h1.7l1.9-1.5 2.7-1.4 5.2-5 3.2-2 .2-.7.6-.5 1.1-.2.9-1.1-1.1-1 3.1-1.4.9-.2.5-.5.5-.7-.9-1.1-.9-.8 1-.1 2.1 1.7.6 1.3 1.5-.2 1.6-1.1 1.3.4.3-.5.5-.4 2.4-4.1.3-1.8-.1-1.3-.5-.2-.1-1.2 1.2-.4 1-.9-.5-2.1.8-1.3.1 1.6.4 1.5-.1 3.3.2.7 1.3 1.8 1.2 2.1 1.4.2.7.1 1.2.4h.5l3 .7.3.7v.5l-1.2-.9-1.3.2-.4.6-.3 1.1.3 1.2.5 1.1.2 3.5.6 3.8-.3 1v1l1.1-.2 1.3.7.2 4.1 1.3 2.2 2 .5.3 3.9.1.9 1.8.7.1 1.2.4 1.7.6 1.8 1.2-.4 1.3 4 3.5 5.8 1.9 1.5 1.9 2.9 1 .3 1.2.6.5 1.8-.8 1.1-1.1-.1-1.5.3.4 1 .7.7.8 1.5-.6.4-.6.1-2.6-1h-.5l.6.8.9 1.9 3.1 4.6 1.4 1.4.4 1 .1 1-.2 1.4-.3 1.4v.9l-.7 1.3 5.6 1.2 6.2-1.5 3.5.6 1.2-.1 2.2-2.3-.8-1.9-1-1.7.2-1.9.6-1 1.8-1.6.9-.7 1.1-.6 1.3.5 1.3-.2-.5-1.8.9-.5 3.5-.2 3.5.4 2.4-.6h1.5l1.2.4 1.3.7 1.2-.8 1-1 2-5 .9-1.6 1.7-2.2.8-1.8.6-2.1.9-2.6-.3-1.3-.4-.8V107l2-3 .3-1.3-.6-1.2-.3-1.3V98l-.4-1 .5-1.9 1.3-.1.1-4.5.9-1-.7-1.6-.8-2.4 2.2-.5 1.3-.6-1.7-1.7-1.4-.3-2.9-.8-1.1.2-.9-.5-1.3-.2 1.3-.5 4.2.2 4.4-.1 1.6-1.1 3.2-1.3 1.4-1.5 2.7-1.1 1.2-.9.8.2 1.9-.9L422 73l2.4-.9.5-.4.6-.9.5-2.1h1.1l1.5-.7-.7-1.3-.7-.2-.6.2-.8.5-.8-.1-.8.2-.8.7-1 .3-2-.2-.2-.6 2.6-1.3.7.2.8-.3.8-.7.8-.3 2.3-1.4.8-.7 1-1.1 2.3-1.4 1-.5.3-1.3-.7-2.2-.9-.7-.4-.9-.8-1-2.4-.8-.8-.6.3-1.9-2-1.6-1.9-.5-1.3-.9-1.9-2-.8-1.4-1.1.2-1.7.8-1 .1-.4-1-.5-.8-.5-.3h-2.6l-1.4-1.2.1-1.2.2-.9-1-2.7.1-.7-.3-3.1-.1-2-.2-.6.5-.6-.3-.9-.5-.5.3-1.5-.2-.9-.2-1.4 1.1-1.6-.2-1.3 1.8.6 1.7.1-.6-1.1-.2-.8-.3-1.7.5-2 .5-1.1.8-2.8.7-.9.9-.4-1.3-.6-1.4-1.4-.7-1.8.1-.7.4-.9h1.3l.8.2h1l.9-.5 1.5.2 1.5-1.4 1.2-.4-.4-.5-1-.3-.4-.4.5-.4.4-.8-.5-1.3-.5-.9-.2-.9.3-.3.6 1h1.8l-.2.5v.4h1.2l.6-.5.4-.7 2.8-.9.3-.6.1-.6.2-.6-2.4-.1.4-.7.8-.1 1.6-.5.6-1.3.4-1h.8l1.2-.4h.8l.5-.2-.1-.4-.7-.3.3-.4 2.8.4 2.6-2.2.7-1.6.9-1 1.8 1.1-.1-.7.1-1 1.1.4.8.6.9-.1.8-1.5 1.7-1.5 3.5-.8 2.1-1.2 1.1-1 2.9-1.1 1.1-.8 3.3-6.3 3.1-2.5 2.7-1.6.4-.7.3-1-1.6-1.7-.8-1.7-.7-2-1-1-.9-.7.7-1.4 1.3-1.3 1.7-1.5 1.9-2.3.1-.7-.5-1-.5-.8-.9-.8-.4-.7.5-.1 1.5 1.4.6-.1.1-.8-.2-.4-.7-.3-.3-.6.1-.6.4-.4 1.5.1 2.6-.4.4-.3.5-.7-.6-.8.2-.5 2.1.1.8-.5-.2-.4-.5-.3-.1-.6 2.2.3.2-.5.1-2.2.2-.5.6-.8.4-1.1.5-.4.8.2.9 1.2 1-.3 1.6-1.4 2.2 1.8 2.3 1.1.7-.3.9-.8 2.5-.4h2.2l1.3-.5 2.6 1 3.4-.5 1.1-.2 2.2.7 1.6-.9.8-.8h.5l-.1.6-.5 1.6 1.2 1.8 1.1.3 1-.1 5.2 2.4 1.4 1.4-.5 2.6-.1 2.3-.5 2.1 1.1.9.3.7.1 1.2-1.3.5-.6.7.7.7.1 1.2-1 .1-1-.4-2.5-.3-2.5.7-1.2.9-1.3.1-.4 1.3-1.1 1.2-2.1 3.4-3.3 2.6-1.3 2.3-.8.3-2.7 2.5-.7 1.9-1.4.1-3.2 2.8-1.5.6-1.5.9-3.3 2.8-2.9.7-.1 1.4-1.7 1.8-1-.3-.1.6.4.6-.9-.3-.4.3.5 1.2.4.6v.7l-2.6 1.3-2.9.7-1.2-.6-3.3.7.1 1 .3.8 1.1 1.5-2.3.1-.2 1.7-3.4 3.2-.7 1-.3 1-.2 1.3.7 2.6.3 2 2 1.4.3 1.3.1 1.1-.7 2.2-.6 2.4 1.7 1.5 1.1 2 1 2.1.1.7.7 1.5-.1.3-.1.2h-.9l-.3.3.4.6.3.3.2.5h-.7l-.1.5.2.8-.1 2.5-.5 2.1-.4.8-.9 1.3-.2 1.8.2 2.3.3 1.6.1 1.4v1.1l.3.8 1.2.5 1.1.8 1.5-1 1-.2.6 1.7 1 .1 4.2 1.9 3.4.5.5-.2.3.1v.4l-.8 1.5.1.4.9.1v.5l-.3.4-.7.1h-.6l-.3.9.2.1-.5 1.1v.3l.4.8h2.4l.7-.2.7-.4.6-.4.3-.5.4-1.6.3-.6.6.1 1.1 2.1 1.1 1 .9.1.6.4-.1.9-.9 1.1-1.4.8-.6.8.7.2 2.1-.5 1.9-1.5 1.8-1.1 1.7.3 1.7.1 3.9-.8 4.1-.6 1.3.4.9-.5 1.1-1.3 3.2-.8h1.4l2.5-.7 1.5-1 2.4-.2 1.2-.8 1.4-.8.8 1h.5l1.1-.7 1.3-.5 1.2.2.1-.5-.7-.7-.7-.7h1l2.2 1 2.2-.5 1-.9.5-1.7.9-1.4.5-.1-.1.6-.7.9-.4 1.4.2 1.1.9-.5 1.5-.3 3-.3 1.6-1 1.7-.4.5.1 2.8 1.4.8-.5 1.9-.2 1.2-.6.5-.1 4.9-.7 4.3-2 .8.5.9.8-.1 1.3-.2 1-1.7-.9.4 1.1 1.5 2.1 2.2.8 3.3 2.7 3.9.3 2.6-.5 2 .1 1.9 1.4 1.3 1.8 1.1.5 1.4.9-.2 1-.4.6-5.8-1.6-6.7-.8-.9.7-.8 1.1-.4 1.1-.4.5-1 .3-1.6.1-1.8-.2-1.2-.6-.8.7-.4 1.5-1.2.8-1.6-.6-1-1.2-.9.1-.6 1.1.4 1.5.2 1.8-.7 1.3-.1.3-1.3 1-7.2-.7h-4.6l-1.6.1-2.9-1.1h-2.1l-8.6-2-2.3-.1-1.4-.3v.7l.2.7-1 .7h-7.3l-3.8 1.2-2.6-.3-2.6 1.8-1.6.1.4 1.5-3.9.3-1.8.6-1.9.9.3 1.7-.5.7-.2.7.6.6-.3.7-.7.7.8 1.9.1.6.4.1 1.9-.1-.4.6-1.5.7-.3 1.1.7 1.5 1.7 1.3.2 1.4.8 1.3 3.1 1 1.3.7 1.5-.4.7-.7.6-1 .7-.1 1.8.6.3.9-.2.4-.6.4-.3 2.9-1.7 3.6-.1.7-.3 1.6.8 2.6.5 5.9-.3 1.4-1.3 1.4-2.9 1.9-1.6 1.1-3.6.7-4.6-2.2-1.9-4.3-1.3-1.3-5-3.7-.4-1-.8-1.3-4.2 1.1-3.7 1.3-2.8.5-3.5 4.6-.5 1.6-.2 1.9-.7 2.1-1.2 1.5-2.4 2-.5 3.4-.2 6.8.4 3.4.1.8.1 3.8 1.4 3.5.9 2.9-.5 2 .5 1.3-.2 2.9-.4 3.1-2.5.6-1.4-.1-1.5-.7-1.2-.2-1.2-.5 3.4-3.6 2.2-3 .9-2.5.2-1.4v-.9l-.3.6-.4 1.9-.6 1.3-1.5 2.1-.7 1-2.2 2.3-2 1.9-1.6.8-3.7-.1-1.7.6-.3 1.6-.1 1.4-1.1 2.1-1.3 1.6-2 1.5-.6.4-2 .9-5.5.6-1.8-.4-2.2-1.1-1-1.4-1.9-4.1.8.1 2.3 1.3 1.6.6-.5-.9-2.9-1.5-2.7-1.2h-3.1l-3.1.3-7.5 1.5-3.3 1.4-1.6 1-4.2.8-2.3 2.1-1.1 1.3-.7.5-.7.8-1.9.4-1.8.2-7.9 2-7.4 2.1-4.3 1.6-1.7-.1-.5-.3-2.2-1.5-2.7-1.6-.1.6.1.6.6.4.6.7-.3 1 .3 1 1.6.3 1.6-.2 2.3.3 2.7.6.1 1.2-.2.8.2.6.2.6-1.2-.6-3-1.1-2.9-.6-1-.6-1.1-.9-.6-2.9-1.3-2.3-3.6.2-3.9-2.5-1.5-2.3-1.7-.2-1.5-.4-2.6-.4-2.5 2.1-1.1 1.1-1.6 1-.7 1-4.1.4-1.2.6-3.1 2.6-.8.3-3.8-1.1-2.4.2-.8-.3-.5-.8 2.5-1.9.7-1.7-.7-1.7-.7.1-2.9 1.1-4.8-2.1-1.9.5-.5-.7-.4-.7-3.5.3.9-.7 1.1-1.2-.1-1.6-.9-1.1-.8-.7-1.9-.5-.5-2.1.3-.7-.6-.6-.5-.4-.9-.3h-1.5l.7-1.4 1.8-1.6.3-1.1-.4-1.4-.2-1.3-.4-1.4.9-1.1 1.4-.9.5-.8 1.1-1 1.3-.5.3-.5-.8-.9-.7-.5 1.5-.6h1.2l.7.4.3-.2.6-2.5 1.2-3.7.7-.7.7-.4 1.4 1.4h1l1.7-.7 1.3-1 .5-1.2.4-1.5-.6-.9-.5-.5h-4.6l-1.4-.6-1.3-1.2.2-2.9-.1-.8.1-3.2.5-.4 1.3-2.7 1.1-1.3-.1-2.5.2-1.3-1.2-2.1.2-1 .3-.6 1.7-1.6h-1l-3.5 2.2-3.8.7-1.9 1.9-3.4 4.5-1.6 1.1-1.7.5-3.4-.2-1.1.1-1.8.7h-2.5L297 112l-1.8 2.4-.2.7v1.1l1 .8 1.6.9 1.7-.8 2.2-.3 1.3-2.9 1.5-2.4 1.5-.5 1.9.6-.6 3.7-.2 1.9-.7-.9-.9-.8-.9.3-1.4.7-2 2-.2 1.5-.6.9-.8-.3-.7-.8-1-.1-2.5-.9h-.6l-.9.2-.4 5.2-.1 3.3 1 2.8-.3 1.5-.6 5.4 2.7 1.6 3.5 1.6.5 1.6.2 3.1-1.2.4.8 1.6.3 1.1.3 3.4 1.4 1.7 1.2 1.8 1 1-.1 1.2-1.6.7-2.3.5-.3.8.2 1.1h1.2l.6-.4.9.2.7.7v4.6l.2.6.7.7 1.2.4 1.9.2 1.2.6 4.1 4.5 2 .8-1.4-.2-1.1-.6-3.4-3.7-1.5-.7-4 .4-3.6-.7-.6.6-.6 1-.3 1.9.4 2-.6 2.8V174l-.5-.6-1.5-1-.4.4-.3 1.3-.2.5-.6.2-1.2-.6.8-1.3-2-2.6-4.9-.1-4.4.3-1 .5-1.3 1.7-.4 1.4-.3 1.8 1.3.9.6.8-1.8-.3-1.2-.5-.7-.8-1.2-1.1-3.2.1-2.7.3-3.7.1-2.4.6-4.7 1.6-1.1.9-1.1 2-3.8 2.4-2.2.9-.6-.3-.9-.2-.7 1.2-.6 1.1-1.5 6.3-1 2.3-1.4 1.9-2.2 2.4-1 .8-.6.3-.8 1.1-.6 1.4-.4.6 2.4 2.3.3.7.3.4-2.3.2 1 .8 1.2.5.8.3.5.5-.9.2h-.8l-3.3-2-1.8-.4-2.5.1-.6.2-.7.6.9.9.9.6 1.4.1 1.7.7 2.4-.6 1.7.7 1.1.3-1.5.4-1.3-.6-1.7.7-2.1-.2-1.6-.5-2.1.1-1 .3-1.6.4-3.4 1.5-6.6 3.4-6.9 1.3-1.9.9-1.2.9-.8 1.1-.4 1.4-.4 7.4.5.7-.6.4-.4.4-1.4 1.9-2.1 1.5-4.1 1.5-4 .8-5.5 2.6-.8 1.7-.2.7.3.8 1.9.7 2.1-.2-.3.4-3.6.8-1.9 1.2-2 .5-4.6-.9-3.2-.1-2.5-.6-2.3.1-.7-.9-.5-.8-.4-1.7.1-1.4-1.4-.5-2.9.7-1.5-.2h-1.9l-.2.9.1.6.7 1.7 1.6 2.9 1.4 1.8.2 6.5 1.1 1.8 1.3.7-.8.2-5 .2-.4-.6-.7-.5-.9 1-.4.9-1-1-4.7-.1-3.2 1.8-1.3-1-2.7-3.1-2.9-.8-3.1.5-1 .8-2.2.9-1.8.3-2.6-.2-6.1 1.4-2.4 1.3-.5 1.5.2.7.4.8 1.7.1.8-.2 1.7.1.4.2.8.2.8.7-2.1.2-1.2-.1-.4-.2-.6.3.4.7.4.3 1 .2 1.4.8-.6.7-1.7.5-1.5.2-.6.7 3.2 1.1.7 1.5.8.9 1.1.2 2-.6 2.2.2 5.1 1.4.8.7.6-.2.9.1.8.5.6-.1h.8l1.2 1.2 1.3.3 1.3-.2.9-.2.7.4-.8 1 .3.4 1.4-.2h1.4l.9.2.7.7-.6.9-.7.5.3 1.1.9.3 1 .2 4.9-.5 3 1.5-1-.1-1.3-.6-1.4-.2-1 .2-.5.6-.6 1 .7.6.8.2.8 1.2-.9 1.9v.9l.4.9 1.8 2 1.7 2.7 5.1 2.6 1 .4h1l1.2.2.2.9-.1.8.4 4.5.5 1.9.3.5.1.5-1.1-.4h-1.2l.2.9.3.5 3.7 2.3 1.1 1.1.7 1.3 1.2 4.7.8.6.4.8-1.1-.7-.7-.7-1-3.5-.8-1-1.5-1.2-1.8-1.2-.9 3-.5 2.9-.7 7.8.3-.3.3-.6.6-.6 1 1.2-1.2.4-1 1.6-1.3 8.5-1.8 7.1-1.9 2-2.1.5-.4.1-2.1.9-2.6.4-1.8-.1-3.5-1.3-3.5-.6-.9.2-1.3 1-4.8-1.2-1.4-.9-1-.1-2.2.6-1.5-.3-1.6.6-3.8.7h-2.7l-7.5-1.3-2.7-.8-4.5-.5-2.3-1-3 .8-1.9-.1-3.2.4-1.8-.2-3.7.1-2.1.5-2.6-.6-1.8-1.6-1.3-.7-1.2.2-1.3-.6-2 .9-2 .2-1.7 1-1.5.8-.4.6.5.7v.9l-1.4.7-.9.2-1.5.8-1.7.3-2.7-.3-1.9 1.5-.9.4-.7.6-.4 2.1v.9l.4 1 .5.7 1 .8 1.4.2-.2.5-1.3 1.6v1.1l.6.1 2.3-.9.2.6-.1.6v1.4l.5.5.6.3-.5.8-.5.4-.1.7h1.1l.5.2-1 1-1.5 1.6.1 2.4.3.3 1-.2-1.3 1.7-.1 1 .5.9 1.2.1-.7.7.1 1.4.9 4.2.8 2 .2 1 .1.9-.2 1.7-.1 2.5-.6 1.5-.5.7-1.3 5.2-.2 1.2.5.4.2.5-2.1 4.4-1.8 4.2-1.3 1.7-.9.5-.7.8.2.8.1.5-.8 2-.2 2.3-.6 1.6-.1.8.1 1 .8.3.7.1 1.3-.2 1.5-.5.6-1.4 1.8-2.7 1.1-.7 1-.2-1.9 1.2-.8 1.4.3 1.5-.6.8-.9.7-1.1.1-.9.5.6 1.7-.1 1.4.3.1 1.2-.3 2.3-.8h.7l.8-.1.8.5.8.9-2.7-.3.9 2.2.1 1.7-1 3.3.7 1.3.4 2.1-.3 2.1.1 2.4-1.4 3.9-.9 2 .8.2 1.1-.9h1.4l1.8-.7 1.4.3h4.5l2.5.8h1.4l4.4-2.1h1.1l3-.4 2.6.2.6-.2.8-.9.1.4-.3.8 5 3.5 1.2 1.8 1-1.1 1.3-.1-.5.2-.9.7-1.1 1.7.4 1.3 1.5.6.2.5-.1.6.5 1.5.7 1.4 1.7 2.1 1 .1 1.9 1.4 2.4.9 1-.2 1.1-.5.2-1.1.5-.1.3.4h.3l.4-1.5 1.3-2 .8-.7 3-1.1 3.4-.1 2.2-1.8.9-1 .9-.3 6.9-.6 3.2.2 1.9.5 2.2-.7h1.4l3.2.2 1.5.4 1.5-.5 1-.9 1.8-.4 1.9.2 1.5 1.1 1-.5 2.2-2.5 1.8-4.2 2-2.3 4-2.6 5-.1 1.5-.1.6-.2.6-.5-1.3-1.2.1-.9.8-1.2.1-.5.7-1.6.5-2.4 1.2-.8.4-1.7 1.8-1.8 4.2-2.2 2.4-1.6.8-.9-.6-1-2.4-1-1.3-1.2-.9-1.4-1.6-5.3v-1.5l3.2-5.3 1.5-2.1 1.5-1.4 2.6-3.2 3-4.5.4-.1.4.1.8-.3 1.8-.8.4-.6-1.2-1.2-.9-.3 1.3-1 2.8-2.6 2.2-.5 4.6-1.5 6.6-1.4.8-.5 2.1-2.2 8.9-4.6 1.8-1.4 1.3-1.3-.1-2.1-.2-.4-.6-.4-.3-.4.2-1.4.7-.1 1.1-.4-.2-.9-.6-.4-.4-1v-.5l-1.4-2-.6-3.8.1-1.2 1.4-2.6 1.2-1.7 6.8-4.2 1-.9.6-.7 1.8-.5.3.2.5.3.6.9.8.4 2 .4.4.1 2.8.9 1.1.2 1-.1v-.3l.3-.1.5.2.4.3.5.4h.8l1.1-.9v.3l.2.5.6.2 1-.1 1.6.1 1.1 1.8 3.4.8 1.8 1.2 2.8-.1 1.1.5 2.4-1 2.4-.5 1-.5 1.1-1 .4-1.1.4-.6 1.9-1 4.1-3.4 1-.6 3-1.1 3.1-.6 3.5-1.2 1-.7 2.7-3.4 3.4-3.3 2.8-1.2 2.1.2 3.4 1.3 1.2.1 5.7 3.4 4.1 1.3 1.8 1.1.7 1.5 1 5.3 1.6 2.2.9 2.6.2 1-.2 1.2v1.5l1 .2.7-.1.8.3.4.6.4.8.5.6 1.7 1 3 3.1.2 1.2-.6.2-.5.4.5.4h.6l.8-.4.6-.1 2.6.9 1.8 1.2 2.2 3.2 3.5 2.2 1.7 2 5.5 5.2 2.8.9 2.3 1.6.2.5.6.3 1.2-.5.8-.2 1.5.2 2.5.7 1.5-.3.8.3 1.6 1.6 2.4 3.9v.9l.4.3.3-.5.6.1 2.1.1 1.5.8.4.5-1.5 2h.6l1-.5 1.3.1.7-.3 2-.4 1 .6.9 1.1.5 1.3.5 1.4-.7 1v.7l.3.4 4.4 2.5 1.2.3h2.5l1.4.9.9 1.8 1.2 3.7 2.2 4.1.6 3.2.5 1.7 1.3 1.2-.2 2.7-1.7.3-1.2.4-.6.6-.6.9.3 1.9-1.1 2.7-1.6.6-.7 1.3v2.1l1 1.4h4.3l.7-1.1.4-1 1.8-2.4 3.4-2.4.4-1.3-.2-3.3.7-1.3 1.8-1.3 2.5-.7 1.9.3 1-1.2-.7-2.1-.1-3.7-1.5-1.5-2.3-1.4-2.9-.9-1-1.6.1-1.7 1.8-4.2 1.8-2.9 1.6-2 1.3-.8 1.9.2.4.2.5.7.1.6 1.8.9 1 .4 5 .5 2.7 5.2 1.8 1.3 1.6.5.6-1.2.4-1.3.8-1.8-.3-1.7-1.7-2.3-3.8-2.9-1-1.4-6.2-2.8-2.6-2-2.2-1.3-7.1-2.6-6.9-3.1-1.4-1.2.2-1.7 1.5-1.2 1.5-.9.5-.8-.3-1.3-1.3-.5-1.3-.2-7.2.4-3-.3-3.9-1.8-4.2-2.9-4.6-4-2.2-2.8-1.1-2.5-1.6-5.1-1.4-3.2-1.7-2.8-.7-.6-3-1-5-3.7-2.8-1.1-2.6-2.2-1.2-1.4-1.2-3.2-.7-4.6.4-1.7h.5l.8.5 1-.7.4-.9.3-1.1-1.7-1.1-1.4-2.6-.8-.5.3-2 .3-1.2 1-.7 1.8-.9h.6l-1.3 1.2.8.1 1.5-.6 1.9-.7 1.8-1 1.6-.4 1.2-1 .5-.8.6-.4 3.3 1 1.2-1h.9l2 2.3-.8.6-1.1.8-.8.3-.8.6 1.1 4 .1 1.1.2.9 1.5 1.8 1.5 2.4.5.1.9-.1 1-1.4.6-1.1 1.9-2.6.4-1.9.6-.9.9-.1 2.1.7 1 1.2 2.9 2.2.7 1.7-.3 2.4.1 1.8 1.1 1.6 3.7 3.4 1.4.9 1.1.9-1.3-.3h-1.1l-.7.3h-.6l-.8.2.8 1.3 4 4.1 2 1.5 2.1 1.2 1.6 1.2.1.8-.1.6.5.8.8.2h1.1l1.8-.4 1.6-.2 2.6 1.2 3.9 1.1 2.9 2.8 2.6 1.5 2.7 2.4.6.4 1.1.6.7.7-6.5-2.7h-1.2l-1 .2 2.7.7 4.2 2 3.1.6 4.3 2.5 2.2 1.6 2.4 1.5.5.1.5-.2h.7l-.2.3-.2.4.2.3 3.4 2 2.9 2.9.8 1.7 2 1.2 1.6.2 1.4 1.1v2.2l-.4.7-.6.5-.7 2.1.2 1.6.3 1.3-.3 2 .1 2.6-1 2.2-.6 1.9.1.6 1.2 2.3.3 1-.2.4-.6-.3-.5-.2h-.5l.5.9.5.9 1.1 1.1 4.7 2.5 1.5 2.6.4 1.1.1 1.4 1.3 1 1.2 1.4 1.4 3.3 2.2 1.1 1.3 1.6 1.5 1.2.3.5.9.4 1.8-.4 1.4.2.4-.1h.6l.3.7.1.9-.5.4-.5.2-2.3-.8-1.5.2-.1.8.1 1 1.2.5 1.5 1.8.9 2.2.7 1.8.9.6 1.5-.4.3-.7v-.9l.3.2.5 1 1.1 1.3 1.2-.2 1.1-.3h.9l1.1-.2 2.1-.7 3.4.9 1.2-.1.8-.4.5-.8 2.1 1.4 2.2.8.4.4.6.4 1.3.5.8-.2.5.2.8.1.7.3.4.6-.4.6-.4.3h-2.2l-.8.3.3.6v.7l-1-.1-.6-.2-1.1-1-2-1-4-1.1-3.7-2-1.7-.1-1 .8-1.2 1.5-1.4.2-1.3-.6-.6.1-1.2 2.5-2.1 1.6-.3.4.2.6.9.4 1.1.8.5 1.6 1.1.4 2 1.5 1.4 2.3.2 1.1-1.5 1.6.1 1.8 2 3.2 2 1.8.5-1 .1-1.3.2-1.4.7-.4.9-.2.7 1 .4.9.9.3 1.9 2.6.1.8-.1 1.9.7.6.8.4V442l1.5-3.1 1.4-.2.8.1.7 1.4 1.9 2.3 1 .6.6.5.7.1-.6-1.5-.9-1.4.4-1.9-.2-1.2-.8-2.4-1.9-4-1.1-1.5-.5-2.2.6-.6 1 .8 1.2.2 1 .5 1.1.6v1.1l.8.4.5-.2.6-.4 3-.9v-.3l-.4-.5-.6-.7-.2-.6-.6-.3h-1.1v-.4l.2-1.4v-1.2l-1.6-.9-1.1-.4-.1-.4.4-.1 1.3-.7 2.9-.5 1-.6h.5l.5.3 2 1.9 1.9 1.6 1.2 1.5h.6l.5-.5.1-1v-.6l-.4-2-.1-2.7-.2-1.3-.5-.7-1.7-.7-1.9-.4-1.5-2-2.6-.5-1.5-2-1.5-.1-1.5-1.1-3.2-.9-1.1-.7h-.7l-.8-.2.4-.3 1-.1h1.6l1.6-.7 1.8-1.3-1.3.1-.3-1.2-.7-.9-.6-1.3 1.1-.7.9-.4 2.2 1.1.1.7-.6 1.2.5.5.8-.1 1.4-1-.5-1.7-.7-1-1.7-2-1.6-1.1-.8-1-1.1-2.6-3.1-3.5-.3-1.3.5-2.4.5-1.4-.2-.9.1-1 1.5-.6.9-.6 1.4-.2-.4 1-.5.5.6 1.4 2.6 1.4 2.8 1.3.2 1.9.9 1.5 3 1 .4-.2.2-.4-2.7-1.7-.4-.6-.6-1.6.5-.6 3.1.6 2.2 3 1.4.8.4-.4.2-.5-.4-1.4-.6-.6-1.2-.7-1.3-1.2.1-.6 1.2-.6 1.1.1 1.8.8 1.3.3.9 1 1.4 1-.6-1.4-1-1.3-2.4-1.2-1.3.1-.8-.2-.4-.9.6-1-1.3-1.3-.5-.7.2-1.1h2.4l1.8.4 2-.9 1.9-1.9 1.2-.5 1 .2 1.6 1 1.5.2 2.7-1.7 1.3-.4 1.9.9 1-.2 2.2.8 4.6.7 2 1.1.4.6.4.7.5 1.1 1.5-.1 1.8.2 2.8-.3h2.8l-.9 1.2-3.5 1.5-1.2.8-1.3 1.1v1l.1.7-.5.9-.3 1 .9-.3.7-.4 1.8-2.1 3.9-3.6 2.6-1 3.7-1.9 2.2-2.3.9-2 3.2-.6 2.3.3 2.1-1.1 1.1-.3 1.6.1 6.2 1.5 2.3-.5.5-.8.5-1.2.3-1.4-1.4-.3-7.7-3.3-1.9-1.3-1.9-2.7-.8-1.9.3-1.7-.4-1.2-2.1-2.5-1.5-2.2-.9-.8-2-1 3.5-3.7.8-.2.9-.5.1-4.2.4-2.6.6-.7.7-.6 1.3-2 2.4-.5 1.9.6 1.2-1.7.3-3.7.1-.9.9-2.9-.2-4.9.7-1.2 2-2.1.5-1.1-1 .2.1-.6.4-.5v-1.2l.3-.5.7-.9-.5-1.7.5-.7.6-.4 1.5.3-.6.8.3.9.2 1.1-.4.7 6.6-1.4.6-1.1.4-1 .6-2.7.1-.7.2-1 .3-1.3-.7-3.1-.8-1.1v-1.3l.3-.6.7-.5 1.8.4 1-.3 1.4-.7 2.3-.8.5-.3 3.5-3.6.2-.2 1.9-2.6.2-.6.6-1 .6-1.7.3-1.3 4.4-1.2 2.4.2 1.1-.3 1.2-1.8.9-.6-.4 1.8 1.6.4 1.6.2 1.2-.3.4-1.2.2-3.3-.6-1.3-.4-1.3-1-2 1 .9.3 1 1 1.8.3 2-.2 1.1.4 1.2.9 1.1 1.1.7 2.9.5 2.9-.8-.3.4-1.7 1.2-.7.7-3-.6-3.3-.2-2.1-.5h-2.1l.9.7 1.2.6 1.8.2 2 .5.1.7-.3.4-1 .2h-.9l-.8.3.7.7 1.2-.1 1.4.4 3.8 2.1 1.9.7 4.1-.8 1.9.1 3.4-.8.8.8 2.1 1.1.9-.3 1.2-.3.6 1 .4 1.4-2.6 1.7-2.4 1.2-1.8.2-4 2.5-4.1 3 .6.9.8.3 2.1-.5 1.9.2 3.5 2.4 1 .4 1.7-.3 2.1 1.4.6 1.8.2 1.2-1.1 3.6-.5 1-.3.3-.2.7 2.7 1.9 1.3.5 2 .2 2.1-.6 2.7-1.8 2.4-2.9 3.2-1.3 2.2-.3 2.6.3.9-1.5 2.6-1.3 1.5-1.9 1.2-.3 1.4.3 1 .5.6.5.9.5 2.4-.4 2.3.1 2.1-.6.4-1.4.3-1.2.8-1.1.8-1.4-1.9-.6-1.8-.4-1.5.1-1.2.5-.8.8-2.3-.5-1.1.2-2.5 1.3-1.3-.1-1.1-.6-1.5-1.5-3-4-1.5-2.8-.6-1.7-.2-1.4.1-1.9 1.5-.8 1.2-.4 2.1-2.8.8 1.1v.9l-.1.6-.8.7-2.6 2h.5l1-.3.9-.7.7-.5 1.8-2.8 5.5-3.9 2.5-.7 2.2.3 1.1-.2 2-1.2 1.6-.5h1.7l1.4.8 1.8-1.8 1.5-.7 2.2-.5h1.6l2.6-2.7 3.7-.4 4.5.2.5-.2 3.5-1.4 1.2-1 2.4-.4-.3.4-1.2.4-1.2 1 1.5.1 3.4-.5 1.2-1.6 2.2.1.6 1.1.6 1.5-.1.6-.2.4-1.8.3-4.2 1.9-2.2.5-2.5 1 .6 1.3.2 1.1-2-.2-1.5-.4-.9.2-2.5 1.2-1.3-.3H676l.6 1.7 1.3 2 .8.4 1.3-.2 3 2.4 2.3 2.4-1.2.2-1.1-.2h-1.7l-.6 1.5-.7 1.1-.1-.6.1-.7-.8-.5-1 .7-1.2 3.2-2.2 2.3-.7 1.4v1l.3.2h.5v.9l-.3.8-4.9 1.1-.7.6-1.4-.5-1.6-1.3-1.4-.7-.9.3-.9.6.5.4.6.1 1.7.8-.9.6-3.3 1.1.1.5.3.4 3.8.9 3.4 1.5 1 1.1.9 1.8.8.8 1.1.6 1 .4 1.7.1 1.9-.6 4.3 4.4 1.7.7 4.2.9 1 .5 7.9 6.1 2.4 2.6 4.6 4 1.3.8 2.7 1.7 3.5 2.6.8.4 4 .9 2.9 2.1.8 1.6 3.8 1.4.9 1.2 1.1 4 1.1 3.9 1.3 2.7v2.3l-.7 1.7-2.5 2.9-1.2 1.4-4.3 2.5-1.6.8-1.8.3-1.7 1.3-5.4 2.2-1.7.3-1.7-.5-1.2.2-1.3-.2-4.9-1.9-7.4 1.3-3.8 1.2-2.3.2-6.1-1.2-1.9-1.2-4.3-.5-4.7-1.1-1-1.4-2.8-1.3-1.7.2-.8.4-1 1-1.3-.2-1.6-.9-1.3-1.4-1.6-3.9-.9-.3-.8-.1-4.6 1.2-3.4-1.4-1.1-1-1.1-1.5-.1-1 .4-.5.2-.6-1.9-.5-3.3 1.6-7.2-.1-10.5-.8-1.2.2-4.3 1.7-5.2 1.3-3 1.2-2.8 2.1-8.1 4.1-1.4 2.5-1.2.8-5.7.3-6-1.7-5.5.7-7.7-1.2-2.2.1-.7.7-.3 1.1-.3 1.4.5.7.4.4 1.9 1.4 1.3-.3 5.6-.1h.6l-.1 1.2-4.3.9-5.8 1.1-1.2.4-2.2 1.5.7.5.7.3 1 .2 1.1.7-.6.5h-3.4l-1.4.2-4.4-.4-4.2.5-.4-.2.5-.8.4-.5-.1-.3-1.5-.4-1.4.1-.5.4 1.5 1.5-.8.5-.8.3-3.3.1-1.8-.9-.2-.6-.4-.6-2.1.1-1.4.8-3.5-.1-3.4 3.1-2.1 2.6-1.7.5-.4 1.8.1 3.2-.7 1.3-.1.7.2.8 3.1-.3 1.7-.5 4.4-.6.9.2.1.5-1.2 1.5-1.3 1.2-.4.7.5.5 1.7 2.2-.1.9-.5.6.1.8.7.6.7-.2.6.2.6.5-1.3 1.6-1.5.6-.3.4.3.7.1.5.5 1 .9 1.1.8.5 2.2-.1-.6.5-3.1.6-1.2-.2-1.9-.3-.4.2-.3 1-.4-.2-.6-1 .2-1-.3-1-.9-1.1-.9-.2-.8.3-.1.9.7 1.8-.2 1.1h-.9l-.7 1.4.5.5 1.2.4 1.3.8.7.2.5-.4.8-.3 1.6.9.9 1.2.8-.1 2.8 1.1.9.1.3 1.4-.4 2.3-1.9.6-.1.4 1 .8.7 1.7.2 1.5.9.6 1.1.1.3.5 1.5.8.2 1.3-2.1.6-.9-.1-.6.7.2 1.5.6-.1.5-.6 4.1.1 6-.4h1.4l-.2.6-1.8 1.2-1 1.3-.9.3-3.9.3-1 .4-1.1.2-.2.5 1.1.4 1.5.1 1.9-.9 3.6-.2-.9 1.2.1.5 1.2-.2 1.1-.6 1.4-1.8 2.3.1 3 1.5 1.3.4h1l1-.6.9.3.3.8.1.7.7 1 .3 1.8 1 1.1 1.6 1 4.4 1.5 1.3-.2 3.8-1.2 1.9-.8.8.3 1.2.6.8-.4.5-.6.3-2.1.7-1.1.3-4 .8-1 3.9.2 3.7.4 1.4.3 5.5 2.8 3.2 1.1 1.4 1.3 2 2.7 1.2 1.2 2 1.2 3.4.9 1.7-.9 2.2-.1 4.4-.7 1 .1 2.2-.6 3.4-1.6.9-.7 3.5-3.8 3.9-2.6 1.3-.5 1.4.3 1.7 1.1 3 1.3 2.8.9 1.9-.3 1.1-.8.5-1 .9-.6.9-.2 1.3-1 1.9-.9 1.1.9.9.6.5.9v1.2l-2.4 2-2.1 1.7-1 1.4.9 2.2.9 2.3-.8 1.2-.7 1-1 4 1.8 2.2.2 1v.7l.3 1.1-.7 2.4v1.6l.1 1.4 1 3.2v1.2l-.7.8-1.5.8-2 2.7-.5 3.1-1.3 2.2-2.2 5.4-1.1 1.6-.4.7m888.1-816.2l1.6-.8"/><circle class="st1" cx="184.7" cy="191.7" r="10.2"/><circle class="st1" cx="102.5" cy="164.9" r="10.2"/><g><path d="M111.7 160.1l-4.1.1-.1-4.1c0-.8-.5-1.3-1.3-1.3l-1.1.1c-.7 0-1.2.5-1.2 1.3l.1 4.1-4 .1c-1.2.1-1.4.7-1.4 1.3l.1 1.1c0 .6.4 1.3 1.4 1.3l4.1-.1.1 4c.1 1.2.7 1.4 1.3 1.4l1.1-.1c.6 0 1.3-.4 1.3-1.4l-.1-4.1 4.1-.1c.8 0 1.3-.5 1.3-1.3l-.1-1.1c-.2-.8-.7-1.2-1.5-1.2z"/><path class="st1" d="M106 148.2c-7.9 0-14.2 6.4-14.2 14.2 0 2.6 1.3 5.6 1.3 5.6.4.8.4 2.1.1 2.9l-1 3.3c-.2.8.2 1.3 1.1 1.1l3.5-.8c.8-.2 2.1-.1 2.9.3 0 0 3.6 1.7 6.4 1.7 7.9 0 14.2-6.4 14.2-14.2 0-7.8-6.4-14.1-14.3-14.1zm5.8 15.6l-4.1.1.1 4.1c0 1-.7 1.4-1.3 1.4l-1.1.1c-.6 0-1.3-.2-1.3-1.4l-.1-4-4.1.1c-1 0-1.4-.7-1.4-1.3l-.1-1.1c0-.6.2-1.3 1.4-1.3l4-.1-.1-4.1c0-.8.5-1.3 1.2-1.3l1.1-.1c.8-.1 1.3.5 1.3 1.3l.1 4.1 4.1-.1c.8-.1 1.3.4 1.3 1.2l.1 1.1c.3.7-.3 1.3-1.1 1.3z"/></g><g><path d="M193.7 187.7l-4.1.1-.1-4.1c0-.8-.5-1.3-1.3-1.3l-1.1.1c-.7 0-1.2.5-1.2 1.3l.1 4.1-4 .1c-1.2.1-1.4.7-1.4 1.3l.1 1.1c0 .6.4 1.3 1.4 1.3l4.1-.1.1 4c.1 1.2.7 1.4 1.3 1.4l1.1-.1c.6 0 1.3-.4 1.3-1.4l-.1-4.1 4.1-.1c.8 0 1.3-.5 1.3-1.3l-.1-1.1c-.2-.8-.7-1.3-1.5-1.2z"/><path class="st1" d="M188 175.7c-7.9 0-14.2 6.4-14.2 14.2 0 2.6 1.3 5.6 1.3 5.6.4.8.4 2.1.1 2.9l-1 3.3c-.2.8.2 1.3 1.1 1.1l3.5-.8c.8-.2 2.1-.1 2.9.3 0 0 3.6 1.7 6.4 1.7 7.9 0 14.2-6.4 14.2-14.2 0-7.7-6.4-14.1-14.3-14.1zm5.8 15.6l-4.1.1.1 4.1c0 1-.7 1.4-1.3 1.4l-1.1.1c-.6 0-1.3-.2-1.3-1.4l-.1-4-4.1.1c-1 0-1.4-.7-1.4-1.3l-.1-1.1c0-.6.2-1.3 1.4-1.3l4-.1-.1-4.1c0-.8.5-1.3 1.2-1.3l1.1-.1c.8-.1 1.3.5 1.3 1.3l.1 4.1 4.1-.1c.8-.1 1.3.4 1.3 1.2l.1 1.1c.3.8-.3 1.3-1.1 1.3z"/></g><g><path d="M279.1 218.9l-4.1.1-.1-4.1c0-.8-.5-1.3-1.3-1.3l-1.1.1c-.7 0-1.2.5-1.2 1.3l.1 4.1-4 .1c-1.2.1-1.4.7-1.4 1.3l.1 1.1c0 .6.4 1.3 1.4 1.3l4.1-.1.1 4c.1 1.2.7 1.4 1.3 1.4l1.1-.1c.6 0 1.3-.4 1.3-1.4l-.1-4.1 4.1-.1c.8 0 1.3-.5 1.3-1.3l-.1-1.1c-.2-.8-.7-1.2-1.5-1.2z"/><path class="st1" d="M273.4 206.9c-7.9 0-14.2 6.4-14.2 14.2 0 2.6 1.3 5.6 1.3 5.6.4.8.4 2.1.1 2.9l-1 3.3c-.2.8.2 1.3 1.1 1.1l3.5-.8c.8-.2 2.1-.1 2.9.3 0 0 3.6 1.7 6.4 1.7 7.9 0 14.2-6.4 14.2-14.2 0-7.7-6.4-14.1-14.3-14.1zm5.8 15.7l-4.1.1.1 4.1c0 1-.7 1.4-1.3 1.4l-1.1.1c-.6 0-1.3-.2-1.3-1.4l-.1-4-4.1.1c-1 0-1.4-.7-1.4-1.3l-.1-1.1c0-.6.2-1.3 1.4-1.3l4-.1-.1-4.1c0-.8.5-1.3 1.2-1.3l1.1-.1c.8-.1 1.3.5 1.3 1.3l.1 4.1 4.1-.1c.8-.1 1.3.4 1.3 1.2l.1 1.1c.2.7-.3 1.3-1.1 1.3z"/></g><g><path d="M353.1 172.2l-4.1.1-.1-4.1c0-.8-.5-1.3-1.3-1.3l-1.1.1c-.7 0-1.2.5-1.2 1.3l.1 4.1-4 .1c-1.2.1-1.4.7-1.4 1.3l.1 1.1c0 .6.4 1.3 1.4 1.3l4.1-.1.1 4c.1 1.2.7 1.4 1.3 1.4l1.1-.1c.6 0 1.3-.4 1.3-1.4l-.1-4.1 4.1-.1c.8 0 1.3-.5 1.3-1.3l-.1-1.1c-.2-.8-.8-1.3-1.5-1.2z"/><path class="st1" d="M347.3 160.2c-7.9 0-14.2 6.4-14.2 14.2 0 2.6 1.3 5.6 1.3 5.6.4.8.4 2.1.1 2.9l-1 3.3c-.2.8.2 1.3 1.1 1.1l3.5-.8c.8-.2 2.1-.1 2.9.3 0 0 3.6 1.7 6.4 1.7 7.9 0 14.2-6.4 14.2-14.2.1-7.7-6.3-14.1-14.3-14.1zm5.9 15.6l-4.1.1.1 4.1c0 1-.7 1.4-1.3 1.4l-1.1.1c-.6 0-1.3-.2-1.3-1.4l-.1-4-4.1.1c-1 0-1.4-.7-1.4-1.3l-.1-1.1c0-.6.2-1.3 1.4-1.3l4-.1-.1-4.1c0-.8.5-1.3 1.2-1.3l1.1-.1c.8-.1 1.3.5 1.3 1.3l.1 4.1 4.1-.1c.8-.1 1.3.4 1.3 1.2l.1 1.1c.2.8-.3 1.3-1.1 1.3z"/></g><g><path d="M394.9 233.9l-4.1.1-.1-4.1c0-.8-.5-1.3-1.3-1.3l-1.1.1c-.7 0-1.2.5-1.2 1.3l.1 4.1-4 .1c-1.2.1-1.4.7-1.4 1.3l.1 1.1c0 .6.4 1.3 1.4 1.3l4.1-.1.1 4c.1 1.2.7 1.4 1.3 1.4l1.1-.1c.6 0 1.3-.4 1.3-1.4l-.1-4.1 4.1-.1c.8 0 1.3-.5 1.3-1.3l-.1-1.1c-.1-.8-.7-1.2-1.5-1.2z"/><path class="st1" d="M389.2 221.9c-7.9 0-14.2 6.4-14.2 14.2 0 2.6 1.3 5.6 1.3 5.6.4.8.4 2.1.1 2.9l-1 3.3c-.2.8.2 1.3 1.1 1.1l3.5-.8c.8-.2 2.1-.1 2.9.3 0 0 3.6 1.7 6.4 1.7 7.9 0 14.2-6.4 14.2-14.2 0-7.7-6.4-14.1-14.3-14.1zm5.9 15.7l-4.1.1.1 4.1c0 1-.7 1.4-1.3 1.4l-1.1.1c-.6 0-1.3-.2-1.3-1.4l-.1-4-4.1.1c-1 0-1.4-.7-1.4-1.3l-.1-1.1c0-.6.2-1.3 1.4-1.3l4-.1-.1-4.1c0-.8.5-1.3 1.2-1.3l1.1-.1c.8-.1 1.3.5 1.3 1.3l.1 4.1 4.1-.1c.8-.1 1.3.4 1.3 1.2l.1 1.1c.2.7-.4 1.3-1.1 1.3z"/></g><g><path d="M126.3 371.5l-4.1.1-.1-4.1c0-.8-.5-1.3-1.3-1.3l-1.1.1c-.7 0-1.2.5-1.2 1.3l.1 4.1-4 .1c-1.2.1-1.4.7-1.4 1.3l.1 1.1c0 .6.4 1.3 1.4 1.3l4.1-.1.1 4c.1 1.2.7 1.4 1.3 1.4l1.1-.1c.6 0 1.3-.4 1.3-1.4l-.1-4.1 4.1-.1c.8 0 1.3-.5 1.3-1.3l-.1-1.1c-.2-.8-.7-1.3-1.5-1.2z"/><path class="st1" d="M120.6 359.5c-7.9 0-14.2 6.4-14.2 14.2 0 2.6 1.3 5.6 1.3 5.6.4.8.4 2.1.1 2.9l-1 3.3c-.2.8.2 1.3 1.1 1.1l3.5-.8c.8-.2 2.1-.1 2.9.3 0 0 3.6 1.7 6.4 1.7 7.9 0 14.2-6.4 14.2-14.2 0-7.7-6.4-14.1-14.3-14.1zm5.8 15.6l-4.1.1.1 4.1c0 1-.7 1.4-1.3 1.4l-1.1.1c-.6 0-1.3-.2-1.3-1.4l-.1-4-4.1.1c-1 0-1.4-.7-1.4-1.3l-.1-1.1c0-.6.2-1.3 1.4-1.3l4-.1-.1-4.1c0-.8.5-1.3 1.2-1.3l1.1-.1c.8-.1 1.3.5 1.3 1.3l.1 4.1 4.1-.1c.8-.1 1.3.4 1.3 1.2l.1 1.1c.2.8-.3 1.3-1.1 1.3z"/></g></svg>