<svg id="Layer_1" xmlns="http://www.w3.org/2000/svg" viewBox="385 -170 1281 852"><style>.st0{fill:#fff}.st1{fill:none;stroke:#0093c9;stroke-miterlimit:10}</style><circle class="st0" cx="1007.8" cy="352" r="5.5"/><circle class="st0" cx="1047.5" cy="326.7" r="5.5"/><circle class="st0" cx="1070.1" cy="360.1" r="5.5"/><circle class="st0" cx="925.6" cy="434.2" r="5.5"/><path class="st1" d="M1564.9 86.8l1.6.3.6-.4.8-1.1-.5-.6-.4-.1-1.8.4-.6-.3-.3-.1-.7.3-1.2.4-.5.6.9.6zM1551.1 92.9l.4-.8.8-.7h-1.4l-.9.3-1.1.5.3.3zM1491.7 104.3l-.4.4 1.1.6 2.9.5.7-.1-3.5-1.4zM1587.6-6.2l8.7.8 2.4-1.2-.7-.7-2.5-.3-7.2-.2-1.2.7.1.4zM1627.2 56.3l.6.5.6.2 1.6-.4.8.1.3-.2.3-.3.9-.6 1-.9v-.3l-.3-.8-4.6 1.6-3 .6-1.1.5.7.2zM1542.1 97.8l.3-.2.3.1.4-.3.5-.3-.8-.4-2.5-.4-1.7.3-.6.5 2.4.2zM1599.1 7.3l1.8.3 1.4.4.7.7 5.6 1.2 4.5 1.5h1.5l3.2-1 1.6-.8h.7l2.1-.4 6.2-.4 9.1-1 .9-.5.8-.8-.9-.3-.3-.4-.9-2.1-.3-.4-.3-.2.6-1.3.7-.6 3.1-.4.6-.3h.7l.1-1-.2-.6-.9-.5-2-.2-4.6-1.9-.4-.5-.9-.6-.3-.8-.4-.3-1.9-1.4-.8-.2-.6-.3-.6-.8-.7-.3-4.5.2-.6 1.3-1.6.8-1.5.4-1.7.1-1.6.3-1.8.5-1.7.3h-1l-.9.2-2.1.6-.8 1.1-1.2.5-.4.3-.7 1-.1.5 1.2.2 3.4-.4-1.9 1.4-1.1 1.4-1.7 1.3-2.3.6-2.5.3-1.4 1-1.1.9zM1612.8 14.4l1.4-1.4-2.3-.5-6.1-.9-2.9-.8-3-.1-2.2.1-1.4.3-1.1.7.4 1.2 1.7 1.1 2.2.7 3.2 1.7 2 .1 1.7-.1 1.7-.3 1.6-.6 1.5-.7zM1535.7 97.3l.9.3.7-.5-.2-.3-.5-.5-.6-.1-1 .1-.4.3.4.4zM1510.7 114.8l3.8.6.5-.2.3-.6v-2l-.9-.8-.4-.7-1.3-.8-3.5 2.7-.2.5.4.7zM1491.8 18.1l2.1.5h1.3l.1.8 1.1.1 5.4-.2-.3-.4-1.3-.5-6.2-1.3-.7.4-.8-.5-.7-.2-.7.3.2.3zM1500.3 117.2l-.8 1.1-.8.6-1.7.9-.2.7.2.2 1.7.2 3.4-.1 1-.2 1.6-1.1 1-.3 1.4-.9v-.3l-.5-.6-3.7-1h-1.2zM1512.2-1.3l6.5-.6 2.2-.3.2-.3.3-.7-1-.3-3.3-.4-4.1.2-.7.6-.9 1.2.2.2zM1529.4 80.2l.5.6.3.1 1.2-.5.3.7.5.3.5-1.3h.9l.3-.2-.1-.5-.3-.4v-1.4l-1 .1-.8.2v.5l.1.7-.6.1-.9-.7-1.4 1.2.2.4zM1633.5 67.7l.1-.6-.5-.2-1.8-.3-.9.4-2.5-.3-1.3.6-1.5-.5-.4.4-.1.6 2.5.3 1.2.5 1.8.1 1.4.5.3-.8v-.5l1-.3z"/><path class="st1" d="M1640.4 8.9l-3.3.2-4.8.8-1-.1-.8.2-2.1-.2-2.5.1-.7.5-.4.5-.4.2-2-1.1-.3.1-.9.9-.7.4-2.6 1.1-.6 1.7-1.5 1.2-1.3.8-3.1 1.1-2.3 2.1 1.4.6 1.4-.1 1.9.2 3.2.7.7 1.5 1.2 1.3.9.4.1.8.1.2 1 .7 1.6.5h.8l2.1-.7h.6l1.2 1.3.7.2 3.8-.3.6.2 2.6.3.4.3.4.5 2.2 1 2.2.6h.9l1.5.3 1-.2 1.6.4.9.1 2.8-.5 4.3-.2.7-.3 2.7-1.6-.2-.7-.6-1.4-.4-.2-1.6-.3-1.4-1.5-1.9-1 .4-.2h.4l1.6.5h1l1-.8.3-.9-.1-1.2.1-.5.2-.3.1-.8.1-1 .2-.3.2-.3.5-1.1 1-.6-.8-1.1-.9-.8-.6-.3-1.3-.3-.5-.5-.7-.2-.5-.5-3-.5-1.8-.1-.5.2-.4.5.2.9-1 1.1-.6.1-1.4-.4-1.4.7-1 1.2-.5.3-.4-.2.3-1.2.9-.7.3-1 .7-.7.8-.3-.8-1.1-1.6-1zM1638.5 61.1l.2.8.6.6.7.1.4-.2-1.4-1.6zM1635.5 65.8l-.3.2.4.3-.1.9v.8l-.4.1.1.1.2-.1.8-.6.5-.9-.1-.2-.4-.4zM1688 28.8l.1-.6-.2-.7-.3-.2-2.1-.5-.6-.8-.6-.9-.8-.4h-.9l-1.7.4-1.6.8-.9.2h-.8l-.8.7-.7 1-1.1 1.1-1.2.6.3-.6 2-3.5.3-1.1.7-1.2.4-.3.8-.1.3-.3-.4-.5-1.8-.9-2.6-.6h-.9l-.4.3-.3.6v.9l.5.9h-.8l-.9-.1-.6-.8-.7-.9h-.4l-.8.2-.4.1-.2.6-.1.9-1.6.3-.8.5-.3.7-.7.5.1.4-.3 1.1-.4.3-.5.4-.2.8-.1.4.3 1.3.4.4-.5.1-1.8-.2-.7.1-.7.5-.9 1.1-.2.8v.8l-.3.6-.4.5-.2.5-.5 1.3-.3.7-2.3 1.5-.9.8-.8 1.5-1 .6.7.6.7.4 2.4.2 1.7-.2 3.2-1.1 3.4-1.4 1.1-.7 3.4-.1 3.4-.1 3-.3.4.3.5.2h.4l1.4-1h5l4-1.2"/><path class="st1" d="M1656.7 16.7l-.2 1.1 1.5-.2 1.2-.9-1.1-.2-.5-.3-.8.2zM1582.9 54l1.5-.1 1.1-1 .1-.3-.5-.5-2.3.2-.6.4-.4.6.3.3zM1146.6 447.1l-1.3.1v.3l-.5.2-.4.2h-.8l-.5.7.1.1.3.3 1.2.4.7-.8h.7l-.2.2-1 .7.4.5 1.6.4h.5l.6-.2-.3-.3-.1-.3h.3l.3.3.1-.1-.1-.5-.3-.5-1-.8.1-.5zM1136.3 458.8l-.5-.6-.2.1-.4.2.1.5.3.2.3.4.6.4.5.6.2-.5-.1-.3-.2-.5.1-.4zM1126.7 451.4l-.4-.9-.7-.6h-.4l-.8.2-1.1.7-.8.4.1.2h.4l.6-.2.8.2.8.4.7.5.7.6.3.4.3.2.5.2.2.9.8.4H1130.6v.2l.2.3.2.1.3.6.3.3.1.4.1.3.7.5.3.3h.4l.2.1.2.2.2.1.2-.1.3-.3.1-.8-.2-.2h-.7l-.7-.1-.6-.5-.3-.9-.3-1 .2-.4-.1-.3-.3-.3-.2-.5-.2-.2-1.5-.1-1.3-.6-.4-.1-.8-.3zM1136.5 462.9l.2.1h.1l.1-.8-.3-.1-.1.4zM1107.4 458.7l-.5.6.1.3.5.6.8.6.6-.5.6.2-.7-.8-.4-.3-.5-.1zM1123.7 472.8l.1-.3.3-.5-.7-.6-.3-.5-.2.2-.2.3.1.8.2.4zM1133.6 450.5l-.1.6.8.4-.1.1-.1.3h.2l.7-.2-.6-.6-.2-.5-.5-.3zM1135 466.1v.3l.2.3h.1l.3-.2-.3-.6h-.2zM1132.5 460.7l-.2.6v.6l.5-.4.3-.6-.1-.2zM1134.1 468.4l-.1-.5-.5.2v.1l-.2.1-.5-.2-.1.2-.1.5 1.4-.2zM1133.7 465.2l.3-.1v-.5l-.3-.2-.3.2-.1.4zM1135.7 436.2l-.4-.5h-.6l-.3.2-.5.6v.4l.9.5.9-.3v-.3l.1-.4zM1106.4 455l-.2.5-.3.1-.3-.3.1.2-.2.9v.3l.4-.4v.1l.2.3v.1l.1.5.3.1.3-.2 1.1.4.1-.2.1-.4-.7-.8-.5-.2-.1-.9-.3-.7-.1.1zM1133.3 462.3l-.2.2-.2.3.2.2-.1.6.4-.2.3-.5-.3-.4zM1129.9 448.6l.2-.6-.5.3-.4.7.4-.1zM1028.4 420l-.3-.1-.4-.2h-.4l-.3.2-.3.4-.4.1-1.2.3-.7.5-.5 1-.4.4-.2.2.2.1h.3l.3.5-.5.2-.2.4.1.4.4.4.4.2v.4l-.3.4-.3.3v.2l.4.1h.5l.1.4-.3.6v.3l.4.2.8.3-.1.3-.3.3-.2.4.3.2.3.3.8.4 1.3.7.4-.6.6-1.4.3-.4.1-.4v-1.6l.2-.4.9-1.3v-.3l-.2-3.2-.1-.3-.3-.2-.1-.4.2-1.2v-.4l-.1-.8v-.2l-.4-.4h-.3l-.2.7-.1 1 .1.4-.2.5zM1107 451.6l-.3.5-.2.8-.1.6.3-.1.2-.1.2.1.3-.1.2-.2v-1.3l-.2-.4zM1021.4 433.6l.2-.1.2-.4-.1-.1-.4.2-.3.5-.1.3h.3zM993.6 443.5l.1-.1.2-.5v-.1l-.6-1-1.2-.3-1.4.1-.1.2v.5l.2.1.7.1zM975.2 449.5l-.4-.3-1.5.3-.3.4v.4l-.3.1-.2.5.2.2 1 .2.3-.5.3-.1.9-.8zM985.9 442.3l-1.8.5-.8.5-2.9 1.9v.4l.2.2.4.1.3.4.5-.4.4-.2.5.1.3.3.2.8.2.2.7.1 1.2.5.5-.2.7-.4.3-.8.4-.6.4-.6.4-.6-.1-.5-.4-.1-.4-.1-.7.3-.6-.3.1-.4.2-.2.1-.2-.3-.2v-.1l.2-.3zM973.9 452l-.1.2-.1.3v.3h.7l.5.1.1-.1v-.2l-.6-.1zM1020.7 435.8v1l.3.4.5.4.4.4.2.5.6.7.8.5v1.3l-.5.5-.5.3-.2.5v.5l.6.1.3.5V444.3l-.2.1-.3-.3-.1.3v.6l-.1.6-.2.4-.1.3.1 1.5v.7l.5.8.5.6.3.4.3.2h.5l.6.3h.5l.6-.4.4-.6.3-1.6.3.3.3.1.4-.2h.4l.9.4.6.2.6-.2.1-.7.2-.8.5-4.6.2-.7-.1-.6-.3-.6-.1-.9.8-1 .2-.4.1-.4v-.5l-.8-2.1-.4-.6-.4-.2-.1-.2.2-.5.3-.1-.1-.1-.2-.1-.3-.2-.3-.4-.3-.4-.7-.3-.5-.1-.4-.4-.3.1-.1.5-.4.3-.8.3-1.2 1.3-.8.4-.9.4-.7.1-.8-.1-.3-.1-.5-.4h-.1l-.2.3zM1060.6 436.4l.1-.1.1-.2-.7-.2-.1.3.1.1.2.1zM1102.2 444.2l-.1-.3-.2-.2-.4-.1-.9.1-.4.3v.3l1.1 1.2.5 1 .6.4.9.2-.2-.4-.3-.1-.5-.2-.2-.3-.2-.8v-.1l-.4-.4.2-.2zM1107.3 454.4l-.2-.1h-.2l.2.6.4.7.4-.1-.2-.3-.2-.2v-.4zM1059.2 458.3l-.4-.2-1.3-.8h-.4l-.4-.2-.2-.4-.4-.1h-.9l-.7.5-.1.4-.6.3-.4.1-.3-.3-.9-.9-.2.3-.2.3-.5.2-.4.2-.4.9-.3 1 .1.4.5.8.8.6.4.2h.4l.8-.1.4.1.8.5.9.2.3.2.3.3.7.5 1.6.8 1.4.9.8.3.8-.1.8.1.8.4.8.6.9 1.4.4.1.4.1 1.1.5.8-.1.8.2h.7l.1-.3-.1-.4.1-.5.1-.4.3-.3.8-.6v-.4l-.1-.3-.3-.3-.4-.6.3-.2-.2-.4-.3-.2-.2-.2-.1-.3-.1-.6.3-.6.2-.5.2-.5.1-.5.2-.5 1.6-2.2.3-.4.4-.9.4-.4-.4-.2h-.5l-1.1.6-.4-.1-.4.2-.3.3-.4.1-1-.1h-1.3l-.4.2-.7.5-.9.3h-.6l-.9.2-1.6-.2-.8.2-1 .3zM1021.9 449.4v.5l.5.5.3-.8-.2-.2-.5-.2zM1036.3 419l-.3-.3-.2.3-.5-.1-.3.1-.8.1-.1.2.1.3.5.1.9-.2.6.4-.1-.5.2-.2zM1127.7 477.6l-.1-.3-.3.3-.1.9.1.9.2.3.3.2h.5l1.2-.1.8.2 3.2.5.9.3.8.3.2.2.1.3v.5l.4.2 2.8-.2 2.8-.4 1.5-.1h2.3l.6-.2.1-.4.1-.5.2-.8.1-.4-.2-.2-.8.4h-1l-.9.6-.4.5-.4.1-.3-.1v-.3l.1-1.1-.2-.2-1.1.2-.6.2-1.3-.3-1.3-.1-.7-.4-2-.2-.6.2-.7.2-.6.1H1132.5l-.3-.2-.1-.2v-.4l-.5.1-.4-.2-.1-.1.1-.1.5-.2-.2-.5h-.5l-.4.5h-1.3l-.4-.2-.2-.6-.2-.2-.1.4v.5l-.3.2zM1202.9 477.1l.6-.5-1 .2-1 .5-.5.2-.9.6-3.2.9-1 .1h-1.1l-1.2-.1-1.3-.3-.1.9-.3.7-.8.2-.4-.1-.4-.1-.7.2-.5.5-.6.4-.6-.3.1 1 .6 1.4.3.3.4.2 1.3.5h.4l.8-.1.3.2.2.4.5.1.1-.3v-.2l.2-.3.4-.2h.4l.9-.2.8-.2.7-.5 1.3-1.2h1.6l.8-.2-.2-.4-.1-.2-.5-.5-.2-.5.2-.7zM1146.1 469.3v.4l.4.2.3-.4.6-.1-.3-.4-.3-.1.1.3-.4.2zM1153 466.8l-.4.1-1.1.4-.7.6-.2.3h.2l.6-.3.8-.1.3-.2 1.1-.5zM1151 459.9h-.2l-.9-.2h-.6l-.7.2-.4.4.2.2h.8l.5.4.3.1 1-.5h.5l-.1-.5zM1151.3 466.4l.1-.1v-.2l-.2-.1-.3-.3-.5-.3.3.5-.1.6zM1156.3 474.6l.2.1.5-.2.8-.9.9-.2-.2-.5.6-.6.5-1.3.1-.5-.5.1-1.7.6-.7.6-.3.5-.4.3v.2l.3.6-.3.9zM1157.1 469.6l.1-.2v-.3l-.1-.2-.2.1-.3.2v.2l.3.3zM1139.8 468.8l.1-.1.2-.4-.8-.6-.2.3.2.3zM1141.6 438.1l-.4-.2-.8.3.8.7.8-.3-.1-.3zM1138.9 464.9l-.6.3-.3.6.2.3h.4l.6-.6-.1-.1.1-.4zM1143.3 440.2l-.9.3-.5.5.5.2 1.6-.2v-.3l-.4-.5zM1142.8 467.6l-.4.1.2.1.6-.1.9-.7.5-.2-.4-.2-.4.4-.6.3-.2.2zM1145.7 461l-.9.1-.6.5-.1.3h.3l1.2-.3.6-.4.4-.5-.1.1zM1145 453.8l-.7-.4-1.2.2.1.5.7.7.2.5-.2.4-.6.3.1.2.8.7.6-.5.1-.1.1-.4.3-.2-.1-1.3v-.1l.1-.5zM1152.1 478.6l.2-.5.4-.1-.1-.6-.4-.6.4-.6.1-.9-.5.3v.5l-.6 1 .3.7-.1.4zM1137.2 460.7l.2.3.2.2.7.6h.5l.2-.5-.2-.2-.9-.1-.4-.3zM1139.7 442.2l-.5.3-.3-.4h-1.2l-.1.2.1.5v.5l.4.2h.4l.2-.2.1-.3h.2v.3l.1.2.2.2h.4l.1-.7.2-.5.3-.3.1-.4-.5.2zM1127 458.3l-.3-.1-.1.1-.2.3-.1.1.1.2h.5l.3-.2-.1-.3zM1141.3 465.8v-.9l-.1-.3-.3-.1-1.1 1 .2.7.4.4.6-.3zM1140.6 470.9l-.1-.4-.4-.3-.1.1.1.2v.3l-.1.2-.2.1.5.2zM1140.4 462.5l.1-.1-.8-.3-.3.1v.6h.7zM1128.5 449.5l.3-.3-1.3-.7.5.9zM1136.2 208.2l.3-.4.7-.2-.1-.2-1.3-.3-1 .1-.5.4v.7l.9.2zM1450.2 188.9l-1.4-.2-.9-.3h-1.3l-.8-.2-.3.4 1.3 1.8 1.3.8 1.2-.1.3-.2.8-.6.1-.3v-.4zM1170.8 150.8l-.4.9-.3.5.2.3 1.3-.4.7-.5-.4-.4-.6-.4zM1430.2 156.4l.6-1-.2-.6h-.7l-1.3 1.1.1.2.4.3zM1212.5 206.5l-.3-.5-.6-.2-.8.5-.2-.1-.4.2.2.6.5.4h.4l.7.9.4-.3-.1-.4.2-.4zM1079.7 418l.3.2.8.2.9-.3.7.1h.7l-.1-.1-.5-.3-.9-.2-.9.2-1.3-.3.1.3zM1183.7 390.3l2.1.4 1 .1-.9-.4-2.6-.6-.4-.2-.5-.6.1.5.3.5zM1063.2 401.5l.5 1.2.2.8.4.4.1-.3v-.3l-.1-.3-.1-1.2.1-.9-.6-.5-.1-.4-.1-.7h-.2l-.3.2.4 1v.4l-.3.3zM1489.6 105.5l.5-.3 1-.9-.1-.1-.7-.2-2.5.5-1.4.8-.2.6 1.1-.3zM1084.5 419.2h-.3l2.8.8-1-.6-1.2-.2zM1077.7 415.8l1 .5.9.2h3.1l.5-.1-1-.1-2.5-.3-.3-.3-.9-.1-1 .1zM1080.3 415.2l.6-.2.2-.1-.4-.3-1.7-.3h-1l-.2.3v.2l.5.3.9.2zM1115.2 257.6l.7.5.5-.1-.1-.2-.5-.4.3-.1-.3-.3-.5-.4-.1.2.2.4-.3.2zM1106.2 261.4l.6-.1v-.2l-.3-.3-.5-.1-.4.1-.2.3.1.1.5-.1zM1112.1 256.5h.5l.1-.5-1.1-.7-.2-.4-.3.2-.1.2.2.8.4.4zM1111.2 226.5h-1.1l.5 1.1.7.6.4-.1v-.1l.4-.3.1.1h.2l.1-.5-.4-.2-.6.4-.4.1-.1-.2.1-.5zM1114.4 259.7v.6l.2.1.7-.4.2-.6h-.7zM1093 266.1l-.3.2-.1.4-.1.1.2.4.2-.3.2-.2.5-.4v-.1zM1099.8 259.8l.2-.1.3.1v-.2l-.3-.6h-.5l-.2.6.1.4.3.1zM1096.6 283.1l.2-.6 1.2-.4-.4-.2h-1l-.7.7.4.4zM1101.6 259.2l-.5.1v-.8l-.3.1-.4.1-.1.4.5 1.4.4.1 1.6-.1v-.6l.1-.3.2-.1.4-.1.2.1h.3l.4-.7-.1-.2-.4-.1-.1-.3-.6-.4h-.4l-.1.1h-.2l-.3-.1-.4-.5-.4.2-.3.3.2.3.3.1.1.2v.3zM1115.9 276.6l-.4.1.9 1.1-.2.4-.3.3-.2.2h-.2l.2.4 1 .5.5.4.6.2-.3.3-1.1 1.2-.1.4.1.3.6-.1.5-.3.5-.8.3-1.1.7-.6.9-.2 1.6.1.2-.3.9-.5.7-.5.3-.1.4-.3.3-.4 1.3-.1-.2-.3-2.2-1.3-1-.1-.5.1-.5.1-.5-.2-.4-.1-.5.2-1.1.3-.4.7-.4-.1h-.3l-.6.4-.5-.3zM1125.9 275.9l-.2-.7-1.2-.3-.3.2-.4.5 1.4.7.6-.1zM1117.6 272.7h1l.7.3.5 1.1-.1.5.5.2.9-.2.7-1.1.2.2.3.2.6-.5.6-.1-.2-.8-.5-.7-1.3-.3-.1-.2-.1-.4-.3-.1h-.5l-.5.6-.3.5-2.8.3zM1119.3 258.4l-.4-.6-.3.1-.9-.2-.4.1-.1.4-.2.3.4.3.4.2.1.3.4.2h.7l-.1-.2-.3-.2v-.4zM1114 260l-.1-.3h-.4l-.5.3-.1.2.4.3.6-.1zM1065.3 400.5l.1.2.4.4.8-.2-.5-.8-.2-.2-.5-.7-.4-.4-.3.6-.6.5v.1l.5.4zM1070.1 409.5l.4.4.5.1-.5-.6-.7-.4zM920.5 291.3l-.3-.2-.8.3.3.5.3.1h.3l.2-.1.1-.2v-.2zM920.3 298l-.2.2.1.3h1l2.7-.5.1-1.5-.5-.3-.7-.1-.6-.7-.5-.4h-.3l-.3.1-.7.3-.1.1-.1.3v.2l1.2.5-.3 1.3zM922.5 303.2l.1-.1 1.2-1.8.5-1.1-.3-.1-.2.2-1 .6-.2.4v.1l.4.2-.9.4-.2.3v.5l.1.2.1.2zM932.3 326.2l.1 1.1.6.8h.4l.3.4.6-.4.6-.4.8-.4.2-.4h-.7l-.3-.1-.8-.9-1-.1zM920.3 284.9l-.4.1-.1.6-1.7.4.1.1.3.3v.2l-.2.1-.3.1-.5-.1-.3.3-.1.2.2.3.4.5 1.6.4.6.8.3.4.3.2h.8l.9-.2.1 1.5h.4l.3-.1.8-.9.7-.5.2-.3v-.2l-.3-.2-1.2.1-1.3-.2-.2-.2-.2-.1-.1-.4-.1-.6.1-.5v-.4l-.2-.8-.5-.6zM920.3 305.1h.3l1.2-.5.2-.3v-.3l-.2-.8-.3-1.2-.6.2-.7.5-.2-.2-.2.1-.3.1-.2.2-.1.3v.3l-.2.6v.1h.3l.8-.7.2-.1.1.1-.1.4.2.6-.2.5zM918.4 294.9l-.6.6v.2l.4-.1.5-.4.3-.4h-.1zM894.5 321.1l.5.4v-1l-.3-.1-1-.1-.3-.1-.6.4 1.4.2zM933.5 316.6h-.2l-.6.2-.7 1.1-.6.4-.3 1-.3.4h.1l.5-.1.6.2 1.4-1.2.1-.3.4-.4-.3-1.2zM914.9 280.9l.3.1.1.1.3.1-.5.3v.2l.3.2 1 .5h.1l-.7.3v.3l-.9.5.5.7.2.3h.2l.3-.4.4-.6.4-.1.8-.8.7-.3 1-.8.2-.2v-.4l-.2-.1h-.8l.9-.5.3-.5h.3l.9-1.7.1-.8-.2-.5-.2-.1-.4.1-1.7 1.1-1.4.6-.2.2-.1.2.5.8v.1l-.6-.1-.5.2-.5-.4-.4-.1-.1.1-.1.2-.3.2-.1.4v.4z"/><path class="st1" d="M895 337.7l.3.2-.3.4-.6.3-.7.2-.6.4-1.1 1 .3.6.7-.1.2.3.9.1 3.4-1-1.1.5-.4.4-.3.1-.5.4-1 .6-.4.5.8-.1.8-.3 2.2-.4.4.1-.2.2-1.1.5-.9 1.1.7.1 1.4-.4.5-.1.5.1.5.2h.1l3.4-.8.5-.5 1.1-.1.7-.5.5-.1.4-.2.1-.5-.1-.5-.1-.3-.3-.1h.8l.3.1.2.2.5.4.6-.1.8-.4.5-.6.3-.1 1.2-.3.2-.2.3-.2.2-.4.2-.3.6-.2 1.6-.2h.9l.5-.2.3-.8.4.7.1.1.2-.2.6-.2.6-.1.9.3.9-.2.7-.4-.9-.9.4-.2.4-.3.9-1.3.1-1.1.2-.7.3-.7.4-.5.3-.6-.1-1.5-.2-.7-.4-1.3-.2-.6.2-.2-.1-.6.1-.4-.1-.7-.4-.6-.2-1-.3-.9-.3-.4-.2-.6v-.4l.3-.2.5.1.5-.2-.1-.3-.3-.3.7.2.7.1.5-.3.5-.7.1-.4.2-.3.8-.1.7-.3.4-.9h-.6l-.1-.1v-.9l-.1-.7.4.1.3.3.3.5.3.1.1-.5-.2-.5-.2-.7-.4-.4-1.1-.1-.4.1-.6.2v-.4l.8-.4.4-.3v-.5l-1.1-1-.8-1.1-.4-1.1-.6-.7h-.7l-1-.2h-.7l-1.5.5-.9.1-.5-.1-.4.1-.5.9-.5.4-.6-.1-.3-.4.4-.4.8-.4.6-.6-.7-.2-.6-.4-.6-.5-.5-.1-.4.1.5.6-1.1.1-.4.3-.1.6.2.4.1.6v.4l-.7.5-.5.2.5-.5-.3-.3.3-.3.2-.4-.1-.4-.3-.3-.1-.4-.3-.1h-.6l.1.6-.4-.1-1.1.1h-.3l-.9.3-1 .1-.2.4-.1.5-.5.3-.1.6.2.7-.6.5-.4.2-.1.3-.8.2-.4.3-.4.5 2.2.6 2.2-.3-.4.6-.3.7-.4.2-.8.2-.4.2-.6.4-.5.5.4.4.1.6-.2.1-1.1-.3-1.8-.2h-.2l-.5.6-.3.1-1.2-.8-1.7-.1-1.1.1-.7.3h-.8l-.4-.1-.4.2-.3.4v.5l.8-.3.3.5v.6l.6-.2v.9l-.3.6-.1.7 1.1-.3 1.2.1-.1.4.1.3-1.2.2-1 .6-.1.3v.3l.4.2.9.3-1.1.1-.8.3h-.5l-.3.1v.4l.4.3-.3.3v.3l.6.2.8-.1.7.1-.6.5.4.2.3-.1.5-.2h.6l.1.2.2.5.2.2.2.1.3.1 2.3-.2.8.2.7.2-.5.5-.2.2h-.2l-.6.1h-.7l-.4.3-1.1 1.4.3.1.2.3-.5.7-.4.4-1.5 1.2-1.3.7 1.1-.1 1-.4.2-.1.2-.1.7.2.5.1 1.5-.2.5-.3.8-.8.4.4 1 .3-1.9.6-1.9.4-1.8.1-.3.2-.9.7-.5.2-.5.4.4.2.1.8.5.4-1.2.1-.4-.2-.5-.1-.4-.1-.6.1-1 .6-.2.3v.3l.9.1zM912 292l.6-.1.1-.2-.1-.1-.3-.2-.5.1-.1.3v.2zM913.2 286.3h1l.6-.9-.8-.6-.4.3-.4-.1-.5.2-.3-.1h-.2l-.2.2-.1.2v.1zM912.6 289.7l.2.6.3.1.3.1.3-.1v-.1l-.1-2.4-.2-.1h-.8v.8l-.1.7zM955.6 393.7l.2-.7-.7-.9-.6-.4v.2l.1.5.5.6zM946.6 361.6l-.1-.1h-.1l-.8.4.1.1.6.2zM949.7 364.5l.4-.1-.1-.4-.5-.2-.9-.1-.1.8.5-.1h.5zM955.3 351.8l.4-.1.1-.1.2-.4.6-.3-.5-.4-1.2-.3-.5.3-.9.3-.4.3h.4l1.4.7zM1066.3 402.8l.7.3-.2-.4-.5-.5-.1-.2h-.4l-.1.2-.1.2.1.2zM1069.6 408.6l-1.2-.8.1.2.3.3.9.6zM1067.1 404.5l.2.5.6.5.3.3.4.3.5.4.2-.2.1-.1h.2l-.9-.7-.7-.9-.8-.6-.3-.1-.3-.2-.4-.4.1.2zM1068.9 409.9h.1l.3.1.1-.1-.1-.1-1.7-1.6-.6-.5.2.4zM927.4 306.5l.3.1h.9l.1-.4-.1-.8-.4-.9-.2-.2-.4-.3-.5.1-.2.2-.1.2-.2.5.4 1.3zM947.1 268.9l.2-.3h-.9l-.5.1-.4.6h.8zM941.3 273.9h.3l.4-.2h.1l-.4-.2-.1-.1v-.3l-.3-.5-.6-.1-.2.1-.1.3.2.4z"/><path class="st1" d="M924.8 288.3l.2.4.4.6-.2 1.3-1 1.4-.8.4v.1l.9.5-1.1.7-1 .2-.7.4v.1l.5.2h.6l.2.8.5.5.7.2h.8l.6-.3 2.4-1.8.2-.1-.4.7-.4.7-.2.6-.4.4-.3.9-.4.7-.3 1-.1 1.1-.4.8-.1 2.3.1.2h.2l.5-.1-.7.8-.3.5-.2.4-.2 1.8.1.4v.6l.5.1.1-.1.2-.1.2-.4 1.2-3.7v-.5l-.3-1.2v-.2l.1-.2.2-.3.7-.7 1.3-1 .6-.3-1.2 1.1-.3.5-.2.6v.7l.1.4h.1l.2-.4h.4l.1-.2.2-.4.8-.2.3-.2.5-.8.3-.3.1-.1-.3.7v.3l1.2.8.6.3h-1.5l-.2.1-.3.5-.1.9v.8l1.1 1 .3.4.1.5-.3.8-.5.6-1.2 2-.7 1.5-.4-.2-.4.3v.6l.3.6.7.9.8.7.2-.8.3-.5.2-.2 1.2.5.9.3.7-.3.8-.4.3-.1.3.1.2.3.3.2.4-.1.8.1.5-.2.4-.4.4-.2.4-.1.4-.2.8-.5.8-.1h2.4l.3.1-1.6.4-1.3 1.3-.9 2 .1.9 1.1 1.5.7.7 1 1h.4l.4-.3.4-.1.9-.1.2.4-.2.9-.2.8-.9.5-.1.6.1.6.3.3.4.1-.5.7-.4.7-.1.7.7 1.1.4.4.5.2h.3l.3.2-.8.1-.3-.1-1.1-1.1-.7.3.5 1.2-1.6-.8-.7.1-.7.3-.8.1-.8-.1h-.3l-2.1.8-1.1.7-.4.4-.3.4-.3.4-.8.5-.8.7-.3.4v.4l.7-.1.8-.5.8-.3.9-.1.9-.1-.1.5-.1.4.4.6.2.5-.2.4-.1.5.2.4.5.2-.5.6-.3.8-.4.6-.5.4-1.1.8-1.2.4-2.2 1-1.5.4-.6.4-.6.7.4.2.3.4v.7l.3.3 1.5.7 1.3-.5.8-.5.5-.1 1 .1.4.3.3.2 1.3.2-.6.3-.4.5.9.1.8-.2.3-.1h.4l.9.5 1.4 1.2 1.9.2.2-.1 1.2-.9.7-.4 1.7-.4.5-.4.9-.6.7-.4-1.1 1.2-.6.6-.8.6-.6.6-1.1 1.5-.7.3-.8.1h-.8l-1.6-.3h-1.7l-2.1.3-.2.1-.8 1.5-1.6.4-.1.7-.1.7-.2.4-1.9 1.8-.2.4-.5.1-.3.3-.3.4-.7.7-1.3 1.1-1.6.5-.6.5v.5l.2.3.5-.3.8-.2.8.2.7.5.7-.1.5-.9.3-.2 1.3-.9.6-.3 1.5-.4.9-.2h.6l.5-.2.2-.1h.2l.4.4 1.4.6.8.5.8-.1.6-.8.4-.9.3-1.1.6-.8 2.8-.7.7-.1.8.2.9.3.7.5.8.1.3-.3h.3l2.2.3h.2l.3-.2-.3-.4-.2-.5 1.1.1 1.3-.2h.6l.6-.1 1.2-.7-.5-.7.9.4 1 .1.9.3.9.4h.6l2.4-.4h1.7l2.8.5.7-.2.8-.4.8-.3 1-.3.6-.4 1.3.1.2-.4.4-.7 2.2-1 .3-.2.1-1.2v-.5l-.3-.1h-.8l-1.7.1h-.9l-1.4-.2-.2-.2-.4-.5-.5-.2-.7.2.6-.3.6-.2h.7l.7-.2.7-.3.2-.7-.2-.4-1-.3 1.4-.7 1 .2.6-.2.6-.4v-.5l-.3-.4v-.3h.3l.3.2.7-.4 1-.8.2-.3.2-.4.2-1.1.4-.8.3-.9v-1l-.2-1-.4-.7-1.9-1.3-.8-.2-1.5-.4-.7.1-.9-.2h-.8l-1 .1-.3.2-.6.8-.4.3-.3.1h-.4l-1.6-.9.5-.6.6-.5.7-.5.3-.7-.5-1.7-1-1.2-3-2.1h-1.3l-1.2-.3h.6l.8.1 1.3-.2.7.5.7.3.3.1h.4l.3.1.3.2-.7-1.3-.9-1.1-.4-.8-.2-.7.3-.6.5-.3-1-.7-1-.8-1-1.1-1.1-1.1-.6-.3-2.7-1.1-.6-.5-.4-.6-.9-2.4-.7-2.3-.6-2.2-.3-.7-.5-.5-.7-.5-1.3-1.3-.9-.9-3.1-1.3-1.7.1-1.2.6-.3.1-3.8-.6-.7-.3-.6-.5.7.3 1.5.3h.8l.6-.1.7-.4 1.3-1.1h1.5l.6-.5.2-.7-1.6-.7h-1.4l-.8.3h-.8l.7-.2.6-.4.6-.3 1.8-.3.7-.3.6-.4.6-.8.6-.9 1.1-1.3 1.2-2.3.2-.5.1-.6.2-.5.6-.9.7-.7.3-.5.1-.2-.7-1.2-.6-.6-.8-.3-1.2.3-4.2-.2-.6.1-.7.1h-.3l-1.5-.3h-.7l-1.6.4-1.6.7-.9.1-1 .1.4-1 1.3-1.1.2-.3-.3-.2-.9-.1.1-.7.2-.4 1.5-.9 2.5-1.9 1.4-.8.5-.6.2-.3.1-.2-.1-.9.4-.7.1-.3-.1-.2-1.4-.1-1.4.3-1.4.1-1.4.3-2.3.2-1.6.5-.5-.6-.3.1-.9.5h-.3l-.4-.4-.3-.2-.8-.2-.3.1-.3.1-.3.5-.1.3v.7l-.1.4.1.3.3.5.2.4-.4.1h-1.4l-.5.1-.1.3v.7l-.4.7.1.3 1.5 1.3.1.3-.9-.3h-.2l-.2.3h-1.8l-.4.5-.2.5-.3 1.1v.2l.2.4.2.3.7.3-.7.2-.5.3-.3.3-.1.3.1.5zM943.4 274.1l.2.2h.1l.1-.6.1-.3-.3-.1-.7.1zM940.9 272h.2l.4-.3v.4l.1.2.2.1.2.1 1.2-.2.9.5.3-.1.2-.1.2-.5-.3-.3h-.5l-.8-.2h-.5l.1-.2.2-.3v-.2l-.2-.2-.7-.4-.6-.1-.5.1-.2.7-.1.5.1.3zM943.4 268.9l.7.3.1.6.3.2.6-.2v-.4l-.6-.2-.4-.5-.7-.6-.5.2-.1.1.3.3zM1092.1 270.6h-.1l-.5.2-.1.2-.2.4.1.1.3-.1zM1063.4 171.6l2-.3 2-1.3.8.3.4-.1.6-.2.7-.8h.4v.6l.7.2 1.7-.7.5-.8h.6l.2.3.3.2.4-.1.5-.7 1-.9 1-.4 1.3-.7.2-1-.5-1.1-.4-.4-.6-.5-.4.1-.3.2-.6.1-.2.6.1.6-.4.4-.1.4-1.1.3-.9 1.2-.1-.1.2-.7 1-1.3-.1-1.1-.1-1-.5-.7-.1-.7 1.2-1.1.9-1.3.1-1-.6-.6h-.6l-.5.6-1 1.5-.6.5-1.2 1.1-.3.8v.7l.6.1.3.5-.6.8-.5 2.3-2.2 2-3.5.5-1 .7-1.3 1v.8zM1056.5 173.5l.3-.1.1-.5.1-.2.5.4.6-.5.5-.1h.9l.3-.2.4-.6 1-.2.5-.4.1-.3-.2-.1h-1l-.5-.2-.6-.1h-.6l-1.1.3-.7 1h-.5l-.4.1-.3.4-.4.4.2 1.1z"/><path class="st1" d="M1064.6 166.2l.7-.1.9-.5.3.1.1.4.6.3.9.1 1.4-.1.9-.7.3-1.3-.4-.8-.9-1.2-.2-.4-.4-.3-.3.1v1.2l-1.3-.2-.3.3v.5l-.3.7-.5-.1-.3-.2-.9-.1-.4.6-.9.7.2.6zM1082.3 161.2l.1.4.5-.2 1.2-1.2 1.1-.8.5.4 1.5-.1 1.2-.3-.2-1 .1-.6.6-.3.4-.5-.2-.8-.3-.5-.6-.1-.4-.4-.6-.3-.7.1-.4.2-.8-.7-.1.2v.2l-.2.4-.7.1-.7.3-.2.3 1 .5.1.2-.2.5-1.9-.3-.6.5v.4l-.2.5.2 1.2-.2.6-.9.3-.2.2v.3h1zM1054.6 174.4l.2-.2v-.6l.1-.5-.3-.3-.8.7-.6 1.1-.3 1.2 1-.7zM1100.6 147.6l.2.7.3.4.8.1.7-.1.6-.3v-.4l-.6-.2-.6-.7-.3-.1-.4.1-.3-.2-.6-.7-.6.1.1.6zM1090.6 155.3l1-.2 2.6-.3.1-.4v-.4l.7-.8.7-.6.9-.7.4.2 1-.3.7-1.1 1.1-.7.1-.6-.8-.4-.3.1-.2.3-.5.1-.7-.7v-1.4l-.3-.8h-.5l-.5 1-.1.4.2.6-.2.5h-.5l-.6.4-.5.6-.9.8-.1.4.2.5-.2.5-.3-.4-.3.1-.5.4-.7-.1-.4.2-.3.6-.3.2-.3.3v.5l-1 .1-.1.3.4.5zM1089.9 289.5l.3.8.5.5-.5.7-.4.8.7-.1.6-.4.3-1.1.7-.7.4-.4 1.1-.4.3-.8.3-.4.4-.2.4-.1-.8-.9.2-2.2.4-.2.5-.1.3-.7.6-.3-.8-.6-.4-.2-.4.2-.3.6-.6-.3-1.2.4-.9.7-.9 1-.5.4-.5.6-.1 1 .2 1.1-.3.7zM1050.5 197.1l-.4.4v.4h.6l1.4-.7.5-.3-.3-.2h-.7l-.6.1zM1018.7 226.2l.8.1h.6l.3-.3v-.7l-.5-.4-.9.2-.9.4v.3zM1106.3 148.6l.5.1.3.2.5-.1.4-.3.3-1.4-.2-.2-1-.1-1.1.3-.5.6-.1.4.4.6zM1022.7 222.7l2.2-.4.2-.2-.1-.5-.3-.4-.2.1-.2.3-1.7.4-1.2.5.5.3zM1051.2 196l.3-.6v-.6l-.7-.4-.4.3-.2.4-.2.3-.5.5-.1.5.7-.1zM1046.5 201.4l.4-.4.3-.6-.2-.2-.7-.1-.5.3-.3.6.1.3zM1040.7 209.6l.8.3.3-.4.1-.4-.8-.8h-.7l-1.5.6-.5.6.7.3zM1259.8 188.9l.2-.1-.1-.4-.4-.5-.6-.2-.6.1v.2l.1.4zM1332.3 134.1v.1zM1321 129l.6 1 .7.6.8.4.9.2 1.7-.2 1.6-.6 1.8.4 1.6.2 3.2-.6.3.1-.6.7-.1 1 .7.7h.7l.7.1-.2.5 2.1 1.2 1.8.9-.4.3-1.2-.4-.6.1.2.7-1.3-.2-.6.4v.7l.2.6v.5l-1 .1-.6.4 2.3.7 3.3.6 1 .3 1.3.6.5.2.1-.4.2-.4 1.6.8 1.3.2h1.2l3.2-.4.1.3v.4l.6.3.8-.1.2-.3 1 .4.2-.4.2-.1 2 1.2.5-.1.4-.3-1-.9-.6-.2-.5-.4.9-.3.9.1.4.4.3.5.2.1 3.5.7.7-.2.1-.3 1.3-.4 1.2-.8-.5-.5-.5-.3-2.9-1-1.2-.7-3-2.2-2.9-3-1.5-2.1-1.5-2.3-.4-1.2-.5-1.1-1.2-.8.5-1.1.2-1.1.6-1 .2-.5-.8-1.2-.1-.8-.2-.4v-.8l.4-.4-.1-.6.3-.4 1.2-.3.6-.9.1-.7v-.5l.7-.2h1.8l.3-.3.3-.6.2-.8-.2-1 .1-.6 1-1.1.5-.3.2-.9-.5-.3-1.5-.4-2.4-.1-3.3-.6-1.4-.6-1.2-.4h-1l-.8.2-2.5.9-.8.3h-.8l-1.6-.2h-.7l-.9.5-.8.2-1.1.2-.7.6-.4.4-.1.6.4 1.2v.5l.9.8-.8.1-.8-.1h-.8l-.8.2-.7.3-1.6 1.1-.2.3-.1.4.5.4.5.3 1.7.2-.6.6-.1.4.3.5-.8.9-.2.6-.1.6-.3.7-.3.5-.2.2-.9.4-.4.7-.5.6-.6.3-1.2-.1-1.3-.2-.5.1-1.1.6-.5.3-.7 1.2-.3.6-.1 1.4.1.6zM1424.5 140l-.2.2-.1.4.1 1.4.3.7.4.6.4.1-.1-.5-.7-1.9v-.9zM1377.3 153l.6.2.7.1h.7l.7-.2 1.3.3.8-.3.8-.1.3-.9V151l-.2-.6-.4-.3-1.6-.8-1.4-1-2.3-1.1-.7-.7-.7-.7-.8-.6-1.6-1-.2-.3h-.3l-1.5.4-.8.9-.4.1-.7.4-.3.6.6 1.4.3.3.2.5.3.5 1.9 1.9.3.1.6-.3.4-.1.9.3.8.1.8.3.5.9v.6zM1479.9 112.8l1.1.3.3.3.2-.2.2-.4-.2-.3-.1-.5.6-.8 1.6-.4-1.7-.6-.9-.2-1.3-.1-1.4.3-.4.4-.3.7.5.6z"/><path class="st1" d="M1339.7 104.4l-.5.8 1.1 1.8 1.9-.9 1.4-.4 1.6-.1 1.9.8 1.9.5 3.4.1 1.3.5 1.4.2 1.4-.1 2.3-.8 1.2-1.9 2.2-1.4.6-.6-.5-1.2-1.2-.9.1-.3 1 .2 1 .6.4.1h.7l.6-.5.2-.6-.1-.6-.5-1-.1-.6 4.7-1.5 1.2-1.3.3-.9-.1-.5-.6-1.3-.4-.5.2-.5 2.7.5.8-.3.4-.3.3-.6.1-.8.2-.8.4-.3 2.4 1 .6.1.5-.4.2-.3-.3-.5.1-.7 1.6.1.7-.2 1-.5.5-.6 1-.5.4-.4-.3-.6-1.5-.3.3-.5 1.3-.7h1.3l.4-.2.8-.6.7-.7 1.5-.8.7-.8.8-.5.9.1.9-.1 3.1-1.5 6.8-2.1 1.8-.4 2.4-.9h.8l3.4-.7 3.3-1 3.2-.7 2.9-.9 4.6-1.1 2.6-.9 1.6-.3 1.7-.6 1.6-.7 2.8-1.1 2.7-.7.4-.4 2.4-1.9 2.3-1.7-.3-.6.3-.7.3-.7-.2-.7-.2-.4-1.3-1.2-1.4-.9-3.3-.8-2.5-.3h-.8l-1.9.6-3 .6-3.4 1.5-1.9 1.1-.7.8-.7 1.1-.7.5h-.9l-.7.1-1.5.7-.8.3h-.9l-.8.2-1.7.8-1.7.7-6.5 1-3.9 1-1.3-.1-2.1.2-1.6-.1-3.2-.7-1.5-.1-2.5.2-.3.1-.9.6v.9l.2.7-.4.4-.4.3h-1l-.5-.5-.8-.1-2.3.2-1.1.4-.6 1.2-1.8.5-3 .6-1.6.4-.8.1-.8.2-1.6 1.1-1.6.8-2.5.8.1.6.1.4-2.1 1.2-.5.7-.6 1.3-.1.3-2.1-.5-1.5-.1-.7.1-1 .3-.3.3.2.7.3.5-2.1 2h-.6l-.7-.5-.7-.4-.8-.3-.9-.1-.8.3-.8.6.1.5.3.5.9.7 2.4-.1.6.5.5.3-2 .8-2.1 1.4-1.7 1.9-.6.4.2.5.4.4.6.2h1.4l1.3.6-.4.2-4.6.7-.5.2-2.2 3.1-.8.8-.6.4-.7.9-.6 1-.2.1-1.6.2-1.4.7-1.5.8-.8.3-.6.5.5.9zM1450 110.8l1.2.2h.6l2-.7 1.5-.3 3.3-.6 1.8-.1.1-.7-.3-.7-1-.8-.7-.4-.8-1-.6-.4-.8-.4-.6-.1-4.1.5-1.4.4-1.1 1.2.2 1.7-.2.8-.4.5-.1.6.8.6zM1298.9 162.5l.8 1.6 1.6.9 1.7-.2 1.9-.4 3.1-1 1.4-1.3.6-1 1.2-.9.3.4.2.7.4-.1.4-.5-.1-1.2-.7-.8-1.2-.7-5.3-2.4h-1.9l-.8.2-1.4.7-1.5 1.1-.7.9-.2 1-.1 1.1v.7l.1.6zM1128.4 142.7l.7.4 1.3-.5.5-1-.9-.6-.7-.2-.1-.2-.4-.2-.6.3-.2.6v.9zM1141.3 137.7l1.2.1.2-.1 1.5-.2.9-.2.1-.6-.5.1-.9-.9h-.6l-1.9-.5-1.1.6-.8.5v.3l1.2.2zM1332.8 135.2l-.1-.7-.4-.3h-.5l-.5-.7-.6-.9-.9-.4-.3-.1-.1.2.1.4-.8-.3h-.7l-1.5.3-.4.4v.5l.3.2 1 .4.8-.1 1.3.8.4.9.3.3.8.4.4.6.1.5.7-.2-.1-.2-.4-.4.1-.4zM1124.5 143.2l-.9.4-.3.5.2.4v.4l.3.4.4-.3v.2l-.1.8.4.1.8-.1.5-.3-.1-.2 1.5-.9.6-.7v-.5l-.1-.6-.3-.5-.2-.3-2.1 1.4zM999 257.5l-.4-.7-.3.1-.1.3.1.8-.1.7.1.3.3.5h.7l-.1-1.2zM1117.6 142.7l1.4.6h.5l.8-.1.4-.2.3-.3 1.2.2.4-.1.3-.3 1-.2 1.6-1.6.6-.4.2-.4.2-.4-.4-.3-.8.3h-.5l-1.7 1.3-.7-.2-2 .4-1-.1-.5.6-.8-.1-.5.1h-1.2l.5.5zM998.4 250.3l.1-.7-.5-.5h-.3l-.3.2-.2 1 .5.1zM1039.8 288.5l-.4.5.9.3.3-.2.2-.3.6-.4-.6-.1zM1038.7 309.6l.2-.6-.2-.7.3-.5-.6-1.2-.3-1-.3-.5-.2-.1-.8.6-.6-.1-.5-.3-.4-.1-2 .7-1 .2v1.5l.5 1.2.3.3.1.4 1.9.7 1.3.4 1.2-.1zM1040.8 315.4l-.3.1-.2.5.4.1.4.4h1.1v-.2l-.4-.6zM1035.7 311.8l-.6-.4-.4-.1.1.2.9.8.5.2.4-.1.2-.2-.6-.3zM1051.1 305.6l.7-.4-.1-.5-.2-.3h-.2l-.2.3-.3.3.2.6zM1044.3 314.1l.6.1.6-.2v-.9l-.2-.3-.5-.3h-.8l-1.3-.5-.7-.6-1.4.1-.1.4v1.2l2.9 1.3zM1050.4 310.8l-.4-.2-.7-.1-.2-.2-.1.4-.3.3-.4.2-.1.1-.2.4.4.2 1.2-.6 1.1.1.3-.2-.3-.3zM1068.3 310.9l.3-.2.3-.6v-.6l-2.6-1.4-.3.5-.2 1.3 1.4.7z"/><path class="st1" d="M1042.1 303.9h-.3l-1.2-.1-.5.2.2.7.4.2.4.3v.6l.4.7-.1 1.3.8 1.2h.2l.6-.1h.5l1.3.2.3.9v.5l.2.7.1.5.8 1.4 1.3-.4.1-.9.1-.7-.1-.8.2-1.2 1.6-.4.6-.5-.2-1-.7-.2-.5-.5.2-.7.6-.5.6-.3.7-.2.2-.2.2-.2v-1l-.3-1.3.1-.4.5-.7-.2-.3-.4-.2-.7-.2-.7-.2-.7.1-1.3.6-1.2.8.4.3.1.4-.1.7-.2.2-.2.3-.3.7h-.2l-.7-.3V302.2l-.4-.5-1.1.2-.1.3v.3l-.9 1.2zM1055.2 317l.2.3 1.2.8.4-.1.4-.8h.8l.8.5.2-.3-.2-.6-.7-.4-.2-.4.2-.2.4-.5-.1-.2-.1-.2-1-.3-.3-.3-.2-.5h-.6l-.6.6-.1.5-.4.4v.3l-.1 1.1zM1032.1 310.4l-.3-.1h-.1l.3 1.5.6.1.4.2.7-.1v-.2l-.4-.8zM1082.4 288.3l-.4-.1-.2.2-.3.7-.4.8-.2.8-1 1.8-.7.3-1.5 3-.1.8.1 1.7.2.7h.3l.3-.5 1.8-5 .4-.4.3-1.4 1.2-2.2v-.7l.4-.4zM1036.9 303.4l.5.2.1-.2.1-.5.3-.4-.2-.4-.6-.7-.2.3.2.5-.2.6zM1038.1 313.3h.3l.2-.5 1.1-2.5.2-.9h-.2l-.5 1-.8.9-.3.5-.5.5.1.3zM1022.7 313.2l-.4.2-.1.2.4.3h.6l.3-.2-.1-.4-.4-.1zM997.2 329.8l.6-.7V328l-1 .9-.2.5.1.2zM989.8 341.9l.6-.1 1 .6.8-.2v-.2l-.2-.1-.6-.5-1.2-.1-.6.2v.1zM998.1 327.6l1.3-.7h-.6l-.8.6zM1010.8 323.9l-.6.2-.2.2h.7l.4-.4zM1007.6 324.9l-.9.2v.1l.2.1 1-.3zM1022.2 310.8l.4-.4h-.4l-.7 1.4-.1 1.3.2-.2.2-.5 1.8-.2.2-.2-1.7-.1-.1-.3.1-.5zM1002.7 325.7l-.2-.1-1 .1-1.5.4.2.1h.7zM1005.1 325.5v-.1l-.4-.1h-1.2l-.3.1v.1l.5.1z"/><path class="st1" d="M1686 45.5h-1.1l-3.1 1.7h-1.6l-1.4.3-3.6 1.8-7.6 4.5-1.6 1.4-.7 1.1-1.4.5-.6 1.3.1 1.1.6.6.6 1.1-.6 1.3-.5.8.5.4 1.5-.1 3.3.7-.6.7-2-.6h-1.7l-1.5-.7-3.6.7-2.7-.2-2.5.3-4.9-.5-.4.4 1.1.7.9.7 2.5 1.6 1.1.5 1.4 1.5.2 2.9-.8.7-.9 1-.5.2-.7-.1 1.1-.7.6-1.5.6-1-.7-.7-.3-.1-.4-.4-2.6-1-1.4-.4-1.5-.2-.8-.3-2.2.9-1 .2-1.2.5-.7.6-1.7.1-.2.7-1 .7-1-.8-1 .2-2.3 1.2-2.6.6.3-.4.4-1-.6-.2-4 1.1-1.3.8-.6-.3 2.3-1.6.6-1-1.1-.4-2.4-.3h-1.5l-2.2.4-3.2-.5-.5.6-.8.1-2-.3-1.8.3-1.3.7-2-.7h-.7l-1.1 1-.9-.7-.8 1.3.2 1 .7.1.6-.1.3-.4.4-.2 1.6.8.5-.4.7-.3.8.5 3.3-.5-.6.6-3.6.8-6.6 1-1.4.4-3.9.2-2.5.9h-3.3l-5.7 1-4.1 1.9-2-.1-4 1.4-1.6 1.1-5.8 2.2-3.5-.9-1.1.3-.6.8.1.6 1.4-.1 1 .3 1.3.5-.3 1-2.6 2.2-1.2.8-1.5.5-3.1-1.8-.6.8-.4.4-1.2-.2-.6 1.3 2.3.2 2.1.6 1.9.9 1.3 1 1.5.6.8.5-2.3.5-1.6-1.2-.9-.4-1-.1-1.5.4-1.3 1.4 1.2.5 2.7.5.9.7 3.6 4.2.9.4 1.2.2.5.3-1.4.7-.5.7-1.2 1.2-5.2.6-1.5.5-.4.2-.6.4-.4.4-.2.9.4.6 1 .5 4.1 2.4-.3.3-1.1-.4-1.4-.7-1.4-1-1.9-.7-.1-.6-.1-.9.1-.3.2-.4 1.9-1.1 1.9-.5 2.3-1.3 2.3-1.4-.5-.5-.5-.4-2.1-.1-4.2.5-2.5.5-1.1 1.2-1.7.2h-.9l-2.4-.6-2.2.5-5.2.5-.8.3-12 .1-2.4.2-6.1 1-.2.7.2.5-.9.8-.4.8.1.9v.8l.2 1 .4.9.9.5.8.3.6 1-.5 1.2-.7 1.3-.1.6.4.8.5 1.7.2.4 1.9 1.3 1.3.4 2.1.1 1.4.3 2.1.8.6.4.2.3.5 1.4.3.4 2.3 1.9.8.3 3.1.4 1 .6 1.3 1.8.1.4.1.7-.1.6-.1.4-.5.6-1.3 2.4-.8 2.2 1.3 1.4 1.7 2.8.5 1.2.6 1.6-.2 1-.3.6-1.1.9-1.4.3-1.5.6.1.7.3.8-.2.6-.2.2-.8.1-.7-.2-.6-.6-.6-.8.4-.8 1.2-1.5.8-2.1.2-1.4-.1-1.5-.3-1-1-.7-.9.2-1 .7-1 2.5-1.3 1.8-.2.8v.6l-.1.4-.3-1.4-.1-1.1.7-1.4.5-1.3-.1-.9-.5-1.5.1-.7.2-.5.3-2.1 1.2-.4 2.9-1.6.4-.4.9-1.4.4-.5.5-.8-.9-.7-.8-.4-1.6-.2-1.5.1-3.2.7-2.9-.1-1-.4-4.5-2.9-.3-1.1-.4-.4-.4-.1-1.6-.7-3.6-.9-3.7-2-6.5-.2-1.8.2-1.8.6-1.6 1.3-.7.4-1.1.1-.2.5-.2.6.6.5 2-.5 1.6.3.9.6.6 1.2-.3.6-2.8.9-1.6-.1-3.4-2.1-1.3-.4-3.1.3-2.1 1-.6.2.5 1 .8 1.9.7 1.1.8.5 3 1.3 1.7.5 2.5 1.2 1.6.1 1.4-.3 2.1.7 1.2 2.3.7.8.7.4.9.2h.5l.6-.3 1.3-.1-.5.6-.5.2-2.9.3-1.4-.2-1.8-.7-3.3-2.3-4.1-.2-.5.7-1.3-.9-4.4-.2-2.6-.6-2.8-1-.2-.5-.1-.7 1-.8.4-.5.2-1.5-1.8-2 .2-1.9.8-.3 1.1-2.4.7-.8.3-.3.3-.5-.3-.7-.3-.4-.4-1 .1-.7v-.9l-.9-1.4-.7-1.5-1.5-.7h-1.4l-.5.2-.5.3.8 1.3.8 1.2.4.9.3 1.7-.1 2-.3.8-.4.7-1.3.9-2.2 1-1.2.5-2.6.5-1.9.9-4.1 5.1.5.8 1.5.8 1 .7.5.6 1.1 1.9 4 5.2.2.9-.9 1.7-1.9 2.1-.7 1.2-1.8 4.6-.1 1.2.7 1.1 1.2 1.4.4 1-.8 2.7.4.7 1 .3 2.7-.4 3.1.6 1.7-.3 2.5-1.5 1-.2 3 .2 4.5 1.4 4.7 1.9 1 .6h1.3l.9 3.3.8 1.8.4 1.3.3 1.4-.9.3-.8.1-.6.4-.9 2.2-.1 1.2.5 1.9 4 .9 2.8.5 1.9.1.3.2.2.3-2.3.1-4.2.2-1.5-.1-.7-.2-.7-.6-1.3-.6-.5-.4-1-.5.5-1.9.1-4.4-.2-1.8-.9-1.5-2.6-2.2-.9-1.4-1-1-1-.2-1.4.2-3.6.9-3.2.5-3.8 1.3-.7 1.1-.6 2.8.8 1.4.8 1 .8 1.7.3 1 .1 1-.1 1.5-.6.8-4.2 3.3-.6 1-.7 2.8-.6 1-1.9 1.6-1.2.6-6.4 2.8-.2.6-.4 2-1.8.9-1 .1-2.4-1-1.4-.3-1.5-.1-5.6.3-2.5-.7-2-.9-2-.3-1.5-.8-.4-.7-.4-.9-.3-.5-.3-.3.5-.3 1-.1 3.6.2.9-.4.5.2 1 .9 1.3.8 1.1-.1.9-.6h.4l.4.1-.8.5-.9.4-.2.2-.2.5 1.2.6 1.1.3 1.5-.3.9-.6 1.9-.9h1.4l.1-.9-.7-1.4-.6-1 2.1.3 1.2-.8 5.2-6.7 2.4-1.3.8-.8.6-1.2.2-1.3-.3-1.4.1-1.1.9-1.3 1.4-1.6.9-.6-.1-.6-.2-.5-2.5-1.6-2.6-1.3-.9-.7-.7-1.1-.3-1.3v-.9l.2-2.7.4-1.3-.1-3.8-.5-4.7-.4-1.3.6-.9.6-.7.3-.7.2-4.6-.2-1.8-.9-2.4-3.5-2-1.5-1.9.1-.7.2-.5 1.5-.8 1-1.1.7-1.6 1.4-2.4.4-.9.9-3.4.2-1.8.2-2.7-1.2-.7-1.3-.6-2.4-.5-1.2.1-2.2-1.1-.8-.2-5.9.3-3.4-.1-2 .2h-1l-.6-.2.1-.5.3-.3-.1-.3-.6-.1-1.5.3-2.4 3.7-1.4 3.6-1.5 4.9-1 2.1-1.4 2.2-2.2 1.7-2.9 1.7-1.9.8-2.5.8-1 1.8-.9.7.4.5 1.1-.3-.6 1.3-.6.8.1.5.2.6.8.3 2.2-.5.5.5.5.7-.3 3-.6 2.5-.1.9.4.6.3.8-.7 1-.5.3-1-.1-.6 2.1-.2 1.2v1l.3.6.4.7.3-.5.2-.7.7-.5 3.9 1.3 1 .7 1.6.6.5.7.3 2.2 1.6 2 1.3 1.2.8.5.7.1 1.1-.5 1.5.1-.8 1.6-1.4 3-2.3 2.6-.9.4-1.5-1.1-3-1.3-.6-.8-3.4-2.1-1-1.4-1.7-.2-2.4-.7-2.3-1.1-1.9-.5-.5-.7-1.4-.5-1.4-.3-2-.8-.9.3.2-.9-2.3-1.3-2.8-1.2-5.7-1.7-5.1-.8-6-.2-5.2-1.1-.7.1-.7.3-1.8 1.6-2 .5-.7.8 1.2 1.6 2.3 4.2 1.3-.4.5 1.9-.8 1.1-1.2 1.3-1 .7-2.3.4-1.8-.1-.2 1.2.5 1.1-.1.5-.2.6-.3.3-.2.2-.7.3h-.8l-2-.6-1.5-.5.1-2 .8-.9.5-.2.5-.4-1-1.3-.8-.6-.3-.9v-.4h-1l-3.9 1.1-.8 1-.4-.7-5.1 3-2.2 1-1.5-.2-2-.6-2.4-.1-1.6-.3-.8.1-1.7.7-1.8.1-1.9 1-1.6 1.3-.4 2-1 .2-1.1-1-.6-.3-.6.2-1.1.1-.9.1-2 .4h-.4l-2.8-.3h-.8l-1-.1.2-.5.3-.4 1.6-.3.9-.4 1 .2.7-.6-.1-1.2-1.1-1.2.5-.9.4-1.1.3-.1.3-.4-.3-.3-.8-.2v-.3l.5-.2 3.5-.5.8-.3-2.1-.1-2.7.1-2.7 1-5.1 2.2-2.4 1.5h.6l.8.2.7 1 .5.3-.4.7-1.3.5-.5.4-.5.1-.4-.1-.5-.3.3-.5.4-.5-1.1-.9-.5-.1h-.4l-2.6.7-1.9.9-1.8.5-1.7.2-1 .4-2 1.2-1.3.5-2.1 1.3-5.4 2.3-1.4.2-.8-.2-.6-.3-.4.3.5.6.8 1.1-.3.6-1.2-.2-2.6.5-2.8.8.1.8.2.7-.5 1.2-.5.9-.4 2.7-.4.8-1.1.5-5.6 1.2-1 .1-.4.2-.3-.2-1-.3h-1.5l-.7-.1-.7-.4-.9-1.1-1.3-2.3-2.9-1.2-1.4-.8-.3-.7.3-.7 3-2.5 1.1-.8 4.5-.7 1.8-.1 1.8-.3v-1.4l-1.8-1.8-1.9-2-1.8-2.2-2.6-.8-3.1-.4-6.3.4-.9-.1-4-1.6h-.4l-.6.1.2.4.3.3 5.3 3.3.3.9.1 1.2-.1.5.1.5v.9l-1.3 3.8-1.2 2.7-.4 1.3-.1.9.5.8 1.5.2 1.5.8.8 1.1.2.8.1 1.7.4 1.4-1.2 2.2-.7.9-.8 2 .3 1.4-.1.5-.2.6-.6-.5-.5-.6-.7-.5-.7-.2-.8.1-.6.3.1-.6.7-.9-.3-.5-.4-.3-2.2-1.1-1.6-.1-1.4.1-1.4-.1-1-.7-1-.4-.7-.1-.9.6-2.1 2.4-2.1 1.5-2.8 1.2-2.1.4-.6.3-1.2 1.4-1.3 1-3.6 1.7-.2.7-.2 1 .3 1.1.7 1.1 1.7 2.1 1 .7.7 1.1.5 1.3-.3.3-1.4-.3-1 .1-1.4.9-.1.4-.5.9-1.3.1-3.6-1.6-3.1-.8-.5-.1-.7-.4-.2-.3-1.3.1h-.8l-.7-.3-3.3-2.6-2.7-1h-.6l-1.2.3-.7 2.1-.9.6h-.8v1l.3.6.3.5 1 .7 1.9 2.2 1 .9.7.3 1 .1 2.2-.3.7.3.8.5.2 1.2.6 1.3.1.7-.7.8-2.3.6-1.3.9h-.5l-2.8-1-1.8-.4-2.4-.6-.4-.3-1.1-1.7-2.4-1.6-1.1-.5-1.5.3-1-.2-1.7-.9-1.1-1.3-.1-1.6.3-.4.3-.2-.8-.5v-1.2l-.2-.8-.9-2-.9-1.2-.9-1.3 1-.7.5-.6.7-1.7.1-.6.3-.6.1-.5v-.5l-.7-1-2-2-2-1.1-3.8-1.1-1 .1-.4-.2.8-.2.8-.4.4-.7-1-.3-.8-.1-1.3-.5-.2-.5.3-.3-.7-1.3-1.7-.3-.5-.2v-.3l-1.2-1-1.5-1 .3-1-1.1-.7-1-.5-1.5-.2-.6-.4 3.5.1 3.7.8-.3.3-.3.5 1.1 1.3 1 .5 2.3.6h.8l1.1.5.9.6 1.7.1 2.1.6-.1.3-.2.2.6.7.9-.1 1.5-.6 3.7 2.1 1 .4 6 1.1 2.7.1 1.5.2 2.2.5 2.3 1.1 1.9.4 3.4.4 1.8-.1 4.4-.7 5.6-1.9 2.9-1.7 4.6-4.4.6-1 .5-2.4v-1l-.5-.1-.7-.6v-1.4l-.7-.7-.7-3.1-1.4-.3-.8-.4-.9-.2-1-.5-1.2-1.3-1.2-.9-1-1.2-.6-.4-.4-.1.3.6.2.6-1.8-.2-5.1-3-.9-.2-.3.3-1.6-.4-.5-.7-4.3-3.3-7.7-3.7-5.3-2.3-3.9-1-.4.1-.4.4-1.2.1-1-.1-3.5-.9-.9-.1h-3.8l-.4.3-1.3 1.9-.7.4-1.3.4.4-.6.9-.4.6-1.4v-.6l.3-.8-.1-.6-.5-.2-.9.2-1.9.7-.3-.2.5-.8-.1-.3-.8.1-1.7-.3-1.8.1-.3-.9-1.2-.5-.5-.4.6-.5 4 .8 1.1.1.6-.3.1-.5v-.6l-.5-.4-2.6-.7-1.2-.8-2.8-1-.1.5.4 1-.2.3-.8-.3-.6.2-.8 1.2-.8.3-.7.1-2.8-1-1.2-.2-1.1-.1-.8.1-.8-.1-.4.9-.2-.1-.3-1.2-.8-.3-.4.3-.2 1.2-.5.3-.7-.2-1.4.1-.7-.2-.4-.4-.1-.5v-.7l.2-.9-.3-.4-5.5-1.4-.2-.6 7.9.6 2.3-.3 1.4-.9 3.3-.9.1-.9-.2-.7-2.3-1.5-1.2-.3h-1.4l-.1-.2.2-.7-1.2-1-.7.1-1.1.6-.4-.1-.1-.3-.6-.5-1.7-.4-.5-.3-.7-.9-.8-.4h-1.9l-.6.3-1 1-.9 1.8-.3 1.5-.9.7-.2.5-.5 1.9v-4.1l.4-1.1-.4-.5-1.5.5-.7-.2.4-.5 2.2-1 .4-.3.4-.6.1-1.3-1.7-.9-2.3-.2-.6-.3-.9-.1-1.8 1.2-.7.6.2.5 2 1-.1.3h-1.6l-.9.7-.3.8-.5.9-.6 1.2-2.2 1.1-.6.1v-.5l.1-.6.2-.6.1-1.1-.6-.4.8-.9.4-1.4-.5-1.1-1.1.3-1.9 1.6-1.7 2-3.6 3.5-.4 1.3-1.4 1.2-1.2.3-.4-.4.1-.9 1.1-1.3.4-2 .4-.8 1.4-1.5 1.4-1.3.8-.5-.1-.5-.4-.2h-.4l-.6-.3-.9-.1-.4.2-.3.5-.4.1-.6-.4-.9-.7-1.5-.6-.5-.4-.7.1-1.5 1.4-1.2.8v.7l.9.3.1.5-.5.1-.5.4-1.7 2.2-1 .1-1.6 1-2 1.9-.3.5-.3 1.3.2.5.6.5-.3.4-.7-.1-.6-.4-.9-.9-.4-1.7-.3-.8-.6-.4-1.2-.4-1.8.5-.3.7-.4.2-.7-.6-1.1.4-.4-.2-1.5.8-1.7-.3-1.3.3-.1.3.4.4 1.4.9 1.4.4.6.8.6 2.1-.3.2-1.1-.9-1.3-.6-1.1-.9-1.2.1-.6 1.4h-.9l-.4-.4-.9.1-1.5-.1-.5.8-.1 1.9.2.7.7.6.6.6v.2l-1.8-.3-2 2.1-.6.4-.4.1-.1-.3 1.6-2.2.4-1v-.7l.4-2.3-.2-.7-.2-.3-.7.2-.5.4-.5.2-.8.7-.7 1.3-.9 2.7-.7 1v-1l.4-1.3.2-2.1-.2-.3-3.4.7-1.1 1.1-.2.4v.4l-.1.3-.8.5-.8.1h-.6l-.4.4.1.7.9.7 1.2.5-.4.3-1.5-.1-1.1-.5-.7-.9-.6-.4-.2.1-.5.5-.8 1.3v1.1l.3.6-.1.3-2.7.7-1.1 1.2-.4 1.5-.7.9-1.8 1.3-1.7.1-1.6.7-.5.4-.5.7.1.5.4.3 4.3.1 1.6-.3.4.1.2.2.5.1-.1.2h-.5l-1 .3-1.7.5-1 .2h-.6l-1.7-.6-1.6.2-1.3.9-.2.4.6 1.6.4.5.5.1-.1.4-.4.3-.3.4.4 1.4-.4-.1-1-1.7-.4-2-.2-.2-.2-.1-1.1.5-1.4.2-1.2.7-1.2.4-.2.4.4.4 1.7.2.1.5-.8.3-.7.1-.9-.5-1-.1-.6.2-1.7 1.7.2.7-.3.9.5.1 1.3-.2 1.8-1 .3.4-.4.3-.5.6.2.6.7.7.9.3 1.2-.3.2.3-.8.9.1 1.1h-.3l-.6-1.2-.4-.3-.8-.1-1.2-.8-1.1-.2-1.4.9-1.2 1.3-.3.5-.6.5v.3l.3.2.7-.1h1.7l3.3.1.9.1-.1.5-4.4.1-1.2.2-.9.4-.9-.2-.9.6-.7-.1-.6.5-1 1.2-.5.1-.6.3-.5.4.4.6 1.5.4.3.3-1.2.1-1.2-.1-.7.6-.5.3-1 .2-.7.7-.1 1.2h-.6l-.2 1.2.3 2.3 1.6-.1.4-.2h.6l1.3-.2 2-.5.4.3-.8.6-1.1.3-.6.5h-2l-4.2.9.1.4 1.3.6.4.7-.3.2-1.2-.1-.9.6-.4 1.1-2 2-.5.7-.5.9-.6.6.1.9.5.4.4-.1.5.2.2.5.4.1.7-.1 1.4-.8.7-.6.7-.2-1.2 1.4-1.6 1.3-1.4.1-.6-.7-.5-.4-4.7 2.3-1 .8-.3.9-.1.8.7-.2 1.2-.5h.5l-.8.8-1.3.7-.7.1-.9.7-1.1.4-.7.9-1.9.8-2.3 2.6-1.6 1.1-.5 1.1-.5.7-1.1.6-.6.8-.3 1 .2.3.4-.2h.8l.4.9.4.4.2.6.9.1 2-.6 4.1-2.2.8-.8-.6-.6-.4-.2 1.1-.7 1-.5.7-.2.8.3.2.2-1.1.6-.8.5.3.2h.7l.3.4.2.4-1 .4-.7.5-1.2.2-1.2.5-.4.3-.4.7.2.2.4.8h-.4l-.8.2-1.7-.2-1 .2-.8.2-.4.5h-.3l-.3-.9-.3-.1-.4-.3-.9-1.1-.7.2-.6.3-1.4.2-1.2 1.2h-.5l-.1-.4.6-.7-.1-.3-2-.6-1.2.3-.7.2-1.2.7-.3.4.2.6.7.2h.8l.3.4v.5l-.4.3-2.1.3-.6.5-.2.8.5.9.7.4 1.9 1.7.1.4-2.2-1.3-.7-.3-.8-1-1.7-.2-.9.1-.6-.1-.6.1-1.3.8-2.6.7-.5.3h.1l-1 1.2-.3.7.3.2 1.7-.3.6-.2h.9l1.1.4 4.4-.6.3.4-2 .1-1.8.5-.1.3.1.4 1.1.3-.3.2-.6.2-.5.1-1.4-.6-2.2-.3-1.5-.1-.9.2-1.2.1h-.6l-.6.3-.2.7-.5.4-.3.4.1.4.9-.1 1.4-.3 1.6-.2-.5.5-.3.2-2.6.6h-.9l-.4-.3-.3-.3-.5-.1-.8.3-.5.1-1.3.7-.3.8-.4.3-.4.6h-.4l-.4-.4-.7.3-.3 1.4.4.7.7.2 1.4-.1 1.3.2 3.2.7h1.8l2-.4.3.2-1.8.7-3.1.2-1.5-.4-2.3-.7-2.4.1-.9-.2-.4.2-.1.7.1 1 .5.7.7.3.5.8.7.4.5.2-.6.3h-.6l-1.2.2-.1.6.2 1.3.6.7 1.5.8.9.1 1.4-.5 3-.2 2.1.3.7-.2.4-.9.4-.5.2.1-.1.5.3.2 1 .2 1 .3 1.6-.1.7-.2.1-.3-.1-.7.4-.9.8-.7.1.2-.7 1.2.4.8 1.4.1-.4.4-3.5.9.1.8.2.5-.3.1-.4-.4-.1-.6-.5-.5-.9-.4-1.2.1-1.3.5h-.9l-2.1-.4-3.3.6-1.5.1-.7-.1-.7-.2-.6.3.1 1.1-.1.8.3 1.6.5.7.9.7 1.4-.5 1-.8.4.1-.7.7-2.6 1.4-.2.4.3 1.4.7 1.1.9.5H1003.4l.2.3-1.3.5h-.8l-.8-.2h-.4l-.2.4.3.7-.2.7-.5.8-.1 1v.7l.2.3h.3l.3-.5.2-.2.6-.5 1-.7.4-.8 1-1.1.7-.2.5-.4.2-.8.4-.6.9-.9.4-.6 1.3-.8 3.2-.8 1.3-.1-.3.4-1.1.2-.5.4-.3.5-.8 2.2v-.6l.2-1.5-.5-.5-1.2.6-1.5 1.2-.2.7v.3l-.3.5-.5.5-1.5 1.2-.4.5.2.6.5.1.9-.2h.6l1.1-.2v.1l-1.6.8-.9.1-.4 1.3-1.3-.2-.3-.2h-.4l-.5.5-.7.1-.4.8-.4 1.1-.4 2.3.3.6h1.3l.7-.4.7-.9.6-.2.4-.2.9-.2 1.2-.6 1-.8.8-.5.9-.3.1.1-.8.4-.7.7-1 .7-.7.7-.1.7.2.5.2.5-.1.4v.4l.5.7.4.4 1.4-.6.2.2-1.1.6-.5.7h-.3l-1.7-.9-1.7-.5-.4.4-.2 1.5v1l.5 1.1.8 1 1.9.9.5.6 2.3 1.1.7.1.9-.1h.3l.1.3.1.1-.6.5-.3.5.2.3 1 .3.2-.1v-.5l.2-.2h.5l.2.1-.1.2v.2l.1.3.7.5 1.3-.2 1.9.3 2.8-.6 1.1-.7h.9l1-.8 1.4-.8 2.8-2.7 1.7-1.1.1-.4.3-.3.6-.1.5-.6-.6-.5 1.7-.8.5-.1.3-.3.3-.4-.5-.6-.5-.5.5-.1 1.1.9.3.7.8-.1.9-.6.7.2.2-.3.3-.2 1.3-2.2.2-1-.1-.7-.3-.1-.1-.6.7-.2.5-.5-.3-1.1.4-.7.1.9.2.8v1.8l.1.4.7.9.6 1.1.8.1.4.1.6.2h.3l1.6.4.1.4v.3l-.6-.5-.7.1-.2.3-.1.6.2.7.3.6.1 1.9.3 2.1-.1.5v.6l.6-.1.7.4.1 2.2.7 1.2 1.1.3.2 2.1v.5l1 .4v.7l.2.9.3.9.6-.2.7 2.2 1.9 3.1 1 .8 1 1.6.5.1.6.3.3 1-.4.6h-.6l-.8.1.2.5.4.4.4.8-.3.2-.3.1-1.4-.6h-.2l.3.4.5 1 1.7 2.5.7.7.2.6v.5l-.1.8-.2.8v.5l-.4.7 3 .6 3.4-.8 1.9.3h.7l1.2-1.3-.5-1-.5-.9.1-1 .3-.5 1-.9.5-.4.6-.3.7.3.7-.1-.3-1 .5-.3 1.9-.1 1.9.2 1.3-.3h.8l.7.2.7.4.6-.4.5-.5 1.1-2.7.5-.9.9-1.2.4-1 .3-1.2.5-1.4-.1-.7-.2-.5v-.8l1.1-1.6.2-.7-.3-.7-.1-.7v-1.2l-.2-.5.3-1h.7v-2.4l.5-.5-.4-.9-.5-1.3 1.2-.3.7-.3-.9-.9-.7-.1-1.4-.1-.6.1-.5-.3-.7-.1.7-.3 2.2.1h2.3l.9-.6 1.7-.7.8-.8 1.5-.6.7-.5.4.1 1-.5.8-.6 1.3-.5.3-.2.3-.5.3-1.1h.6l.8-.4-.4-.7-.4-.1-.3.1-.4.3-.4-.1-.5.1-.4.4-.5.2-1.1-.1-.1-.3 1.4-.7.4.1.4-.2.4-.4.4-.1 1.2-.8.4-.4.5-.6 1.2-.8.5-.3.1-.7-.4-1.2-.3-.4-.2-.5-.5-.5-1.3-.4-.5-.3.2-1-1.1-.9-1-.3-.6-.5-1-1.1-.4-.8-.6.1-.9.4h-.6l-.2-.5-.3-.4-.3-.2h-1.4l-.8-.6.1-.6.1-.5-.5-1.5.1-.4-.2-1.7v-1.1l-.1-.3.3-.3-.1-.5-.3-.3.2-.8-.1-.5-.1-.8.6-.8-.1-.7 1 .3.9.1-.3-.6-.1-.4-.2-.9.3-1.1.2-.6.4-1.5.4-.5.5-.2-.7-.3-.7-.8-.4-1v-.4l.2-.5.7.1.4.2h.5l.5-.4.8.1.8-.8.6-.2-.2-.3-.5-.1-.2-.2.3-.2.2-.4-.3-.7-.3-.5-.1-.5.2-.1.3.6h1l-.1.3v.2h.7l.3-.2.2-.4 1.5-.5.1-.3v-.3l.1-.3-1.3-.1.2-.4.4-.1.9-.3.3-.7.2-.6h.4l.6-.2h.4l.3-.1-.1-.2-.4-.2.2-.2 1.5.2 1.4-1.2.4-.9.5-.5 1 .6v-.4l.1-.5.6.2.5.3.5-.1.4-.8.9-.8 2-.6 1.1-.7.6-.6 1.6-.6.6-.5 1.8-3.4 1.6-1.3 1.4-.9.2-.4.2-.5-.9-.9-.4-.9-.4-1.1-.5-.6-.5-.4.4-.8.7-.7.9-.8 1-1.3.1-.4-.2-.5-.3-.4-.5-.4-.2-.4h.3l.8.7.3-.1v-.4l-.1-.2-.4-.2-.1-.3.1-.3.2-.2.8.1 1.4-.2.2-.2.3-.4-.3-.4.1-.3h1.2l.4-.3-.1-.2-.3-.2-.1-.3 1.2.2.1-.3.1-1.2.1-.3.3-.5.2-.6.2-.2.4.1.5.7.6-.1.9-.7 1.2 1 1.3.6.4-.2.5-.4 1.4-.2h1.2l.7-.3 1.4.5 1.8-.3.6-.1 1.2.4.9-.5.4-.4h.3v.3l-.3.8.6 1 .6.2h.5l2.8 1.3.7.8-.3 1.4-.1 1.2-.3 1.1.6.5.2.4.1.6-.7.3-.3.4.4.4.1.6-.5.1-.6-.2-1.3-.1-1.4.4-.6.5-.7.1-.4 1.1-.6.6-1.1 1.8-1.8 1.4-.7 1.2-.4.2-1.4 1.4-.4 1-.7.1-1.7 1.5-.8.3-.8.5-1.8 1.5-1.6.4v.7l-.9 1-.6-.1v.3l.2.3-.5-.1-.2.2.3.7.2.3v.4l-1.4.7-1.6.4-.7-.3-1.8.4v.5l.1.5.6.8-1.2.1-.1.9-1.8 1.7-.4.5-.2.5-.1.7.3 1.2.2 1.1 1.1.8.1.7.1.6-.4 1.2-.3 1.3.9.8.6 1.1.5 1.1v.4l.4.8-.1.1v.1h-.5l-.2.2.2.3.2.4.1.5h-.3v.1l.1.4-.1 1.3-.2 1.1-.2.4-.5.7-.1 1 .1 1.2.2.9.1.7v.6l.2.4.6.3.6.4.8-.5.5-.1.3.9.5.1 2.2 1 1.8.2.3-.1h.2l-.1.2-.4.8v.2l.5.1v.3l-.2.2-.4.1h-.3l-.2.5.2.1-.2.6v.2l.2.4h1.3l.4-.1.4-.2.3-.2.2-.2.2-.9.2-.3.3.1.6 1.1.6.5.5.1.3.2-.1.5-.5.6-.7.5-.3.4.4.1 1.1-.3 1-.8.9-.6.9.2h.9l2.1-.4 2.2-.3.7.2.5-.3.6-.7 1.7-.5h.8l1.4-.4.8-.6 1.3-.1.6-.4.8-.4.4.6h.3l.6-.4.7-.3.6.1v-.3l-.2-.5-.3-.5h.6l1.2.7 1.2-.2.6-.4.3-.9.5-.8h.3v.3l-.4.5-.2.8.1.6.5-.3.8-.2 1.6-.2.9-.6.9-.2.3.1 1.5.8.4-.3 1-.1.6-.3h.3l2.6-.4 2.3-1.1.5.3.5.4-.1.7-.1.5-.9-.5.2.6.8 1.1 1.2.5 1.8 1.4 2.1.2 1.4-.3 1.1.1 1 .8.7 1 .6.2.8.5-.1.5-.2.3-3.1-.8-3.6-.5-.5.4-.5.6-.2.5-.2.3-.6.2-.8.1-1-.1-.6-.3-.4.4-.2.8-.6.4-.8-.3-.6-.6-.5.1-.3.6.2.8.1.9-.4.7-.1.1-.8.6-3.9-.4h-3.3l-1.6-.6h-1.1l-4.6-1h-1.2l-.7-.2v.4l.1.4-.5.4h-3.9l-2 .7-1.4-.2-1.4 1h-.8l.2.8-2.1.2-1 .3-1 .5.2.9-.3.4-.1.4.3.3-.2.4-.4.4.5 1v.3l.2.1 1-.1-.2.3-.8.4-.1.6.4.8.9.7.1.7.4.7 1.7.5.7.4.8-.2.4-.4.3-.5.4-.1 1 .3.1.5-.1.2-.3.2-.2 1.6-.9 2-.1.4-.2.9.4 1.4.3 3.2-.1.7-.7.8-1.6 1-.9.6-2 .4-2.5-1.2-1-2.3-.7-.7-2.7-2-.2-.6-.4-.7-2.2.6-2 .7-1.5.3-1.9 2.5-.3.9-.1 1-.4 1.1-.6.8-1.3 1.1-.3 1.8-.1 3.7.2 1.8v.5l.1 2 .7 1.9.5 1.6-.3 1.1.2.7-.1 1.6-.2 1.6-1.3.3-.7-.1-.8-.4-.7-.1-.6-.3 1.8-1.9 1.2-1.6.5-1.3.1-.8v-.5l-.2.3-.2 1-.3.7-.8 1.1-.4.5-1.2 1.2-1.1 1-.9.4h-2l-.9.3-.1.9-.1.8-.6 1.1-.7.8-1.1.8-.3.2-1.1.5-3 .3-1-.2-1.2-.6-.6-.8-1-2.2h.5l1.2.7.8.3-.3-.5-1.6-.8-1.5-.7h-1.7l-1.7.2-4 .8-1.8.7-.8.5-2.3.4-1.3 1.1-.6.7-.4.3-.4.4-1 .2-1 .1-4.2 1.1-4 1.1-2.3.9-.9-.1-.3-.2-1.2-.8-1.5-.9-.1.3v.3l.3.2.3.4-.1.5.2.6.8.1.9-.1 1.2.1 1.4.3.1.7-.1.4.1.3.1.3-.7-.3-1.6-.6-1.6-.3-.5-.3-.6-.5-.3-1.6-.7-1.3-1.9.1-2.1-1.3-.8-1.2-.9-.1-.8-.2-1.4-.2-1.4 1.1-.6.6-.9.5-.4.5-2.2.2-.7.3-1.7 1.4-.4.2-2-.6-1.3.1-.4-.1-.3-.6 1.4-1 .4-.9-.4-.9h-.4l-1.6.6-2.6-1.2-1 .3-.3-.4-.2-.4-1.9.2.5-.4.6-.6v-.9l-.5-.6-.4-.4-1-.3-.3-1.2.2-.4-.3-.3-.3-.2-.5-.2h-.8l.4-.7 1-.8.2-.6-.2-.7-.1-.7-.2-.8.5-.6.8-.5.3-.4.6-.6.7-.3.2-.3-.4-.5-.4-.3.8-.3h.6l.4.2.2-.1.3-1.4.6-2 .4-.4.4-.2.8.7h.6l.9-.4.7-.5.3-.6.2-.8-.3-.5-.3-.3h-2.5l-.7-.3-.7-.6.1-1.6-.1-.4.1-1.7.3-.2.7-1.5.6-.7v-1.3l.1-.7-.6-1.1.1-.5.1-.3.9-.9h-.5l-1.9 1.2-2.1.4-1 1-1.8 2.4-.8.6-.9.3-1.8-.1h-.6l-1 .4h-1.3l-1.3 1.2-1 1.3-.1.4v.6l.5.4.8.5.9-.4 1.2-.1.7-1.6.8-1.3.8-.3 1 .3-.3 2-.1 1-.4-.5-.5-.4-.5.2-.7.4-1.1 1-.1.8-.3.5-.4-.2-.4-.4h-.6l-1.3-.5h-.3l-.5.1-.2 2.8-.1 1.8.6 1.5-.1.8-.3 2.9 1.5.9 1.9.9.2.9.1 1.7-.7.2.5.8.2.6.1 1.9.7.9.6 1 .5.5v.7l-.8.4-1.3.3-.2.4.1.5h.6l.3-.1.5.2.4.4v2.5l.1.3.4.4.6.2 1 .1.7.3 2.2 2.4 1.1.4-.8-.1-.6-.3-1.8-2-.8-.4-2.1.2-1.9-.4-.3.3-.3.5-.2 1 .2 1.1-.3 1.5v-1.1l-.3-.3-.8-.5-.2.2-.2.7-.2.6-.3.1-.6-.3.4-.7-1.1-1.4-2.6-.1-2.4.1-.5.3-.7.9-.2.7-.1.9.7.5.3.4-1-.2-.6-.3-.4-.5-.7-.6-1.7.1-1.5.2-2 .1-1.3.3-2.4 1-.6.5-.6 1.1-2.1 1.3-1.2.5-.3-.2-.5-.1-.4.6-.2.6-.8 3.4-.6 1.2-.7 1-1.2 1.3-.5.4-.3.2-.4.6-.3.7-.2.3 1.3 1.3.2.4.2.2-1.2.1.5.4.7.3.4.1.2.3-.5.1h-.5l-1.8-1.1-1-.2-1.4.1-.3.1-.4.3.5.5.5.3h.7l.9.4 1.3-.3.9.4.6.1-.8.2-.7-.3-.9.4-1.2-.1-.9-.3-1.1.1-.5.1-.9.2-1.8.8-3.6 1.8-3.7.7-1 .5-.7.5-.4.6-.2.7-.2 4 .3.4-.3.2-.2.2-.7 1-1.1.8-2.2.8-2.1.4-3 1.4-.4.9-.1.4.1.4 1 .4 1.1-.1-.2.2-1.9.4-1 .6-1.1.3-2.5-.5h-1.7l-1.3-.3h-1.2l-.4-.5-.3-.4-.2-.9v-.7l-.7-.2-1.5.4-.8-.1h-1l-.1.5v.3l.4.9.9 1.6.7 1 .1 3.5.6 1 .7.4-.4.1-2.7.1-.2-.3-.4-.2-.5.5-.2.5-.5-.6h-2.5l-1.7 1-.7-.6-1.5-1.7-1.6-.4-1.7.2-.5.4-1.2.5-1 .1-1.4-.1-3.3.8-1.3.7-.3.8.1.4.2.4h.9l.4-.1h.9l.2.1.4.1.4.4-1.1.1-.7-.1-.2-.1-.3.2.2.4.2.1.5.1.7.4-.3.4-.9.3-.8.1-.3.4 1.7.6.4.8.4.5.6.1 1.1-.3 1.2.1 2.7.7.4.4.3-.1.5.1.4.2.3-.1h.4l.7.6.7.2.7-.1.5-.1.4.2-.4.6.2.2.7-.1h.8l.5.1.4.4-.3.5-.4.3.2.6.5.2.6.1 2.6-.3 1.6.8-.5-.1-.7-.3-.7-.1-.6.1-.3.3-.3.5.4.3.4.1.4.6-.5 1v.5l.2.5 1 1.1.9 1.5 2.7 1.4.6.2h.5l.6.1.1.5v.4l.2 2.4.3 1 .2.3.1.3-.6-.2h-.7l.1.5.2.2 2 1.3.6.6.4.7.6 2.5.4.3.2.4-.6-.4-.4-.4-.5-1.9-.4-.6-.8-.6-1-.6-.5 1.6-.3 1.5-.4 4.2.2-.2.1-.3.3-.3.5.6-.7.2-.5.9-.7 4.6-1 3.8-1 1.1-1.1.3-.2.1-1.1.5-1.4.2-1-.1-1.9-.7-1.9-.3-.5.1-.7.6-2.6-.7-.7-.5-.6-.1-1.2.3-.8-.2-.9.3-2.1.4h-1.5l-4-.7-1.5-.4-2.4-.2-1.3-.5-1.6.4-1-.1-1.7.2-1-.1-2 .1-1.1.3-1.4-.3-1-.8-.7-.4-.6.1-.7-.3-1.1.5-1.1.1-.9.5-.8.4-.2.3.3.4v.5l-.7.4-.5.1-.8.4-.9.2-1.4-.1-1 .8-.5.2-.3.3-.1 1.2v.5l.1.6.2.4.5.4.8.1-.1.3-.7.9v.6l.3.1 1.2-.5.1.3-.1.3v.8l.2.3.3.2-.3.4-.3.2v.4h.6l.3.1-.6.5-.8.9.1 1.3.2.2.5-.1-.7.9-.1.6.3.5.6.1-.4.4v.8l.5 2.3.4 1.1.1.6v.5l-.1.9-.1 1.3-.3.8-.3.4-.7 2.8-.1.6.2.2.1.3-1.2 2.4-1 2.2-.7.9-.5.3-.4.4.1.4v.3l-.4 1.1-.1 1.2-.3.9v.9l.4.2.4.1.7-.1.8-.2.3-.7.9-1.5.6-.4.5-.1-1 .6-.4.8.2.8-.3.5-.5.4-.6.1-.5.3.3.9-.1.7.2.1.6-.1 1.3-.5h.4l.4-.1.5.3.5.5-1.5-.2.5 1.2.1.9-.5 1.8.4.7.2 1.1-.2 1.1v1.3l-.8 2.1-.5 1.1.4.1.6-.5h.8l1-.4.8.2 2.4-.1 1.4.3h.7l2.4-1h.6l1.6-.2 1.4.1.3-.1.5-.5v.2l-.2.4 2.7 1.9.7 1 .5-.6h.7l-.3.1-.5.4-.6.9.2.7.8.3.1.3-.1.3.3.8.4.7.9 1.1.6.1 1 .7 1.3.5.5-.1.6-.3.1-.6.2-.1.2.2h.1l.2-.8.7-1.1.4-.4 1.6-.6h1.8l1.2-1 .5-.6.5-.1 3.7-.3 1.7.1 1 .3 1.2-.4h.8l1.7.1.8.2.8-.3.5-.5 1-.2 1 .1.8.6.5-.2 1.2-1.3 1-2.3 1.1-1.2 2.2-1.4 2.7-.1.8-.1.3-.1.3-.3-.7-.6.1-.5.4-.6.1-.3.4-.8.3-1.3.7-.4.2-.9 1-.9 2.3-1.2 1.3-.9.5-.5-.3-.5-1.3-.5-.7-.6-.5-.7-.9-2.9v-.8l1.7-2.9.8-1.1.8-.7 1.4-1.7 1.6-2.4.2-.1.2.1.4-.1 1-.5.2-.3-.7-.7-.6-.2.7-.6 1.5-1.4 1.2-.3 2.5-.8 3.6-.8.4-.3 1.1-1.2 4.8-2.5 1-.8.7-.7-.1-1.1-.1-.2-.3-.2-.2-.2.1-.8h.4l.6-.2-.1-.5-.3-.2-.2-.5-.1-.2-.7-1.1-.3-2.1.1-.6.8-1.4.7-.9 3.6-2.2.5-.5.3-.4 1-.3.2.1.3.2.3.5.4.2 1.1.2.2.1 1.5.5.6.1h.5v-.2h.1l.2.1.2.1.3.2h.4l.6-.4v.2l.1.3.3.1h.5l.8.1.6 1 1.8.4 1 .7h1.5l.6.2 1.3-.6 1.3-.3.5-.3.6-.5.2-.6.2-.3 1-.5 2.2-1.8.6-.3 1.6-.6 1.7-.3 1.9-.6.5-.4 1.5-1.8 1.8-1.8 1.5-.6 1.1.1 1.8.7h.6l3.1 1.8 2.2.7 1 .6.4.8.5 2.8.9 1.2.5 1.4.1.5-.1.6v.8l.5.1h.4l.4.2.2.3.2.5.3.3.9.5 1.6 1.7.1.7-.3.1-.3.2.3.2h.3l.4-.2.3-.1 1.4.5 1 .6 1.2 1.7 1.9 1.2.9 1.1 2.9 2.8 1.5.5 1.2.9.1.3.3.2.7-.3.4-.1.8.1 1.3.4.8-.2.4.2.9.9 1.3 2.1v.5l.2.2.2-.3.3.1 1.1.1.8.4.2.2-.8 1.1h.3l.5-.3.7.1.4-.1 1.1-.2.5.3.5.6.3.7.3.7-.4.6v.4l.2.2 2.4 1.4.7.1h1.4l.7.5.5 1 .6 2 1.2 2.2.3 1.7.3.9.7.7-.1 1.5-.9.2-.6.2-.3.3-.3.5.2 1-.6 1.4-.9.3-.4.7v1.1l.5.8h2.3l.4-.6.2-.5 1-1.3 1.8-1.3.2-.7-.1-1.8.4-.7 1-.7 1.4-.4 1 .2.5-.6-.4-1.1-.1-2-.8-.8-1.2-.8-.6-1.2-.5-.9.1-.9 1-2.2 1-1.5.8-1.1.7-.5 1 .1.2.1.2.4.1.3 1 .5.6.2 2.7.3 1.5 2.8 1 .7.9.3.3-.7.2-.7.4-1-.2-.9-.9-1.2-2-1.6-.6-.7-3.3-1.5-1.4-1.1-1.2-.7-3.8-1.4-3.7-1.7-.8-.6.1-.9.8-.7.8-.5.3-.5-.2-.7-.7-.3-.7-.1-3.9.2-1.6-.2-2.1-1-2.3-1.6-2.5-2.2-1.2-1.5-.6-1.3-.8-2.7-.8-1.7-.9-1.5-.4-.3-1.5-.6-2.7-2-1.5-.6-1.4-1.2-.6-.8-.6-1.7-.4-2.5.2-.9h.3l.5.3.6-.4.2-.5.2-.6-.9-.6-.7-1.4-.4-.3.2-1.1.2-.7.5-.4 1-.5h.3l-.7.7.5.1.8-.3 1-.4 1-.6.9-.2.6-.5.3-.4.3-.2 1.8.7.6-.3h.5l1.1 1-.4.2-.6.4-.4.1-.4.3.6 2.1.1.6.1.5.8 1 .8 1.3.3.1.5-.1.5-.8.3-.6 1-1.4.2-1 .3-.5h.5l1.1.4.6.6 1.5 1.2.4.9-.1 1.3.1.9.6.9 2 1.9.8.5.6.5-.7-.1h-.6l-.4.1h-.3l-.4.1.4.7 2.2 2.2 1.1.8 1.1.6.8.7.1.4v.3l.3.4.4.1h.6l1-.2.9-.1 1.4.7 2.1.6 1.6 1.5 1.4.8 1.4 1.3.3.2.6.3.4.4-3.5-1.5h-.6l-.6.1 1.5.4 2.3 1.1 1.7.3 2.3 1.4 1.2.9 1.3.8h.3l.3-.1h.4l-.1.2-.1.2.1.2 1.8 1.1 1.6 1.6.4.9 1.1.7.9.1.8.6v1.2l-.2.4-.3.3-.4 1.1.1.8.2.7-.2 1.1v1.4l-.5 1.2-.3 1 .1.3.7 1.2.1.5-.1.2-.3-.1-.3-.1h-.2l.3.5.3.5.6.6 2.5 1.4.8 1.4.2.6v.7l.7.6.6.8.8 1.8 1.2.6.7.9.8.6.2.3.5.2 1-.2.8.1.2-.1h.3l.2.4.1.5-.3.2-.3.1-1.3-.5-.8.1-.1.4.1.5.7.3.8 1 .5 1.2.4.9.5.3.8-.2.2-.4v-.5l.2.1.2.5.6.7.7-.1.6-.2h.5l.6-.1 1.1-.4 1.8.5h.6l.5-.2.3-.4 1.1.7 1.2.4.2.2.3.2.7.3.4-.1.3.1h.4l.4.2.2.3-.2.3-.2.2h-1.2l-.4.2.2.3v.4l-.5-.1-.3-.1-.6-.5-1.1-.5-2.2-.6-2-1.1-.9-.1-.5.4-.6.8-.8.1-.7-.3-.3.1-.7 1.3-1.1.9-.1.2.1.3.5.2.6.4.3.8.6.2 1.1.8.7 1.2.1.6-.8.9v.9l1.1 1.7 1.1 1 .3-.5v-.7l.1-.8.4-.2.5-.1.4.5.2.5.5.2 1 1.4v1.4l.4.3.4.2v-1l.8-1.7.8-.1.4.1.4.8 1 1.2.5.3.3.3h.4l-.3-.8-.5-.8.2-1-.1-.6-.5-1.3-1-2.2-.6-.8-.3-1.2.3-.3.5.4.6.1.5.3.6.3v.6l.4.2.3-.1.3-.2 1.6-.5v-.2l-.2-.3-.3-.4-.1-.3-.3-.1h-.6l.1-.2.2-.8v-.6l-1-.5-.6-.2-.1-.2.2-.1.7-.4 1.5-.3.6-.3h.2l.3.2 1.1 1 1 .8.7.8h.3l.3-.3v-.8l-.2-1.1-.1-1.5-.1-.7-.3-.4-.9-.4-1-.2-.8-1.1-2.3.5-.8-1.1-.8-.1-.8-.6-1.7-.5-.6-.4h-.4l-.5-.1.2-.2.6-.1h.9l.9-.4.9-.7-.7.1-.2-.6-.4-.5-.3-.7.6-.4.5-.2 1.2.6v.4l-.3.6.2.3h.4l.8-.6-.3-.9-.4-.6-.9-1.1-.9-.6-.4-.5-.6-1.4-1.7-1.9-.2-.7.3-1.3.3-.7-.1-.5v-.5l.8-.3.5-.3.8-.1-.2.5-.3.3.3.7 1.4.8 1.5.7.1 1 .5.8 1.6.5.2-.1.1-.2-1.4-.9-.2-.3-.3-.9.3-.3 1.7.3 1.2 1.6.8.5.2-.2.1-.3-.2-.7-.3-.3-.6-.4-.7-.7.1-.3.7-.3.6.1 1 .5.7.2.5.5.8.5-.3-.8-.6-.7-1.3-.7h-.7l-.5-.1-.2-.5.3-.5-.7-.7-.2-.4.1-.6h1.3l.9.2 1.1-.5 1-1 .6-.3.6.1.8.5.8.1 1.5-.9.7-.2 1 .5.5-.1 1.2.5 2.5.4 1.1.6.2.3.2.4.3.6.8-.1.9.1 1.5-.1h1.5l-.5.7-1.9.8-.6.4-.7.6v.5l.1.4-.2.5-.2.5.5-.2.4-.2 1-1.1 2.1-1.9 1.4-.5 2-1 1.2-1.2.5-1.1 1.7-.3 1.2.2 1.1-.6.6-.2.9.1 3.4.8 1.2-.3.3-.4.3-.6.2-.7-.8-.2-4.2-1.8-1-.7-1-1.4-.4-1 .2-.9-.2-.6-1.1-1.3-.8-1.2-.5-.4-1.1-.6 1.9-2 .5-.1.5-.3.1-2.2.2-1.4.3-.4.4-.3.7-1.1 1.3-.3 1 .3.7-.9.2-2v-.5l.5-1.6-.1-2.6.4-.7 1.1-1.1.2-.6-.6.1v-.3l.2-.3v-.7l.1-.3.4-.5-.3-.9.3-.4.3-.2.8.2-.3.4.1.5.1.6-.2.4 3.5-.7.3-.6.2-.5.3-1.5.1-.4.1-.6.2-.7-.4-1.7-.5-.5v-.7l.2-.3.4-.3.9.2.6-.2.7-.4 1.2-.4.2-.1 1.9-1.9.1-.1 1-1.4.1-.3.3-.5.3-.9.2-.7 2.4-.6 1.3.1.6-.1.7-.9.5-.3-.2 1 .9.2.8.1.7-.2.2-.6.1-1.8-.3-.7-.2-.7-.5-1.1.5.5.2.5.5 1 .2 1.1-.1.6.2.7.5.6.6.4 1.6.3 1.6-.4-.2.2-.9.6-.4.4-1.6-.3-1.8-.1-1.1-.3h-1.1l.5.4.6.3 1 .1 1.1.3v.4l-.1.2-.5.1h-.5l-.4.2.4.4h.7l.8.2 2 1.1 1 .4 2.2-.4 1 .1 1.8-.4.4.4 1.2.6.5-.2.7-.2.3.5.2.7-1.4.9-1.3.6-1 .1-2.2 1.3-2.2 1.6.3.5.4.2 1.1-.3 1 .1 1.9 1.3.5.2.9-.1 1.1.8.3 1 .1.6-.6 1.9-.3.5-.2.2-.1.4 1.4 1 .7.3 1.1.1 1.1-.3 1.4-1 1.3-1.6 1.7-.7 1.2-.1 1.4.2.5-.8 1.4-.7.8-1 .7-.2.7.1.6.3.3.3.5.3 1.3-.2h1.2l1.1-.3.2-.7.2-.7.4-.6.4-.8-1-.3-.9-.2h-.8l-.6.2-.4.4-1.2-.3-.6.1-1.3.7h-.7l-.6-.3-.8-.8-1.6-2.2-.8-1.5-.3-.9-.1-.7v-1l.8-.4.7-.2 1.2-1.5.4.6v.5l-.1.3-.4.4-1.4 1.1h.3l.5-.2.5-.4.4-.3 1-1.5 3-2.1 1.4-.4 1.2.2.6-.1 1.1-.6.9-.3h.9l.7.4.9-1 .8-.3 1.2-.2h.8l1.4-1.5 2-.2 2.4.1.3-.1 1.9-.7.6-.6 1.3-.2-.2.2-.6.2-.6.5.8.1 1.8-.3.7-.8h1.2l.3.6.3.8v.3l-.1.2-1 .2-2.3 1-1.2.3-1.3.5.3.7.1.6-1.1-.1-.8-.2-.5.1-1.3.6-.7-.1h-.7l.3.9.7 1.1.4.2.7-.1 1.6 1.3 1.2 1.3-.6.1-.6-.1h-.9l-.3.8-.4.6-.1-.3v-.4l-.4-.3-.6.4-.6 1.7-1.2 1.2-.4.8v.6l.2.1h.3v.5l-.2.4-2.7.6-.4.3-.8-.3-.9-.7-.8-.4-.5.1-.5.3.3.2.3.1.9.4-.5.3-1.8.6.1.3.2.2 2 .5 1.8.8.5.6.5 1 .4.4.6.3.5.2.9.1 1-.3 2.3 2.4.9.4 2.2.5.6.3 4.2 3.3 1.3 1.4 2.5 2.1.7.4 1.5.9 1.9 1.4.4.2 2.2.5 1.6 1.1.5.9 2 .8.5.6.6 2.2.6 2.1.7 1.5V428l-.4.9-1.3 1.5-.7.8-2.3 1.3-.9.4-1 .2-.9.7-2.9 1.2-.9.1-.9-.3-.6.1-.7-.1-2.6-1-4 .7-2 .7-1.2.1-3.3-.6-1-.6-2.3-.3-2.5-.6-.5-.7-1.5-.7-.9.1-.4.2-.5.5-.7-.1-.9-.5-.7-.7-.9-2.1-.5-.2-.4-.1-2.5.7-1.8-.8-.6-.5-.6-.8-.1-.5.2-.3.1-.3-1-.3-1.8.9-3.9-.1-5.6-.4-.7.1-2.3.9-2.8.7-1.6.6-1.5 1.2-4.4 2.2-.8 1.3-.6.4-3.1.2-3.2-.9-2.9.4-4.1-.6-1.2.1-.4.4-.2.6-.2.8.3.4.2.2 1 .7.7.1 3 .2h.3v.4l-2.3.4-3.1.5-.7.2-1.2.8.4.3.4.2.6.1.6.4-.3.3h-1.9l-.8.1-2.4-.2-2.3.3-.2-.1.2-.4.2-.3v-.2l-.8-.2h-.7l-.3.2.8.8-.4.3-.4.2-1.8.1-1-.5-.1-.3-.2-.3h-1.1l-.8.5h-1.9l-1.8 1.6-1.1 1.4-.9.3-.2 1v1.7l-.4.7v.4l.1.4 1.6-.1.9-.3 2.4-.3.5.1.1.3-.7.8-.7.6-.2.4.3.3.9 1.2v.5l-.3.3v.4l.4.3.4-.1.3.1.3.3-.7.9-.8.3-.2.2.2.4.1.3.3.6.5.6.4.3h1.2l-.3.3-1.6.3-.6-.1-.3-.2-.2.1-.2.6-.2-.1-.3-.5.1-.5-.2-.6-.5-.6-.5-.1-.4.1v.5l.4 1-.1.6h-.5l-.4.7.3.3.7.2.7.4.4.1.3-.2.4-.2.9.5.5.7.5-.1 1.5.6.5.1.2.8-.2 1.2-1 .3-.1.2.6.4.4.9.1.8.5.3.6.1.2.3.8.5.1.7-1.2.3h-.5l-.3.4.1.8h.3l.3-.3 2.2-.1 3.2-.3h.8l-.1.4-1 .7-.5.7-.5.2-2.1.2-2.2-1.4-.6.1-.1.3.6.2.8.1 1-.5 1.9-.1-.5.6v.3l.6-.1.6-.3.7-1 1.2.1 1.6.8.7.2h.5l.5-.3.5.2.1.4.1.4.4.6.2 1 .6.6.9.5 2.4.8.7-.1 2-.6 1-.5.4.2.6.3.4-.2.3-.3.1-1.1.4-.6.2-2.1.4-.5 2.1.1 2 .2.8.2 3 1.5 1.7.6.7.7 1.1 1.4.6.7 1.1.7 1.8.5.9-.5 1.2-.1 2.4-.4.6.1 1.2-.3 1.8-.9.5-.4 1.9-2.1 2.1-1.4.7-.3.8.1.9.6 1.6.7 1.5.5 1-.2.6-.4.2-.6.5-.3.5-.1.7-.5 1-.5.6.5.7.3.4.5v.7l-1.4 1.1-1.2.9-.6.8.5 1.2.5 1.3-.5.6-.4.5-.5 2.2 1 1.2.1.5v.4l.2.6-.4 1.3v.9l.1.7.5 1.7v.6l-.4.4-.8.4-1.1 1.5-.3 1.7-.7 1.2-1.2 2.9-.6.9-.2.5m478.2-439.8l.8-.4"/><circle class="st0" cx="961.8" cy="334.8" r="5.5"/><circle class="st0" cx="917.5" cy="320.4" r="5.5"/><g><path d="M921.8 318.7l-2 .1-.1-2c0-.4-.3-.6-.6-.6h-.6c-.4 0-.6.3-.6.6l.1 2-2 .1c-.6 0-.7.4-.7.6v.5c0 .3.2.6.7.6l2-.1.1 2c0 .6.4.7.6.7h.5c.3 0 .6-.2.6-.7l-.1-2 2-.1c.4 0 .6-.3.6-.6v-.6c.2-.3-.1-.5-.5-.5z"/><path class="st0" d="M919 312.8c-3.9 0-7 3.1-7 7 0 1.3.6 2.8.6 2.8.2.4.2 1 .1 1.4l-.5 1.6c-.1.4.1.6.5.6l1.7-.4c.4-.1 1.1 0 1.4.1 0 0 1.8.8 3.2.8 3.9 0 7-3.1 7-7 .1-3.8-3.1-6.9-7-6.9zm2.9 7.7l-2 .1.1 2c0 .5-.3.7-.6.7h-.5c-.3 0-.6-.1-.6-.7l-.1-2-2 .1c-.5 0-.7-.3-.7-.6v-.5c0-.3.1-.6.7-.6l2-.1-.1-2c0-.4.2-.6.6-.6h.6c.4 0 .6.2.6.6l.1 2 2-.1c.4 0 .6.2.6.6v.6c-.1.2-.3.5-.7.5z"/></g><g><path d="M965.7 332.8l-2 .1-.1-2c0-.4-.3-.6-.6-.6h-.6c-.4 0-.6.3-.6.6l.1 2-2 .1c-.6 0-.7.4-.7.6v.5c0 .3.2.6.7.6l2-.1.1 2c0 .6.4.7.6.7h.5c.3 0 .6-.2.6-.7l-.1-2 2-.1c.4 0 .6-.3.6-.6v-.6c.1-.3-.2-.5-.5-.5z"/><path class="st0" d="M962.8 326.9c-3.9 0-7 3.1-7 7 0 1.3.6 2.8.6 2.8.2.4.2 1 .1 1.4l-.5 1.6c-.1.4.1.6.5.6l1.7-.4c.4-.1 1.1 0 1.4.1 0 0 1.8.8 3.2.8 3.9 0 7-3.1 7-7 .1-3.8-3.1-6.9-7-6.9zm2.9 7.7l-2 .1.1 2c0 .5-.3.7-.6.7h-.5c-.3 0-.6-.1-.6-.7l-.1-2-2 .1c-.5 0-.7-.3-.7-.6v-.5c0-.3.1-.6.7-.6l2-.1-.1-2c0-.4.2-.6.6-.6h.6c.4 0 .6.2.6.6l.1 2 2-.1c.4 0 .6.2.6.6v.6c0 .2-.3.5-.7.5z"/></g><g><path d="M1011.7 349.9l-2 .1-.1-2c0-.4-.3-.6-.6-.6h-.6c-.4 0-.6.3-.6.6l.1 2-2 .1c-.6 0-.7.4-.7.6v.5c0 .3.2.6.7.6l2-.1.1 2c0 .6.4.7.6.7h.5c.3 0 .6-.2.6-.7l-.1-2 2-.1c.4 0 .6-.3.6-.6v-.6c.1-.3-.2-.5-.5-.5z"/><path class="st0" d="M1008.8 344c-3.9 0-7 3.1-7 7 0 1.3.6 2.8.6 2.8.2.4.2 1 .1 1.4l-.5 1.6c-.1.4.1.6.5.6l1.7-.4c.4-.1 1.1 0 1.4.1 0 0 1.8.8 3.2.8 3.9 0 7-3.1 7-7 .1-3.8-3.1-6.9-7-6.9zm2.9 7.7l-2 .1.1 2c0 .5-.3.7-.6.7h-.5c-.3 0-.6-.1-.6-.7l-.1-2-2 .1c-.5 0-.7-.3-.7-.6v-.5c0-.3.1-.6.7-.6l2-.1-.1-2c0-.4.2-.6.6-.6h.6c.4 0 .6.2.6.6l.1 2 2-.1c.4 0 .6.2.6.6v.6c0 .2-.3.5-.7.5z"/></g><g><path d="M1051.3 324.8l-2 .1-.1-2c0-.4-.3-.6-.6-.6h-.6c-.4 0-.6.3-.6.6l.1 2-2 .1c-.6 0-.7.4-.7.6v.5c0 .3.2.6.7.6l2-.1.1 2c0 .6.4.7.6.7h.5c.3 0 .6-.2.6-.7l-.1-2 2-.1c.4 0 .6-.3.6-.6v-.6c.1-.3-.2-.5-.5-.5z"/><path class="st0" d="M1048.4 318.9c-3.9 0-7 3.1-7 7 0 1.3.6 2.8.6 2.8.2.4.2 1 .1 1.4l-.5 1.6c-.1.4.1.6.5.6l1.7-.4c.4-.1 1.1 0 1.4.1 0 0 1.8.8 3.2.8 3.9 0 7-3.1 7-7 .1-3.8-3.1-6.9-7-6.9zm2.9 7.7l-2 .1.1 2c0 .5-.3.7-.6.7h-.5c-.3 0-.6-.1-.6-.7l-.1-2-2 .1c-.5 0-.7-.3-.7-.6v-.5c0-.3.1-.6.7-.6l2-.1-.1-2c0-.4.2-.6.6-.6h.6c.4 0 .6.2.6.6l.1 2 2-.1c.4 0 .6.2.6.6v.6c0 .2-.3.5-.7.5z"/></g><g><path d="M1073.8 357.9l-2 .1-.1-2c0-.4-.3-.6-.6-.6h-.6c-.4 0-.6.3-.6.6l.1 2-2 .1c-.6 0-.7.4-.7.6v.5c0 .3.2.6.7.6l2-.1.1 2c0 .6.4.7.6.7h.5c.3 0 .6-.2.6-.7l-.1-2 2-.1c.4 0 .6-.3.6-.6v-.6c.2-.3-.1-.5-.5-.5z"/><path class="st0" d="M1071 352c-3.9 0-7 3.1-7 7 0 1.3.6 2.8.6 2.8.2.4.2 1 .1 1.4l-.5 1.6c-.1.4.1.6.5.6l1.7-.4c.4-.1 1.1 0 1.4.1 0 0 1.8.8 3.2.8 3.9 0 7-3.1 7-7 .1-3.8-3.1-6.9-7-6.9zm2.9 7.7l-2 .1.1 2c0 .5-.3.7-.6.7h-.5c-.3 0-.6-.1-.6-.7l-.1-2-2 .1c-.5 0-.7-.3-.7-.6v-.5c0-.3.1-.6.7-.6l2-.1-.1-2c0-.4.2-.6.6-.6h.6c.4 0 .6.2.6.6l.1 2 2-.1c.4 0 .6.2.6.6v.6c-.1.2-.3.5-.7.5z"/></g><g><path d="M929.4 431.9l-2 .1-.1-2c0-.4-.3-.6-.6-.6h-.6c-.4 0-.6.3-.6.6l.1 2-2 .1c-.6 0-.7.4-.7.6v.5c0 .3.2.6.7.6l2-.1.1 2c0 .6.4.7.6.7h.5c.3 0 .6-.2.6-.7l-.1-2 2-.1c.4 0 .6-.3.6-.6v-.6c.2-.3-.1-.5-.5-.5z"/><path class="st0" d="M926.6 426c-3.9 0-7 3.1-7 7 0 1.3.6 2.8.6 2.8.2.4.2 1 .1 1.4l-.5 1.6c-.1.4.1.6.5.6l1.7-.4c.4-.1 1.1 0 1.4.1 0 0 1.8.8 3.2.8 3.9 0 7-3.1 7-7 .1-3.8-3.1-6.9-7-6.9zm2.9 7.7l-2 .1.1 2c0 .5-.3.7-.6.7h-.5c-.3 0-.6-.1-.6-.7l-.1-2-2 .1c-.5 0-.7-.3-.7-.6v-.5c0-.3.1-.6.7-.6l2-.1-.1-2c0-.4.2-.6.6-.6h.6c.4 0 .6.2.6.6l.1 2 2-.1c.4 0 .6.2.6.6v.6c-.1.2-.3.5-.7.5z"/></g></svg>