<svg id="Layer_1" xmlns="http://www.w3.org/2000/svg" viewBox="0 0 355.1 119.8"><style>.st0{fill:#0093cb}.st1{fill:#77807f}.st2{fill:#fff}</style><path class="st0" d="M327.1 1.4c-13.2 0-23.9 10.7-23.9 23.9 0 4.3 2.1 9.4 2.1 9.4.6 1.3.7 3.5.2 4.9l-1.7 5.6c-.4 1.4.4 2.2 1.8 1.9l5.8-1.3c1.4-.3 3.6-.1 4.9.5 0 0 6 2.8 10.8 2.8 13.2 0 23.9-10.7 23.9-23.9.1-13.1-10.6-23.8-23.9-23.8z"/><path class="st1" d="M83.7 59.4h-3.3c-.6 0-.8 0-.9.6-5.1 13.7-10.8 29.6-11.9 33-2-3.6-10.3-21.6-15.6-33-.3-.5-.3-.6-.8-.6h-3.6c-.8 0-.9 0-.6.7 7.8 16.4 17.7 36.6 18.4 38-.4.9-3.8 9-7.4 17.7-.3.7-.2.6.5.6h3.3c.3 0 .4.2.7-.4 7.2-18.3 11.9-29.7 21.7-56 0-.5-.1-.6-.5-.6zM155.5 58.3c-4.6 0-10.4 1.8-13.4 5.8V45.5c0-1.2-.8-2.1-1.9-2.1H137c-.7 0-2 .6-2 2.1v55.1c0 .9.4 1.8 2.1 1.8h3c1.7 0 1.9-1 1.9-1.5V75.1c1-6.7 6.5-10.7 13.2-10.7 6.4 0 9.8 3.4 9.8 9.9v26.3c0 .7-.1 1.8 1.6 1.8h2.9c1.8 0 1.5-1.2 1.5-1.8V74.1c0-10.1-5.5-15.8-15.5-15.8zM199.3 57.9c-13.6 0-23 9.5-23 23.2 0 13.4 9.7 23.1 23 23.1 13.6 0 23-9.5 23-23.1 0-13.7-9.5-23.2-23-23.2zm0 40.3c-9.3 0-16.5-7.5-16.5-17.1 0-9.8 7.1-17.2 16.5-17.2 9.3 0 16.5 7.6 16.5 17.2 0 9.9-6.9 17.1-16.5 17.1zM290.8 57.9c-13.2 0-22.4 9.5-22.4 23.2 0 14 9 23.1 22.9 23.1 5.5 0 10.2-1.7 14.6-5.2.4-.3.5-.7.6-.9.1-.6-.3-1-.4-1.2l-.1-.1c-.8-1.2-1.1-1.6-1.9-2.4l-.2-.2c-.2-.2-.6-.4-.9-.5-.5-.1-.9.1-1.2.4-1 1-4.8 4.1-10.3 4.1-10.5 0-15.8-7.7-16.6-14.7h33c.4 0 1.5.1 2.2-.8.9-1.3 1-2.2 1-4.4.1-9.9-7.7-20.4-20.3-20.4zm-15.7 19.5c1.1-8 7.7-13.7 15.6-13.7 8.3 0 13.2 6.7 14 13.7h-29.6zM25.1 58.4c-7.6 0-13.1 3.2-17.1 9.4V44c0-.7.2-.6-.4-.6H4.4c-.3 0-.5 0-.5.4v29.1c0 7.7.2 13.5 1.6 17.8 4.5 13.9 19 12.6 19.4 12.6 12.5 0 20.7-9.8 20.7-22.8.1-14.4-8.5-22.1-20.5-22.1zm-.7 40.9C13.7 99.3 8.1 91 8.1 80.9c0-10.7 7-18.4 16.5-18.4 8.9 0 16.7 5.8 16.7 18.4.1 10.4-7.8 18.4-16.9 18.4zM109.2 58.4c-7.4-.4-16.4 2.8-19.6 12.8-1.5 4.4-1.6 10.5-1.6 17.4v27.9c0 1.1.7 1.9 1.5 1.9h3c1.5 0 1.4-1.3 1.4-2.1V97c4 4.3 8.9 6.6 15.3 6.6 12.8 0 20.8-8.5 20.8-22.2.1-13.3-8.6-23-20.8-23zm-.4 39.1c-8.5 0-14.7-7-14.7-16.5 0-10.1 5.7-16.5 14.6-16.5 8.4 0 15.1 7.4 15.1 16.5 0 12.2-7.8 16.5-15 16.5zM247.1 58.3h-4.7l-1.4.1h.3c-8.6.9-13.3 6.4-13.3 15.2v26.9l-.2.7c0 .1-.1-.1-.1.1.1.6.3 1.1 1.5 1.1h3.4c1.4 0 1.4-.9 1.4-1.5V74.4c0-6.7 3.2-10 9.8-10H247.1c6.6 0 9.9 3.3 9.9 10v26.5c0 1.3.6 1.5 1.8 1.5h3c1.6 0 1.2-1 1.2-1.8V73.7c0-9.8-5.6-15.4-15.9-15.4z"/><path class="st2" d="M336.7 21.5l-6.9.2-.2-6.9c0-1.3-.9-2.2-2.2-2.1l-1.9.1c-1.2 0-2 .9-2 2.2l.2 6.9-6.7.2c-2 .1-2.3 1.2-2.3 2.2l.1 1.8c0 1 .6 2.1 2.3 2.1l6.8-.2.2 6.7c.1 2 1.2 2.3 2.2 2.3l1.8-.1c1 0 2.1-.6 2.1-2.3l-.2-6.8 6.9-.2c1.3 0 2.2-.9 2.1-2.2l-.1-1.9c0-1.3-.9-2.1-2.2-2z"/></svg>