<svg id="Layer_1" xmlns="http://www.w3.org/2000/svg" viewBox="0 0 94.3 94.3"><style>.st0{fill:#fff}</style><g id="XMLID_18_"><path id="XMLID_19_" class="st0" d="M47.7 36.3c-1.5 0-2.7.5-3.7 1.5s-1.5 2.3-1.5 3.7c0 1.5.5 2.7 1.5 3.7s2.3 1.5 3.7 1.5c1.5 0 2.7-.5 3.7-1.5s1.5-2.3 1.5-3.7c0-1.5-.5-2.7-1.5-3.7-1-.9-2.3-1.5-3.7-1.5z"/><path id="XMLID_24_" class="st0" d="M47.1 0C21.1 0 0 21.1 0 47.1c0 8.5 4.2 18.6 4.2 18.6 1.1 2.6 1.3 7 .5 9.7L1.3 86.5c-.8 2.7.8 4.4 3.5 3.8l11.4-2.6c2.8-.6 7.1-.2 9.6 1.1 0 0 11.7 5.6 21.3 5.6 26 0 47.1-21.1 47.1-47.1S73.2 0 47.1 0zm13.8 48.6c-1 2.6-2.3 5.1-3.7 7.4-1.5 2.3-2.9 4.5-4.3 6.5s-2.6 3.6-3.6 4.8L47.7 69c-.4-.5-.9-1.1-1.6-1.8-.7-.8-1.9-2.3-3.6-4.6-1.7-2.3-3.2-4.5-4.5-6.6s-2.5-4.6-3.5-7.3c-1.1-2.7-1.6-5.1-1.6-7.1 0-4.1 1.4-7.6 4.3-10.5 2.9-2.9 6.4-4.3 10.5-4.3s7.6 1.4 10.5 4.3 4.3 6.4 4.3 10.5c0 2-.6 4.4-1.6 7z"/></g></svg>