<svg id="Layer_1" xmlns="http://www.w3.org/2000/svg" viewBox="0 0 94.3 94.3"><style>.st0{fill:#fff}</style><path id="XMLID_22_" class="st0" d="M47.1 0C21.1 0 0 21.1 0 47.1c0 8.5 4.2 18.6 4.2 18.6 1.1 2.6 1.3 7 .5 9.7L1.3 86.5c-.8 2.7.8 4.4 3.5 3.8l11.4-2.6c2.8-.6 7.1-.2 9.6 1.1 0 0 11.7 5.6 21.3 5.6 26 0 47.1-21.1 47.1-47.1S73.2 0 47.1 0zM66 65.3c0 .6-.2 1.1-.6 1.5-.4.4-.9.6-1.5.6-9.7 0-18.1-3.5-25-10.4-6.9-6.9-10.3-15.3-10.3-25 0-.6.2-1.1.6-1.5s.8-.5 1.4-.5h7.3c.6 0 1.1.2 1.5.6s.6.8.6 1.4c0 2.6.4 5.1 1.2 7.4.3.8.1 1.6-.5 2.1l-4.6 4.6c3.1 6 7.7 10.6 13.7 13.7l4.6-4.6c.6-.6 1.4-.8 2.1-.5 2.3.8 4.8 1.2 7.4 1.2.6 0 1.1.2 1.5.6.4.4.6.9.6 1.5v7.3z"/></svg>