<svg width="65" height="65" viewBox="0 0 65 65" xmlns="http://www.w3.org/2000/svg"><title>g21910</title><g transform="translate(1.328 1.24)" fill="none" fill-rule="evenodd"><ellipse stroke="#0093CA" stroke-width="2.532" cx="31.04" cy="31.108" rx="30.516" ry="30.516"/><g stroke="#0093CA"><path d="M39.49 38.987a8.016 8.016 0 0 0 7.71-8.005 8.016 8.016 0 0 0-7.71-8" stroke-width="1.448"/><path stroke-width="2.494" d="M13.182 23.914l23.156-9.278v32.145l-23.156-9.277z"/><path d="M39.408 41.687a10.568 10.568 0 0 0 10.165-10.553 10.568 10.568 0 0 0-10.165-10.548" stroke-width="1.448"/><path d="M39.372 44.27c.162-.007.323-.016.484-.028 6.83-.51 12.164-6.205 12.168-13.109-.008-6.872-5.294-12.544-12.08-13.095-.19-.015-.38-.026-.572-.034" stroke-width="1.502"/></g></g></svg>