<svg id="Layer_1" xmlns="http://www.w3.org/2000/svg" viewBox="0 0 190 75.2"><style>.st0{fill:#0093cb}.st1{fill:#fff}</style><path class="st0" d="M32.6 43.2c-.1-.2-.4-.4-.8-.4h-2.5c-.5 0-.9.2-1.1.7-3.9 8.2-8.7 18-10.5 22-1.5-3-4.5-9.4-7.5-15.7-1-2.2-2.1-4.4-3-6.3-.1-.2-.3-.6-1-.6h-3c-.3 0-.6.1-.8.4-.1.2-.3.5 0 1 6.1 12.9 9.2 19 14.1 28.5.1.3.5 1 1.2 1s1-.6 1.2-1c3.8-7.4 6.3-12.6 10-20.4 1.2-2.4 2.4-5.1 3.9-8.2 0-.5-.1-.8-.2-1zM48.6 41.9c-9.9 0-16.8 6.6-16.8 16 0 9.3 7.1 16 16.8 16 9.9 0 16.8-6.6 16.8-16s-6.9-16-16.8-16zm0 27.9c-6.8 0-12.2-5.2-12.2-11.8 0-6.8 5.2-11.9 12.2-11.9 6.8 0 12.2 5.2 12.2 11.9 0 6.8-5.1 11.8-12.2 11.8zM82.2 57.4c1.6-1.9 7.5-9.1 10.9-13.2.3-.4.2-.7.1-.9-.2-.5-.8-.5-1-.5h-2.6c-.4 0-.7 0-1.1.5l-9 10.8c-1.8-2.3-7.4-9.5-8.5-10.9-.3-.4-.7-.4-1-.4h-3c-.5 0-.7.3-.8.5-.1.2-.1.6.2.9 2 2.6 9 11.2 10.6 13.2-1.4 1.8-6.9 8.6-11 13.9-.1.2-.4.6-.2 1.1.2.3.5.5 1 .5h2.6c.5 0 .9-.4 1.1-.7 1.5-1.9 7.2-9.2 9-11.5 1.9 2.3 7.9 9.7 9.2 11.3.5.7.9.8 1.8.8h2.1c.3 0 .8 0 1.1-.5.2-.5-.1-.9-.2-1.1L82.2 57.4zM134.1 42.8h-2c-.8 0-1.2.4-1.2 1.2v27.5c0 1 .2 1.5 1.3 1.5h2c.9 0 1.3-.4 1.3-1.3V44c0-1.2-1-1.2-1.4-1.2zM134.3 35.7h-2.5c-.7 0-1.1.5-1.1 1.2v2.3c0 1 .6 1.2 1.1 1.2h2.6c.8 0 1.3-.4 1.3-1.2v-2.3c-.1-1.2-1.1-1.2-1.4-1.2zM156.1 70.8c-.1-.3-.2-.8-.4-1.2l-.1-.4c-.1-.2-.2-.9-.8-1.1-.3-.1-.6-.1-.9.1-.6.4-2 .9-3.5.9-2.2 0-3.3-1.2-3.3-3.7V47h5.2c.7 0 1.4-.5 1.4-1.2v-2c0-1-1-1-1.3-1h-5.2v-5.9c0-1-.4-1.4-1.4-1.4H144c-1.2 0-1.2 1-1.2 1.3v6h-3.1c-.6 0-1.1.5-1.1 1.2v1.8c0 .9.4 1.3 1.1 1.3h3V66c0 5 3.7 7.6 7.4 7.6 1.7 0 3.2-.3 5.1-1.1.9-.4 1.1-.8.9-1.7zM112.3 41.1c-4.9 0-8.7 1.8-11.6 5.4v-15-.2c0-.1.1-.4-.1-.6-.2-.2-.5-.2-.6-.2h-2.4c-.2 0-.4 0-.7.2-.2.2-.2.5-.2.7v20.7c0 5.1.1 9.7 1.1 12.9 2.3 6.9 8.3 9.4 13.5 9.4h1c9 0 15.3-6.9 15.3-16.9 0-10.1-5.8-16.4-15.3-16.4zm11 16.7c0 6.9-5.1 12.5-11.4 12.5-6.7 0-11-4.9-11-12.5 0-7.2 4.7-12.5 11.1-12.5 5.4 0 11.3 3.3 11.3 12.5zM170.9.8c-9.4 0-17 7.6-17 17 0 3.1 1.5 6.7 1.5 6.7.4.9.5 2.5.2 3.5l-1.2 4c-.3 1 .3 1.6 1.3 1.4l4.1-.9c1-.2 2.6-.1 3.5.4 0 0 4.2 2 7.7 2 9.4 0 17-7.6 17-17-.1-9.4-7.7-17.1-17.1-17.1z"/><path class="st1" d="M177.7 15.1l-4.9.1-.1-4.9c0-.9-.6-1.5-1.6-1.5h-1.4c-.9 0-1.4.6-1.4 1.6l.1 4.9-4.7.1c-1.4 0-1.7.9-1.7 1.6v1.3c0 .7.5 1.5 1.6 1.5l4.8-.1.1 4.7c0 1.4.9 1.7 1.6 1.7h1.3c.7 0 1.5-.5 1.5-1.6l-.1-4.8 4.9-.1c.9 0 1.5-.6 1.5-1.6v-1.4c.1-.9-.6-1.5-1.5-1.5z"/></svg>